<?xml version="1.0" standalone="no"?>
<!DOCTYPE svg PUBLIC "-//W3C//DTD SVG 1.1//EN" "http://www.w3.org/Graphics/SVG/1.1/DTD/svg11.dtd" >
<svg xmlns="http://www.w3.org/2000/svg" xmlns:xlink="http://www.w3.org/1999/xlink" version="1.1">
<metadata></metadata>
<defs>
<font id="baloo_2extrabold" horiz-adv-x="1200" >
<font-face units-per-em="2048" ascent="1638" descent="-410" />
<missing-glyph horiz-adv-x="409" />
<glyph unicode="&#xfb01;" horiz-adv-x="1452" d="M111 147v848q0 104 35.5 179t97 123.5t144.5 71t177 22.5q152 0 223.5 -40t71.5 -137q0 -41 -17.5 -73.5t-37.5 -48.5q-39 10 -81 17t-97 7q-88 0 -137.5 -29.5t-49.5 -103.5v-65h336q12 -23 23.5 -57t11.5 -75q0 -72 -31.5 -103.5t-85.5 -31.5h-235v-649q-23 -6 -65 -12 t-91 -6q-102 0 -147 33.5t-45 129.5zM973 1272q0 78 52 131t138 53t138.5 -53t52.5 -131t-52.5 -131.5t-138.5 -53.5t-138 53.5t-52 131.5zM989 147v834q23 6 65 12t91 6q102 0 147 -33.5t45 -129.5v-834q-23 -6 -64.5 -12t-90.5 -6q-102 0 -147.5 33.5t-45.5 129.5z" />
<glyph unicode="&#xfb02;" horiz-adv-x="1458" d="M111 147v848q0 104 35.5 179t97 123.5t144.5 71t177 22.5q152 0 223.5 -40t71.5 -137q0 -41 -17.5 -73.5t-37.5 -48.5q-39 10 -81 17t-97 7q-88 0 -137.5 -29.5t-49.5 -103.5v-65h336q12 -23 23.5 -57t11.5 -75q0 -72 -31.5 -103.5t-85.5 -31.5h-235v-649q-23 -6 -65 -12 t-91 -6q-102 0 -147 33.5t-45 129.5zM993 147v1188q23 6 65 12.5t91 6.5q102 0 147 -34t45 -130v-1188q-23 -6 -64.5 -12t-90.5 -6q-102 0 -147.5 33.5t-45.5 129.5z" />
<glyph unicode="&#xfb03;" horiz-adv-x="2283" d="M111 147v848q0 104 35.5 179t97 123.5t144.5 71t177 22.5q152 0 223.5 -40t71.5 -137q0 -41 -17.5 -73.5t-37.5 -48.5q-39 10 -81 17t-97 7q-88 0 -137.5 -29.5t-49.5 -103.5v-65h336q12 -23 23.5 -57t11.5 -75q0 -72 -31.5 -103.5t-85.5 -31.5h-235v-649q-23 -6 -65 -12 t-91 -6q-102 0 -147 33.5t-45 129.5zM942 147v848q0 104 36 179t97.5 123.5t144.5 71t177 22.5q152 0 223.5 -40t71.5 -137q0 -41 -17.5 -73.5t-38.5 -48.5q-39 10 -81 17t-97 7q-88 0 -137 -29.5t-49 -103.5v-65h336q12 -23 23 -57t11 -75q0 -72 -31.5 -103.5t-84.5 -31.5 h-236v-649q-23 -6 -64.5 -12t-90.5 -6q-102 0 -147.5 33.5t-45.5 129.5zM1804 1272q0 78 52.5 131t138.5 53t138 -53t52 -131t-52 -131.5t-138 -53.5t-138.5 53.5t-52.5 131.5zM1821 147v834q23 6 64.5 12t90.5 6q102 0 147.5 -33.5t45.5 -129.5v-834q-23 -6 -65 -12t-91 -6 q-102 0 -147 33.5t-45 129.5z" />
<glyph unicode="&#xfb04;" horiz-adv-x="2312" d="M111 147v848q0 104 35.5 179t97 123.5t144.5 71t177 22.5q152 0 223.5 -40t71.5 -137q0 -41 -17.5 -73.5t-37.5 -48.5q-39 10 -81 17t-97 7q-88 0 -137.5 -29.5t-49.5 -103.5v-65h336q12 -23 23.5 -57t11.5 -75q0 -72 -31.5 -103.5t-85.5 -31.5h-235v-649q-23 -6 -65 -12 t-91 -6q-102 0 -147 33.5t-45 129.5zM942 147v848q0 104 36 179t97.5 123.5t144.5 71t177 22.5q152 0 223.5 -40t71.5 -137q0 -41 -17.5 -73.5t-38.5 -48.5q-39 10 -81 17t-97 7q-88 0 -137 -29.5t-49 -103.5v-65h336q12 -23 23 -57t11 -75q0 -72 -31.5 -103.5t-84.5 -31.5 h-236v-649q-23 -6 -64.5 -12t-90.5 -6q-102 0 -147.5 33.5t-45.5 129.5zM1829 147v1188q23 6 64.5 12.5t91.5 6.5q102 0 147 -34t45 -130v-1188q-23 -6 -65 -12t-91 -6q-102 0 -147 33.5t-45 129.5z" />
<glyph horiz-adv-x="0" />
<glyph unicode="&#xd;" horiz-adv-x="456" />
<glyph unicode=" "  horiz-adv-x="409" />
<glyph unicode="&#x09;" horiz-adv-x="409" />
<glyph unicode="&#xa0;" horiz-adv-x="409" />
<glyph unicode="!" horiz-adv-x="610" d="M109 156q0 86 52 139t144 53t144.5 -53t52.5 -139t-52.5 -139.5t-144.5 -53.5t-144 53.5t-52 139.5zM113 1251q41 23 93 36t103 13q84 0 130 -38.5t46 -118.5q0 -47 -2 -129t-8 -177.5t-16 -191.5t-25 -172q-8 -6 -24.5 -12t-35 -10.5t-37 -6.5t-32.5 -2q-59 0 -99 18.5 t-50 71.5q-10 47 -17.5 136.5t-13.5 193t-9 208t-3 181.5z" />
<glyph unicode="&#x22;" horiz-adv-x="839" d="M51 1251q61 49 164 49q78 0 117 -28.5t39 -93.5q0 -29 -4.5 -80t-11.5 -109.5t-15 -116t-16 -98.5q-23 -12 -51.5 -16t-67.5 -4q-51 0 -87 19.5t-40 70.5zM463 1251q61 49 164 49q78 0 116.5 -28.5t38.5 -93.5q0 -29 -4 -80t-11 -109.5t-15.5 -116t-16.5 -98.5 q-23 -12 -51.5 -16t-67.5 -4q-51 0 -86.5 19.5t-40.5 70.5z" />
<glyph unicode="#" horiz-adv-x="1462" d="M61 391q0 72 32 102.5t85 30.5h129l45 207h-198q-14 20 -25.5 54t-11.5 73q0 72 31.5 102.5t84.5 30.5h177l59 269q29 4 54.5 4h45.5q76 0 123 -28t47 -110q0 -33 -6 -66.5t-14 -68.5h182l60 269q29 4 54 4h46q76 0 123 -28t47 -110q0 -33 -6 -66.5t-15 -68.5h154 q12 -20 24.5 -54t12.5 -73q0 -72 -32 -102.5t-85 -30.5h-131l-47 -207h203q12 -20 24.5 -54t12.5 -73q0 -72 -32 -102.5t-85 -30.5h-180l-58 -266q-29 -4 -52.5 -5t-45.5 -1q-78 0 -123 29.5t-45 111.5q0 31 5 64.5t11 66.5h-184l-57 -266q-29 -4 -52.5 -5t-46.5 -1 q-78 0 -123 29.5t-45 111.5q0 31 5.5 64.5t11.5 66.5h-152q-14 20 -25.5 54t-11.5 73zM614 524h185l45 207h-182z" />
<glyph unicode="$" horiz-adv-x="1157" d="M90 199q0 59 35 101t76 65q57 -45 140 -78t181 -33q100 0 141.5 32.5t41.5 73.5t-33 65t-92 44l-86 29q-90 31 -164 62.5t-127 76.5t-83 107.5t-30 152.5q0 139 86 234.5t246 130.5v161q20 6 57 11.5t80 5.5q90 0 130 -30t40 -116v-22q127 -16 204 -65.5t77 -135.5 q0 -53 -24.5 -91t-59.5 -65q-45 29 -121 50.5t-166 21.5q-92 0 -135 -25.5t-43 -64.5q0 -31 26.5 -50.5t79.5 -35.5l109 -35q193 -61 296 -158.5t103 -261.5q0 -139 -88 -238.5t-258 -133.5v-160q-20 -6 -57 -11.5t-80 -5.5q-90 0 -130 30t-40 116v16q-74 8 -134.5 26.5 t-104.5 47.5t-68.5 68t-24.5 88z" />
<glyph unicode="%" horiz-adv-x="1636" d="M59 938q0 152 91.5 238t238.5 86q145 0 237.5 -86t92.5 -238q0 -154 -92 -240t-238 -86q-147 0 -238.5 86t-91.5 240zM307 938q0 -61 23.5 -91t58.5 -30t58.5 30t23.5 91q0 59 -23.5 88t-58.5 29t-58.5 -29t-23.5 -88zM342 98q0 33 16.5 67t42.5 71l709 1028 q70 -10 126 -38t56 -75q0 -33 -16 -67.5t-43 -71.5l-709 -1026q-78 6 -130 35.5t-52 76.5zM918 309q0 152 91 238t238 86q145 0 237.5 -86t92.5 -238q0 -154 -92 -239.5t-238 -85.5q-147 0 -238 86t-91 239zM1165 309q0 -61 23.5 -91t58.5 -30t58.5 30t23.5 91 q0 59 -23.5 88t-58.5 29t-58.5 -29t-23.5 -88z" />
<glyph unicode="&#x26;" horiz-adv-x="1378" d="M74 379q0 72 21.5 130t57 104t83 80t100.5 57q-55 72 -68.5 121t-13.5 92q0 63 25.5 120.5t73.5 100.5t120 67.5t164 24.5q129 0 182 -46t53 -118q0 -33 -13 -66.5t-40 -60.5q-23 10 -52.5 16.5t-61.5 6.5q-53 0 -88 -23.5t-35 -71.5q0 -31 22.5 -58.5t69.5 -74.5 l260 -254q14 63 18 130t4 118q39 16 73 23.5t69 7.5q49 0 79.5 -14.5t48 -40t23.5 -60.5t6 -76q0 -72 -19 -152.5t-65 -162.5l158 -152q-4 -78 -53 -127t-117 -49q-82 0 -160 78l-38 37q-86 -66 -190.5 -92.5t-199.5 -26.5q-121 0 -213 32t-155.5 87t-96 130t-32.5 163z M401 401q0 -72 48.5 -120t142.5 -48q25 0 73 8.5t101 41.5l-264 264q-45 -20 -73 -59t-28 -87z" />
<glyph unicode="'" horiz-adv-x="448" d="M51 1243q29 23 74 40t100 17q78 0 122 -30.5t44 -100.5q0 -29 -4 -78t-11 -104t-15.5 -109.5t-16.5 -95.5q-23 -12 -55.5 -20t-73.5 -8q-55 0 -94 23.5t-43 74.5z" />
<glyph unicode="(" horiz-adv-x="624" d="M86 545q0 215 38 376.5t97 272.5q39 72 95.5 123t140.5 51q55 0 98 -30.5t66 -65.5q-49 -74 -87 -153t-64 -167t-39 -188t-13 -219t13 -219.5t39 -188.5t63.5 -167t87.5 -152q-23 -35 -66 -66t-98 -31q-84 0 -140.5 51.5t-95.5 123.5q-59 111 -97 272.5t-38 376.5z" />
<glyph unicode=")" horiz-adv-x="624" d="M6 -182q49 74 87 152.5t63.5 166.5t39 188.5t13.5 219.5t-13.5 219t-39 188t-63.5 167t-87 153q23 35 66 65.5t98 30.5q84 0 140.5 -51t95.5 -123q59 -111 97 -272.5t38 -376.5t-38 -377t-97 -272q-39 -72 -95.5 -123.5t-140.5 -51.5q-55 0 -98 31t-66 66z" />
<glyph unicode="*" horiz-adv-x="718" d="M41 1059q0 51 30 79.5t83 28.5q14 0 31.5 -4t35.5 -10l31 -10v147q16 10 45 24.5t65 14.5q47 0 76 -24.5t29 -73.5q0 -10 -1 -36t-3 -56l121 51q35 -16 59.5 -47t24.5 -74q0 -49 -26 -67.5t-71 -36.5l-39 -17l97 -135q-14 -45 -47 -73.5t-80 -28.5q-49 0 -74 27.5 t-47 66.5l-16 26l-78 -114q-25 -6 -47 -6q-68 0 -103 26.5t-35 73.5q0 25 11.5 47.5t33.5 50.5l29 39l-123 35q-12 37 -12 76z" />
<glyph unicode="+" horiz-adv-x="1116" d="M61 586q0 76 35 109.5t90 33.5h217v346q20 4 62.5 11.5t81.5 7.5q82 0 127 -29t45 -119v-217h301q12 -23 23.5 -59.5t11.5 -77.5q0 -76 -35 -106.5t-90 -30.5h-211v-355q-20 -4 -63.5 -10t-82.5 -6q-84 0 -127 27.5t-43 117.5v226h-307q-14 23 -24.5 56.5t-10.5 74.5z " />
<glyph unicode="," horiz-adv-x="497" d="M-20 -184q45 127 75.5 261t50.5 242q35 18 84.5 32t98.5 14q63 0 111.5 -29t48.5 -103q0 -43 -12.5 -95t-33 -104t-46 -101.5t-52.5 -82.5q-35 -45 -75 -65.5t-97 -20.5q-90 0 -153 52z" />
<glyph unicode="-" horiz-adv-x="724" d="M61 518q0 76 35 110t90 34h439q12 -23 25.5 -60t13.5 -78q0 -76 -35 -109.5t-90 -33.5h-439q-14 23 -26.5 59.5t-12.5 77.5z" />
<glyph unicode="." horiz-adv-x="487" d="M45 166q0 86 53.5 143.5t145.5 57.5t145 -57.5t53 -143.5t-53 -143.5t-145 -57.5t-145.5 57.5t-53.5 143.5z" />
<glyph unicode="/" horiz-adv-x="702" d="M6 -68q0 55 16.5 111.5t28.5 99.5l361 1301q31 4 57.5 5t48.5 1q82 0 130 -35t48 -112q0 -59 -16 -112.5t-31 -107.5l-360 -1300q-29 -4 -55.5 -5t-49.5 -1q-86 0 -132 36.5t-46 118.5z" />
<glyph unicode="0" horiz-adv-x="1241" d="M72 623q0 158 40 279.5t112.5 204.5t174 126t222.5 43q119 0 220 -43t173.5 -126t113.5 -205t41 -279q0 -164 -41 -286t-113.5 -205t-173.5 -124t-220 -41q-121 0 -222.5 41t-174 124t-112.5 205t-40 286zM422 623q0 -193 50 -286t146 -93t148.5 93t52.5 286 q0 180 -52 278t-149 98q-96 0 -146 -98t-50 -278z" />
<glyph unicode="1" horiz-adv-x="804" d="M20 1010q0 123 150 172l229 78h76q88 0 139.5 -51.5t51.5 -139.5v-1067q-23 -6 -65 -12t-91 -6q-102 0 -147.5 33.5t-45.5 129.5v766l-204 -63q-31 20 -62 57t-31 103z" />
<glyph unicode="2" horiz-adv-x="1069" d="M72 193q0 70 28.5 117.5t63.5 76.5l282 242q53 45 88 80.5t56.5 64.5t31 53.5t9.5 46.5q0 57 -46 90t-128 33t-146.5 -25.5t-107.5 -53.5q-35 25 -57.5 61.5t-22.5 85.5q0 106 100.5 158.5t270.5 52.5q121 0 213 -29.5t153.5 -81t92 -121t30.5 -149.5q0 -215 -244 -410 l-268 -215h492q12 -23 23 -57.5t11 -75.5q0 -74 -32.5 -105.5t-85.5 -31.5h-711q-45 31 -70.5 79t-25.5 114z" />
<glyph unicode="3" horiz-adv-x="1060" d="M51 178q0 55 26.5 95t65.5 63q41 -29 110 -60.5t179 -31.5q104 0 154.5 36.5t50.5 96.5q0 59 -40 90t-138 31h-193q-14 23 -24.5 55.5t-10.5 77.5q0 47 9.5 80.5t25.5 56.5h193q147 0 147 113q0 53 -47 85.5t-141 32.5q-84 0 -147.5 -19t-104.5 -48q-35 25 -57.5 60.5 t-22.5 84.5q0 102 106.5 150.5t284.5 48.5q236 0 358.5 -97.5t122.5 -260.5q0 -98 -52 -167t-124 -104q43 -16 80 -40.5t65.5 -61.5t45 -86t16.5 -115q0 -88 -38 -157.5t-105.5 -119t-160.5 -75t-204 -25.5q-213 0 -321.5 59.5t-108.5 151.5z" />
<glyph unicode="4" horiz-adv-x="1232" d="M63 434q0 39 9.5 86t36.5 82l469 629q39 12 89 20.5t91 8.5q47 0 91 -9.5t79 -31t55.5 -58.5t20.5 -92v-545h161q12 -23 24.5 -59.5t12.5 -77.5q0 -78 -34.5 -110.5t-88.5 -32.5h-75v-242q-23 -4 -68 -11t-86 -7q-45 0 -80 4t-58.5 19.5t-35.5 44t-12 77.5v115h-486 q-47 25 -81 73t-34 117zM422 524h260v385h-8z" />
<glyph unicode="5" horiz-adv-x="1069" d="M92 193q0 57 33 96t74 61q57 -43 122.5 -74.5t165.5 -31.5q96 0 140.5 43t44.5 104q0 59 -39 98t-127 39q-55 0 -92 -12t-84 -35q-100 4 -158.5 54.5t-58.5 154.5v15.5t2 37.5l24 312q6 88 55.5 139t137.5 51h590q14 -23 25 -57.5t11 -77.5q0 -76 -32.5 -110.5 t-89.5 -34.5h-394l-14 -193q39 10 79 18.5t101 8.5q106 0 185 -32t130.5 -87t76 -129t24.5 -158t-29.5 -161.5t-92 -136t-159 -93.5t-231.5 -35q-94 0 -171 14.5t-132 43t-86 70.5t-31 98z" />
<glyph unicode="6" horiz-adv-x="1142" d="M72 590q0 170 42 299t118.5 215t183 129t235.5 43q164 0 251 -45t87 -137q0 -43 -19.5 -83t-45.5 -61q-55 25 -115.5 38t-112.5 13q-123 0 -189.5 -64.5t-88.5 -184.5q41 29 108.5 52t139.5 23q188 0 299.5 -108.5t111.5 -310.5q0 -88 -30.5 -168t-92 -140.5 t-152.5 -96.5t-212 -36q-242 0 -380 162t-138 461zM434 449q0 -111 46 -158t112 -47q68 0 101.5 45t33.5 117t-36 113.5t-103 41.5q-39 0 -83 -16.5t-71 -44.5v-51z" />
<glyph unicode="7" horiz-adv-x="987" d="M41 1102q0 78 35 110.5t88 32.5h713q35 -23 62.5 -62.5t27.5 -99.5q0 -33 -6.5 -66.5t-20.5 -66.5l-426 -964q-29 -2 -54.5 -2h-47.5q-92 0 -149.5 34.5t-57.5 120.5q0 43 20.5 93.5t55.5 119.5l299 613h-502q-12 23 -24.5 59.5t-12.5 77.5z" />
<glyph unicode="8" horiz-adv-x="1146" d="M63 344q0 115 57.5 191.5t141.5 117.5q-78 41 -122 107.5t-44 159.5q0 84 35 150.5t98.5 113.5t151.5 71.5t194 24.5q227 0 357.5 -96.5t130.5 -261.5q0 -104 -49 -169t-127 -104q41 -18 79 -44.5t66.5 -63.5t46 -87.5t17.5 -113.5q0 -88 -37 -157.5t-105.5 -119 t-165 -75t-213.5 -25.5q-115 0 -209 25.5t-161.5 75t-104.5 120t-37 160.5zM412 365q0 -66 45 -103t118 -37q78 0 125.5 35t47.5 105q0 59 -50.5 103t-144.5 62q-74 -27 -107.5 -70.5t-33.5 -94.5zM438 901q0 -59 41 -93t109 -48q63 23 98 56.5t35 86.5q0 55 -38 86t-108 31 q-63 0 -100 -33t-37 -86z" />
<glyph unicode="9" horiz-adv-x="1142" d="M66 836q0 88 30.5 167.5t92 140t152.5 96.5t212 36q242 0 380 -162t138 -461q0 -170 -42 -299t-118.5 -215t-183 -129t-235.5 -43q-164 0 -257.5 45.5t-93.5 137.5q0 43 19.5 82.5t46.5 60.5q55 -25 115.5 -38t111.5 -13q133 0 211 68.5t78 183.5v4q-41 -33 -103.5 -51.5 t-134.5 -18.5q-92 0 -168.5 25.5t-133 77t-87 128t-30.5 177.5zM412 844q0 -72 43.5 -113t109.5 -41q39 0 79 16.5t67 45.5v26q0 221 -160 221q-68 0 -103.5 -42t-35.5 -113z" />
<glyph unicode=":" horiz-adv-x="528" d="M66 166q0 86 53 143.5t145 57.5t145.5 -57.5t53.5 -143.5t-53.5 -143.5t-145.5 -57.5t-145 57.5t-53 143.5zM78 809q0 86 53 143.5t145 57.5t145.5 -57.5t53.5 -143.5t-53 -143.5t-146 -57.5q-92 0 -145 57.5t-53 143.5z" />
<glyph unicode=";" horiz-adv-x="544" d="M6 -184q45 127 76 261t51 242q35 18 84 32t98 14q63 0 111.5 -29t48.5 -103q0 -43 -12 -95t-32.5 -104t-46 -101.5t-52.5 -82.5q-35 -45 -75 -65.5t-97 -20.5q-90 0 -154 52zM78 809q0 86 53 143.5t145 57.5t145.5 -57.5t53.5 -143.5t-53 -143.5t-146 -57.5 q-92 0 -145 57.5t-53 143.5z" />
<glyph unicode="&#x3c;" horiz-adv-x="1003" d="M61 569q0 86 25 135.5t72 71.5l612 307q100 -27 136 -72.5t36 -99.5q0 -72 -36 -111.5t-105 -74.5l-410 -162l545 -248q4 -12 5 -28.5t1 -30.5q0 -37 -8 -69.5t-26.5 -57.5t-48.5 -40t-75 -15q-43 0 -84 17.5t-104 49.5l-481 244q-53 70 -54 184z" />
<glyph unicode="=" horiz-adv-x="1042" d="M66 385q0 76 34.5 109.5t89.5 33.5h752q12 -23 23.5 -59.5t11.5 -77.5q0 -76 -35 -106.5t-90 -30.5h-752q-14 23 -24 56.5t-10 74.5zM66 813q0 76 34.5 109.5t89.5 33.5h752q12 -23 23.5 -59.5t11.5 -77.5q0 -76 -35 -106.5t-90 -30.5h-752q-14 23 -24 56.5t-10 74.5z " />
<glyph unicode="&#x3e;" horiz-adv-x="1005" d="M61 891q0 37 8.5 69.5t27 57t48 40t74.5 15.5q43 0 89 -19.5t100 -45.5l481 -240q53 -70 53 -184q0 -86 -24.5 -134.5t-71.5 -72.5l-604 -307q-100 27 -136 72.5t-36 99.5q0 72 35.5 111.5t105.5 74.5l401 162l-544 241q-4 12 -5.5 29t-1.5 31z" />
<glyph unicode="?" horiz-adv-x="1019" d="M49 1094q0 53 31 93t85 65.5t129 38t165 12.5q121 0 212 -30t152.5 -83t93 -127t31.5 -160q0 -178 -116.5 -281.5t-346.5 -150.5l-206 -41q-35 23 -66 69t-31 111q0 63 34 95t99 49l160 39q53 16 78 39.5t25 70.5q0 39 -38 73t-130 34q-84 0 -158 -20.5t-119 -51.5 q-35 27 -59.5 64.5t-24.5 91.5zM211 158q0 86 52 139t145 53q92 0 144 -53t52 -139t-52 -139.5t-144 -53.5t-144.5 53.5t-52.5 139.5z" />
<glyph unicode="@" horiz-adv-x="2189" d="M100 418q0 217 81 392t222.5 296t333 186.5t412.5 65.5q211 0 387 -56.5t303 -159t197.5 -250t70.5 -327.5q0 -274 -137 -424.5t-389 -150.5q-61 0 -136 17t-134 54q-49 -29 -113.5 -45t-142.5 -16q-92 0 -169 26.5t-132.5 79t-86 127t-30.5 170.5q0 111 38 204 t105.5 158.5t162.5 102.5t212 37q119 0 201 -28.5t139 -67.5q80 -55 80 -137v-20.5t-2 -20.5l-43 -369q8 -4 24.5 -6t26.5 -2q92 0 145.5 87t53.5 226q0 117 -47 214.5t-130 167t-199 108.5t-253 39q-160 0 -293 -51.5t-228 -142.5t-147.5 -215t-52.5 -269q0 -141 46 -254 t128 -193t193.5 -122t244.5 -42q92 0 150.5 8.5t103.5 14.5q14 -23 25.5 -55.5t11.5 -61.5q0 -43 -14 -75.5t-50 -55t-97.5 -35t-153.5 -12.5q-158 0 -320.5 49t-296 154.5t-217.5 273.5t-84 406zM983 406q0 -82 40 -113t91 -31q59 0 103 31l30 319q-16 10 -37.5 15.5 t-56.5 5.5q-72 0 -121 -58t-49 -169z" />
<glyph unicode="A" horiz-adv-x="1284" d="M47 113q0 29 8 57.5t19 67.5q14 55 39.5 138t56.5 178t65.5 194.5t65.5 188.5t56.5 159.5t39.5 107.5q35 20 105.5 39t142.5 19q102 0 181 -30t102 -95q37 -104 80 -245.5t86 -292t84 -297t71 -259.5q-25 -29 -74 -46t-116 -17q-100 0 -139 32.5t-58 104.5l-37 141h-370 q-20 -74 -36 -137.5t-30 -118.5q-29 -10 -60.5 -17.5t-76.5 -7.5q-104 0 -154.5 36t-50.5 100zM512 535h254q-29 117 -58.5 220t-52.5 185h-12q-29 -84 -63.5 -186.5t-67.5 -218.5z" />
<glyph unicode="B" horiz-adv-x="1267" d="M133 168v956q0 43 23.5 66.5t64.5 38.5q70 25 174.5 36t214.5 11q262 0 403.5 -88.5t141.5 -272.5q0 -92 -51 -156.5t-143 -101.5q237 -78 237 -290q0 -205 -150.5 -302.5t-433.5 -97.5q-35 0 -82 2t-97 8.5t-99 15.5t-90 25q-113 43 -113 150zM481 256q29 -8 74 -11 t86 -3q82 0 136 33.5t54 105.5q0 125 -167 125h-183v-250zM481 756h150q88 0 128 32.5t40 96.5q0 55 -46 88t-139 33q-31 0 -70.5 -2.5t-62.5 -6.5v-241z" />
<glyph unicode="C" horiz-adv-x="1169" d="M72 621q0 160 50 282.5t137 206.5t204 127t250 43q188 0 291.5 -61.5t103.5 -157.5q0 -53 -26.5 -92t-61.5 -62q-53 35 -113.5 59.5t-140.5 24.5q-158 0 -242 -97t-84 -273q0 -182 91.5 -275.5t252.5 -93.5q84 0 142.5 22.5t111.5 51.5q35 -29 54.5 -69t19.5 -93 q0 -47 -24.5 -86t-83.5 -66q-37 -16 -105 -32.5t-164 -16.5q-139 0 -260 39t-211 119t-141 204t-51 296z" />
<glyph unicode="D" horiz-adv-x="1363" d="M133 168v956q0 43 23.5 66.5t64.5 38.5q88 29 186.5 38t176.5 9q160 0 290 -39t223 -120t144 -203.5t51 -290.5q0 -164 -49 -287t-140 -205t-218 -123t-281 -41q-35 0 -80 2t-93 8.5t-96 15.5t-89 25q-113 43 -113 150zM489 266q23 -4 56 -7t61 -3q141 0 229.5 90 t88.5 270q0 184 -86 277.5t-230 93.5q-29 0 -58.5 -2t-60.5 -6v-713z" />
<glyph unicode="E" horiz-adv-x="1122" d="M133 184v867q0 88 51.5 139t139.5 51h675q14 -23 25.5 -57.5t11.5 -77.5q0 -76 -32.5 -110.5t-90.5 -34.5h-432v-191h461q14 -23 25.5 -57.5t11.5 -77.5q0 -76 -33 -109.5t-90 -33.5h-375v-216h527q14 -23 25 -59.5t11 -79.5q0 -76 -32.5 -109.5t-89.5 -33.5h-598 q-88 0 -139.5 51t-51.5 139z" />
<glyph unicode="F" horiz-adv-x="1087" d="M133 154v897q0 88 51.5 139t139.5 51h682q14 -23 25 -59.5t11 -79.5q0 -78 -33.5 -113t-90.5 -35h-431v-231h449q14 -23 26.5 -58.5t12.5 -78.5q0 -78 -34 -112t-91 -34h-358v-438q-23 -6 -70 -12t-96 -6q-109 0 -151 36.5t-42 133.5z" />
<glyph unicode="G" horiz-adv-x="1359" d="M72 618q0 162 55 285t151.5 207t225.5 127t278 43q195 0 308.5 -61.5t113.5 -161.5q0 -53 -26.5 -92t-61.5 -62q-51 31 -129 59.5t-178 28.5q-82 0 -149.5 -26.5t-116.5 -74.5t-76 -116.5t-27 -152.5q0 -92 26 -162t72 -116t108.5 -69.5t137.5 -23.5q45 0 79 8t52 18v197 h-219q-12 23 -23 59.5t-11 77.5q0 74 33.5 107t86.5 33h346q61 0 95 -34t34 -95v-422q0 -63 -22.5 -94t-71.5 -60q-29 -16 -71.5 -31.5t-94 -27t-107.5 -17.5t-112 -6q-147 0 -276 38t-224.5 118t-150.5 203.5t-55 295.5z" />
<glyph unicode="H" horiz-adv-x="1376" d="M133 154v1091q25 4 72 11.5t94 7.5q102 0 147.5 -35t45.5 -135v-332h393v483q25 4 72 11.5t94 7.5q102 0 147 -37t45 -137v-1088q-23 -6 -70 -12t-96 -6q-109 0 -150.5 36.5t-41.5 133.5v325h-393v-477q-23 -6 -70 -12t-96 -6q-109 0 -151 36.5t-42 133.5z" />
<glyph unicode="I" horiz-adv-x="624" d="M133 154v1091q25 4 72 11.5t94 7.5q102 0 147.5 -35t45.5 -135v-1092q-23 -6 -70 -12t-96 -6q-109 0 -151 36.5t-42 133.5z" />
<glyph unicode="J" horiz-adv-x="843" d="M43 152q0 41 11.5 71.5t27.5 48.5q39 -8 66.5 -11t60.5 -3q80 0 114.5 40t34.5 118v829q25 4 72 11.5t94 7.5q102 0 147.5 -35t45.5 -135v-725q0 -182 -104.5 -291t-307.5 -109q-55 0 -102 9.5t-83 31t-56.5 56t-20.5 86.5z" />
<glyph unicode="K" horiz-adv-x="1259" d="M133 154v1091q25 4 72 11.5t94 7.5q102 0 147.5 -35t45.5 -135v-332l426 491q139 0 199.5 -52t60.5 -124q0 -53 -27 -100t-86 -107l-256 -256q133 -147 241.5 -261.5t174.5 -186.5q0 -45 -16.5 -80t-44 -59.5t-62.5 -37t-74 -12.5q-84 0 -137 42t-103 100l-296 346v-463 q-23 -6 -70 -12t-96 -6q-109 0 -151 36.5t-42 133.5z" />
<glyph unicode="L" horiz-adv-x="1050" d="M133 184v1061q25 4 72 11.5t94 7.5q102 0 147.5 -35t45.5 -135v-811h469q14 -23 26 -60t12 -80q0 -76 -32.5 -112.5t-89.5 -36.5h-553q-88 0 -139.5 51t-51.5 139z" />
<glyph unicode="M" horiz-adv-x="1632" d="M106 117q0 63 6.5 185t15.5 269.5t19.5 303t18.5 286.5q16 27 71.5 57.5t155.5 30.5q109 0 170.5 -33.5t89.5 -109.5q18 -49 40 -112.5t43.5 -131t42 -134t36.5 -120.5h10q49 172 98.5 333t90.5 269q31 16 79 27.5t107 11.5q100 0 163.5 -29.5t74.5 -84.5q8 -41 17 -126 t19.5 -191.5t20.5 -225.5t19.5 -228.5t15.5 -200.5t8 -140q-35 -20 -73 -29.5t-97 -9.5q-78 0 -131 26.5t-57 104.5q-12 223 -15.5 401t-9.5 299h-10q-20 -80 -59.5 -201t-94.5 -309q-27 -23 -68.5 -36t-97.5 -13q-74 0 -122 18.5t-62 63.5q-57 180 -94 291.5t-58 195.5h-10 q-6 -121 -9 -220t-4 -193.5t-4 -190.5t-9 -213q-27 -10 -70 -17t-86 -7q-90 0 -140.5 28.5t-50.5 104.5z" />
<glyph unicode="N" horiz-adv-x="1390" d="M133 147v1031q29 41 88.5 61.5t126.5 20.5q76 0 144.5 -24t109.5 -108l205 -413q31 -63 55.5 -119.5t52.5 -130.5l9 2q-8 98 -9.5 185t-1.5 167v428q23 4 68 10.5t92 6.5q104 0 144 -36t40 -128v-1057q-29 -29 -83 -44t-130 -15t-143 22.5t-110 108.5l-203 413 q-31 63 -55.5 120t-53.5 130l-14 -4q10 -129 11 -238.5t1 -209.5v-326q-23 -4 -67.5 -10t-92.5 -6q-104 0 -144 35.5t-40 127.5z" />
<glyph unicode="O" horiz-adv-x="1439" d="M72 623q0 160 50 282.5t137 205.5t205 126t255 43t255 -43t206 -126t138 -205.5t50 -282.5t-49 -284t-136 -207t-206 -126t-258 -43t-258 43t-205 127t-135 207t-49 283zM440 623q0 -186 76 -278.5t205 -92.5q127 0 202.5 92.5t75.5 278.5q0 184 -75.5 276t-204.5 92 q-125 0 -202 -91t-77 -277z" />
<glyph unicode="P" horiz-adv-x="1189" d="M133 154v970q0 43 23.5 66.5t64.5 38.5q70 25 165 36t173 11q283 0 432.5 -121t149.5 -328q0 -100 -38 -181t-106.5 -139t-167 -90t-219.5 -32h-118v-383q-23 -6 -70 -12t-96 -6q-109 0 -151 36.5t-42 133.5zM489 666h99q86 0 137 42t51 119q0 78 -48 120t-140 42 q-33 0 -54.5 -1t-44.5 -5v-317z" />
<glyph unicode="Q" horiz-adv-x="1443" d="M72 625q0 160 50 281.5t137 204.5t205 126t255 43t255 -43t206 -126t138 -204.5t50 -281.5q0 -203 -75.5 -344.5t-205.5 -219.5q86 -39 180.5 -68.5t174.5 -53.5q2 -12 2 -21.5v-17.5q0 -117 -60.5 -170.5t-158.5 -53.5q-94 0 -194.5 52.5t-205.5 150.5l-94 88h-12 q-139 0 -258 43t-205 126t-135 206t-49 283zM440 625q0 -186 76 -277.5t205 -91.5q127 0 202.5 91.5t75.5 277.5q0 184 -75.5 275t-204.5 91q-125 0 -202 -90t-77 -276z" />
<glyph unicode="R" horiz-adv-x="1247" d="M133 154v970q0 43 23.5 66.5t64.5 38.5q70 25 162 36t197 11q283 0 426 -119.5t143 -320.5q0 -117 -60.5 -208t-160.5 -151q39 -53 79 -102t74.5 -94t62 -84t46.5 -70q-20 -72 -74.5 -109.5t-122.5 -37.5q-45 0 -77.5 10t-57 28.5t-45 45t-39.5 57.5l-174 280h-108v-399 q-23 -6 -70 -12t-96 -6q-109 0 -151 36.5t-42 133.5zM487 674h103q86 0 141 40t55 117q0 78 -50 118t-158 40q-25 0 -46.5 -2t-44.5 -6v-307z" />
<glyph unicode="S" horiz-adv-x="1128" d="M82 199q0 59 35 101t76 65q57 -45 140 -78t181 -33q100 0 141 32.5t41 73.5t-32.5 65t-92.5 44l-86 29q-90 31 -163.5 62.5t-127 76.5t-83 107.5t-29.5 152.5q0 174 134 278.5t376 104.5q88 0 163.5 -12.5t130 -38t85 -65.5t30.5 -93t-24.5 -91t-58.5 -65 q-45 29 -121 50.5t-166 21.5q-92 0 -135 -25.5t-43 -64.5q0 -31 26.5 -50.5t79.5 -35.5l109 -35q193 -61 296 -158.5t103 -261.5q0 -86 -35 -158.5t-103.5 -125t-170 -81t-232.5 -28.5q-94 0 -175 15.5t-141 45t-94 73.5t-34 102z" />
<glyph unicode="T" horiz-adv-x="1138" d="M37 1094q0 78 33.5 112.5t91.5 34.5h899q14 -23 25.5 -59.5t11.5 -79.5q0 -78 -34 -113t-91 -35h-232v-952q-23 -6 -69.5 -12t-96.5 -6q-109 0 -150.5 36.5t-41.5 133.5v800h-309q-14 23 -25.5 60t-11.5 80z" />
<glyph unicode="U" horiz-adv-x="1359" d="M127 455v790q25 4 72 11.5t94 7.5q102 0 147 -35t45 -135v-633q0 -98 54.5 -153.5t140.5 -55.5t140 55t54 154v784q25 4 72 11.5t94 7.5q102 0 147.5 -35t45.5 -135v-639q0 -111 -38 -202t-109.5 -155.5t-174 -99.5t-231.5 -35t-231.5 35t-174 99.5t-109.5 155.5t-38 202 z" />
<glyph unicode="V" horiz-adv-x="1298" d="M35 1171q29 29 83 52.5t115 23.5q76 0 124.5 -31.5t70.5 -117.5q55 -201 111.5 -384.5t117.5 -381.5h13q55 193 113.5 420t111.5 452q37 18 79 30.5t95 12.5q76 0 129 -33.5t53 -111.5q0 -45 -21.5 -131t-55 -193.5t-75.5 -224.5t-84 -220.5t-78.5 -182t-59.5 -109.5 q-29 -25 -89.5 -43t-132.5 -18q-86 0 -147.5 25.5t-83.5 70.5q-23 47 -55.5 121.5t-68.5 167t-74 196t-72.5 210t-65.5 208.5t-53 192z" />
<glyph unicode="W" horiz-adv-x="1767" d="M51 1178q29 27 80 49t111 22q78 0 128 -33.5t62 -113.5q33 -209 54.5 -348.5t35 -228.5t19.5 -138t12 -78h10q18 82 34.5 151.5t34 140.5t36.5 152t39 185q23 10 70.5 23.5t96.5 13.5q86 0 143.5 -25.5t69.5 -75.5q23 -84 42.5 -156.5t38 -139t36 -132t33.5 -137.5h10 q18 125 32.5 239t27 223.5t24.5 217t25 217.5q76 43 162 43q76 0 131 -32.5t55 -110.5q0 -45 -9 -128t-24.5 -185.5t-36 -215t-43 -215t-46 -185.5t-44.5 -128q-31 -29 -100.5 -47t-143.5 -18q-96 0 -162.5 25.5t-80.5 72.5q-27 82 -57.5 194.5t-65.5 247.5 q-29 -133 -59.5 -260t-55.5 -215q-31 -29 -92 -47t-135 -18q-92 0 -167 25.5t-97 72.5q-18 37 -40 109.5t-44.5 166t-46 202t-43 217t-36 212t-24.5 189.5z" />
<glyph unicode="X" horiz-adv-x="1230" d="M47 1090q10 29 28.5 57.5t46.5 52t64.5 38.5t81.5 15q59 0 104.5 -29.5t92.5 -101.5l160 -245l237 356q16 6 45 11t60 5q92 0 144 -45t52 -110q0 -57 -29.5 -102.5t-80.5 -108.5q-53 -66 -102.5 -129.5t-102.5 -126.5l340 -480q-16 -76 -70.5 -119.5t-146.5 -43.5 q-59 0 -101.5 29.5t-89.5 101.5l-174 266l-260 -393q-16 -2 -30.5 -3t-28.5 -1q-117 0 -172.5 47t-55.5 116q0 59 26 103.5t73 103.5l215 275z" />
<glyph unicode="Y" horiz-adv-x="1175" d="M10 1149q27 37 73 67.5t114 30.5q80 0 130 -32.5t95 -122.5l180 -363h12q29 63 52.5 118.5t46 112t46 116t52.5 132.5q37 18 82 28.5t86 10.5q72 0 122 -37.5t50 -113.5q0 -25 -13.5 -65t-53.5 -116.5t-111.5 -199.5t-188.5 -312v-401q-23 -6 -68.5 -12t-92.5 -6 q-106 0 -147.5 36.5t-41.5 129.5v260q-53 76 -114.5 173t-121 198.5t-109.5 197.5t-79 170z" />
<glyph unicode="Z" horiz-adv-x="1146" d="M70 190q0 51 26.5 104.5t63.5 98.5l471 561h-504q-16 25 -27.5 61t-11.5 81q0 78 35 114.5t94 36.5h764q90 -74 90 -196q0 -51 -23.5 -101.5t-60.5 -95.5l-469 -561h529q14 -25 26 -61.5t12 -81.5q0 -78 -33.5 -114t-93.5 -36h-808q-35 29 -57.5 78t-22.5 112z" />
<glyph unicode="[" horiz-adv-x="620" d="M94 -113v1305q0 61 37 108.5t119 47.5h325q14 -20 24.5 -54t10.5 -71q0 -72 -31.5 -102.5t-82.5 -30.5h-78v-1100h157q14 -20 24.5 -54t10.5 -71q0 -72 -31.5 -102.5t-82.5 -30.5h-246q-82 0 -119 47t-37 108z" />
<glyph unicode="\" horiz-adv-x="737" d="M20 1296q29 31 80.5 53.5t98.5 22.5q55 0 96 -23.5t57 -86.5l357 -1303q-29 -31 -80 -53.5t-99 -22.5q-55 0 -96 23.5t-57 87.5z" />
<glyph unicode="]" horiz-adv-x="649" d="M10 -143q0 72 32 102.5t83 30.5h78v1100h-158q-14 20 -24.5 54t-10.5 70q0 72 32 103t83 31h246q82 0 118.5 -47.5t36.5 -108.5v-1305q0 -61 -36.5 -108t-118.5 -47h-326q-14 20 -24.5 54t-10.5 71z" />
<glyph unicode="^" horiz-adv-x="999" d="M72 756q0 37 24.5 109.5t61.5 155.5t78.5 162t76.5 132q25 20 74 34.5t111 14.5q70 0 119 -20.5t71 -57.5q25 -33 58.5 -103.5t68.5 -155.5t65.5 -172t47.5 -153q-25 -25 -68 -46t-92 -21q-63 0 -99 26.5t-63 98.5l-114 321h-9q-35 -94 -66.5 -202.5t-54.5 -208.5 q-31 -18 -70.5 -26.5t-74.5 -8.5q-61 0 -103 27.5t-42 93.5z" />
<glyph unicode="_" horiz-adv-x="1042" d="M0 -254q0 76 35 109.5t90 33.5h883q12 -23 23 -59.5t11 -77.5q0 -76 -34.5 -106.5t-89.5 -30.5h-883q-14 23 -24.5 56.5t-10.5 74.5z" />
<glyph unicode="`" horiz-adv-x="618" d="M33 1370q0 76 43 118t106 42q41 0 79 -16.5t73 -59.5l182 -227q-10 -72 -53 -107t-92 -35q-43 0 -73 12.5t-60 41.5l-201 184q-2 8 -3 23.5t-1 23.5z" />
<glyph unicode="a" horiz-adv-x="1114" d="M57 301q0 141 84 217t260 94l269 29v14q0 59 -52.5 85t-150.5 26q-76 0 -150.5 -16.5t-134.5 -40.5q-27 18 -45 56t-18 79q0 53 25.5 85t78.5 54q59 23 140 33t153 10q111 0 202 -22.5t155.5 -68.5t99.5 -116.5t35 -167.5v-458q0 -53 -30 -87t-71 -59q-133 -80 -375 -80 q-109 0 -195.5 20.5t-149 61.5t-96.5 104.5t-34 147.5zM393 313q0 -41 31.5 -66.5t107.5 -25.5q35 0 77 7.5t63 19.5v164l-148 -13q-57 -4 -94 -24.5t-37 -61.5z" />
<glyph unicode="b" horiz-adv-x="1208" d="M111 242v1093q23 6 64.5 12.5t90.5 6.5q102 0 147.5 -34t45.5 -130v-203q41 16 91 27.5t109 11.5q100 0 189.5 -34t155 -99.5t103.5 -163.5t38 -227t-40 -228.5t-111.5 -167t-175 -103.5t-228.5 -36q-135 0 -229.5 32t-159.5 79q-90 63 -90 164zM457 272q23 -12 54.5 -21 t74.5 -9q92 0 147 65.5t55 194.5q0 131 -52 191.5t-142 60.5q-41 0 -75 -10.5t-62 -26.5v-445z" />
<glyph unicode="c" horiz-adv-x="1001" d="M63 494q0 135 44.5 235t120 166t175 98.5t209.5 32.5q147 0 227.5 -53t80.5 -137q0 -39 -18.5 -73t-43.5 -58q-35 16 -84 31.5t-106 15.5q-51 0 -97.5 -16.5t-80 -49.5t-54 -81t-20.5 -111q0 -127 71.5 -188.5t178.5 -61.5q61 0 108 15t82 32q39 -29 58.5 -61.5 t19.5 -79.5q0 -82 -81 -131.5t-230 -49.5q-129 0 -232.5 34t-176.5 100.5t-112 164t-39 226.5z" />
<glyph unicode="d" d="M63 494q0 135 41 235t112 166t167 98.5t207 32.5q88 0 151 -22v331q23 6 65 12.5t91 6.5q102 0 147.5 -34t45.5 -130v-971q0 -96 -91 -153q-59 -39 -152 -69t-216 -30q-268 0 -418 132t-150 395zM416 494q0 -129 55 -190.5t158 -61.5q37 0 67.5 8t46.5 18v463 q-23 10 -49 16.5t-55 6.5q-106 0 -164.5 -64.5t-58.5 -195.5z" />
<glyph unicode="e" horiz-adv-x="1124" d="M63 512q0 135 44.5 232.5t117 160t164.5 92t189 29.5q109 0 197.5 -32.5t153 -90t99.5 -137.5t35 -174q0 -70 -39 -106.5t-109 -47.5l-509 -78q29 -74 96 -103.5t151 -29.5q86 0 164 21.5t125 50.5q33 -20 55.5 -57t22.5 -78q0 -51 -28.5 -88t-81 -61.5t-124 -36 t-157.5 -11.5q-121 0 -224.5 34t-179 101.5t-119 170t-43.5 239.5zM387 592l348 57q-2 20 -12 42t-28.5 40.5t-47 29.5t-67.5 11q-78 0 -130.5 -47t-62.5 -133z" />
<glyph unicode="f" horiz-adv-x="880" d="M111 147v848q0 104 35.5 179t97 123.5t144.5 71t177 22.5q152 0 223.5 -40t71.5 -137q0 -41 -17.5 -73.5t-37.5 -48.5q-39 10 -81 17t-97 7q-88 0 -137.5 -29.5t-49.5 -103.5v-65h336q12 -23 23.5 -57t11.5 -75q0 -72 -31.5 -103.5t-85.5 -31.5h-235v-649q-23 -6 -65 -12 t-91 -6q-102 0 -147 33.5t-45 129.5z" />
<glyph unicode="g" horiz-adv-x="1157" d="M61 526q0 123 38 216.5t106.5 157t167 95t219.5 31.5q57 0 112.5 -8t103.5 -22.5t87 -31t66 -34.5q41 -29 64.5 -65t23.5 -91v-760q0 -109 -40 -187.5t-111 -130.5t-166 -77t-204 -25q-111 0 -194.5 17.5t-132.5 50.5q-74 49 -74 139q0 47 19.5 86t43.5 58 q59 -33 134 -55.5t157 -22.5q109 0 174.5 37t65.5 119v53q-41 -16 -91 -25.5t-112 -9.5q-92 0 -175 25.5t-145.5 84t-99.5 150.5t-37 225zM408 524q0 -129 50 -176t126 -47q41 0 72.5 9t58.5 26v393q-23 10 -46.5 17.5t-62.5 7.5q-88 0 -143 -54.5t-55 -175.5z" />
<glyph unicode="h" horiz-adv-x="1198" d="M111 147v1188q23 6 64.5 12.5t90.5 6.5q102 0 147.5 -34t45.5 -130v-203q41 16 92 27.5t111 11.5q203 0 315.5 -101.5t112.5 -301.5v-621q-23 -6 -65 -12t-91 -6q-102 0 -147.5 33.5t-45.5 129.5v455q0 84 -42 118t-103 34q-41 0 -75 -10.5t-62 -26.5v-715 q-23 -6 -65 -12t-91 -6q-102 0 -147 33.5t-45 129.5z" />
<glyph unicode="i" horiz-adv-x="577" d="M98 1272q0 78 52.5 131t138.5 53t138 -53t52 -131t-52 -131.5t-138 -53.5t-138.5 53.5t-52.5 131.5zM115 147v834q23 6 64.5 12t90.5 6q102 0 147.5 -33.5t45.5 -129.5v-834q-23 -6 -65 -12t-91 -6q-102 0 -147 33.5t-45 129.5z" />
<glyph unicode="j" horiz-adv-x="587" d="M-14 -209q74 37 106.5 87t32.5 136v967q23 6 64.5 12t91.5 6q102 0 147 -33.5t45 -129.5v-854q0 -100 -23.5 -172t-63.5 -118t-93 -68.5t-113 -22.5q-90 0 -141 54t-53 136zM98 1272q0 78 52.5 131t138.5 53t138 -53t52 -131t-52 -131.5t-138 -53.5t-138.5 53.5 t-52.5 131.5z" />
<glyph unicode="k" horiz-adv-x="1136" d="M111 147v1188q23 6 64.5 12.5t90.5 6.5q102 0 147.5 -34t45.5 -130v-541l352 361q106 0 171 -47.5t65 -118.5q0 -31 -10.5 -56.5t-32 -52t-55.5 -56.5t-79 -69l-120 -104l329 -326q-10 -96 -56 -147t-134 -51q-66 0 -117 31.5t-110 107.5l-203 252v-371q-23 -6 -65 -12 t-91 -6q-102 0 -147 33.5t-45 129.5z" />
<glyph unicode="l" horiz-adv-x="581" d="M117 147v1188q23 6 64.5 12.5t90.5 6.5q102 0 147.5 -34t45.5 -130v-1188q-23 -6 -65 -12t-91 -6q-102 0 -147 33.5t-45 129.5z" />
<glyph unicode="m" horiz-adv-x="1734" d="M106 147v617q0 55 24 90t65 64q70 49 172 78.5t217 29.5q84 0 160.5 -22.5t144.5 -69.5q61 39 138 65.5t185 26.5q78 0 153 -20.5t133 -64.5t93 -116.5t35 -177.5v-645q-23 -6 -64.5 -12t-91.5 -6q-102 0 -147 33.5t-45 129.5v490q0 61 -33 89t-86 28q-35 0 -66.5 -12.5 t-54.5 -28.5q0 -8 1 -15.5t1 -13.5v-682q-23 -6 -64.5 -12t-90.5 -6q-102 0 -147.5 33.5t-45.5 129.5v490q0 61 -35.5 89t-87.5 28q-39 0 -67.5 -11.5t-46.5 -21.5v-719q-23 -6 -65 -12t-91 -6q-102 0 -147.5 33.5t-45.5 129.5z" />
<glyph unicode="n" horiz-adv-x="1193" d="M106 147v617q0 55 24 90t65 64q70 49 175 78.5t234 29.5q231 0 356 -101.5t125 -283.5v-639q-23 -6 -64.5 -12t-90.5 -6q-102 0 -147.5 33.5t-45.5 129.5v484q0 63 -37.5 93t-99.5 30q-41 0 -77 -10.5t-68 -26.5v-715q-23 -6 -65 -12t-91 -6q-102 0 -147.5 33.5 t-45.5 129.5z" />
<glyph unicode="o" d="M63 498q0 121 39 219t110 166.5t169 105.5t219 37t219.5 -38t169 -106.5t109.5 -166.5t39 -217q0 -123 -38 -221.5t-108.5 -167t-169 -105.5t-221.5 -37t-221 36t-169 104.5t-109 167t-38 223.5zM420 498q0 -129 47 -193.5t133 -64.5t133 65.5t47 192.5q0 123 -47 189.5 t-133 66.5t-133 -66.5t-47 -189.5z" />
<glyph unicode="p" horiz-adv-x="1198" d="M106 -219v997q0 55 24 92t65 64q63 41 162.5 66.5t222.5 25.5t225 -30.5t176 -94t114 -162t40 -235.5q0 -131 -39 -230.5t-108.5 -167t-162.5 -102.5t-204 -35q-49 0 -90.5 7.5t-75.5 19.5v-361q-23 -6 -65 -12t-91 -6q-102 0 -147.5 34t-45.5 130zM453 272 q25 -12 53 -20t61 -8q102 0 156.5 65.5t54.5 194.5q0 131 -50 190.5t-148 59.5q-39 0 -72 -9.5t-55 -21.5v-451z" />
<glyph unicode="q" horiz-adv-x="1202" d="M63 494q0 131 40 230t115 166.5t179.5 101.5t233.5 34q57 0 112.5 -8t104.5 -20.5t89 -29t67 -34.5q41 -29 64.5 -64.5t23.5 -91.5v-1149q-23 -6 -65 -12t-91 -6q-102 0 -147.5 33.5t-45.5 130.5v219q-35 -12 -76.5 -19.5t-88.5 -7.5q-113 0 -207.5 34t-163 99.5 t-106.5 165t-38 228.5zM416 494q0 -129 55.5 -190.5t157.5 -61.5q68 0 116 26v461q-16 10 -43.5 17.5t-62.5 7.5q-106 0 -164.5 -64.5t-58.5 -195.5z" />
<glyph unicode="r" horiz-adv-x="841" d="M106 147v609q0 59 31 103t84 77q72 43 167 65.5t200 22.5q223 0 223 -158q0 -37 -10 -68.5t-25 -54.5q-39 8 -112 9q-53 0 -109.5 -12.5t-99.5 -37.5v-700q-23 -6 -65 -12t-91 -6q-102 0 -147.5 33.5t-45.5 129.5z" />
<glyph unicode="s" horiz-adv-x="1007" d="M82 702q0 76 32.5 137.5t92 102.5t142.5 63.5t183 22.5q76 0 142.5 -11t116 -33.5t78 -58.5t28.5 -85q0 -47 -17.5 -81t-43.5 -57q-16 10 -49 21.5t-72 21t-79 15.5t-73 6q-68 0 -104.5 -15.5t-36.5 -48.5q0 -23 20.5 -37t77.5 -26l64 -14q197 -45 279.5 -124t82.5 -204 q0 -156 -116.5 -244t-344.5 -88q-86 0 -159.5 12.5t-126 38t-82 64.5t-29.5 92q0 49 20.5 83t49.5 56q59 -33 136 -58.5t177 -25.5q63 0 97 18.5t34 49.5q0 29 -24.5 45t-81.5 27l-62 12q-178 35 -265 109.5t-87 213.5z" />
<glyph unicode="t" horiz-adv-x="813" d="M111 317v910q23 6 64.5 13t88.5 7q100 0 145.5 -34.5t45.5 -129.5v-110h268q12 -23 23.5 -56.5t11.5 -74.5q0 -72 -32 -103.5t-85 -31.5h-186v-365q0 -53 33.5 -75.5t95.5 -22.5q31 0 63.5 5t57.5 13q18 -23 31.5 -50.5t13.5 -66.5q0 -78 -59 -127t-206 -49 q-180 0 -277 82t-97 266z" />
<glyph unicode="u" horiz-adv-x="1191" d="M106 395v596q23 6 65 12.5t91 6.5q102 0 147.5 -34t45.5 -130v-451q0 -84 41 -119.5t118 -35.5q47 0 77 8t46 16v727q23 6 65 12.5t91 6.5q102 0 147 -34t45 -130v-633q0 -102 -86 -154q-72 -45 -171 -68.5t-216 -23.5q-111 0 -204 24.5t-160.5 76t-104.5 132.5t-37 195z " />
<glyph unicode="v" horiz-adv-x="1116" d="M41 944q29 29 77 50.5t105 21.5q72 0 118 -30t69 -112l79 -313q23 -92 43.5 -167t30.5 -115h10q39 152 82 336t78 362q35 18 79 28.5t85 10.5q72 0 121 -31t49 -106q0 -33 -14.5 -95.5t-39 -141.5t-55 -167t-63.5 -171t-65.5 -155.5t-57.5 -117.5q-29 -23 -84 -37 t-125 -14q-80 0 -138 20t-81 66q-18 35 -44 96t-54.5 139t-59 164t-58.5 172t-50.5 166t-36.5 141z" />
<glyph unicode="w" horiz-adv-x="1619" d="M47 944q29 29 77 50.5t105 21.5q72 0 118 -32t56 -110q20 -156 35 -257t24 -165.5t14 -98.5t9 -54h9q6 33 21 95.5t35.5 142t43 173t45.5 185.5q41 23 81 35t99 12q72 0 123 -22.5t66 -69.5q25 -90 47 -175t40.5 -158t33 -129t20.5 -89h10q23 158 44.5 328t39.5 346 q37 23 78 33t82 10q72 0 119 -31t47 -106q0 -33 -10.5 -97.5t-26.5 -146.5t-37.5 -172t-43 -173t-41 -150.5t-34.5 -104.5q-29 -25 -88 -40t-127 -15q-172 0 -203 86q-12 37 -30.5 93t-39 121.5t-39 138t-30.5 140.5q-14 -72 -34.5 -148.5t-42 -147t-40 -131t-28.5 -97.5 q-29 -25 -78 -40t-117 -15q-84 0 -145.5 23.5t-81.5 66.5q-14 33 -32.5 92t-38 134t-39 161t-37 172t-33 167t-25.5 148z" />
<glyph unicode="x" horiz-adv-x="1071" d="M51 834q16 78 64.5 127t120.5 49q68 0 104.5 -33t81.5 -92l129 -172q55 74 110.5 146.5t110.5 148.5q10 2 18.5 2h16.5q96 0 152.5 -41t56.5 -107q0 -27 -6 -49t-19.5 -46t-37 -51.5t-56.5 -64.5l-137 -151l270 -355q-10 -78 -61 -123t-123 -45q-78 2 -124 45.5 t-89 104.5l-111 158l-209 -301q-10 0 -22 -1t-21 -1q-104 0 -158.5 43t-54.5 106q0 49 23.5 87t81.5 104l162 188z" />
<glyph unicode="y" horiz-adv-x="1128" d="M41 944q29 29 77 50.5t105 21.5q72 0 119 -30t70 -112q41 -143 80.5 -283t80.5 -280h9q25 70 48 152t45.5 169t42 174t34.5 171q35 18 71.5 28.5t77.5 10.5q72 0 125 -31t53 -106q0 -82 -25.5 -196t-66.5 -235.5t-92 -238.5t-102 -205q-117 -201 -214.5 -296t-197.5 -95 q-82 0 -137.5 51t-65.5 133q66 55 131.5 125t114.5 141q-35 10 -75 48.5t-87 142.5q-23 51 -48.5 114.5t-53 145.5t-57 187.5t-62.5 242.5z" />
<glyph unicode="z" horiz-adv-x="985" d="M70 156q0 41 19.5 80.5t47.5 74.5l352 414h-376q-12 23 -23.5 57.5t-11.5 75.5q0 72 31.5 103.5t85.5 31.5h645q33 -29 52 -67.5t19 -87.5q0 -41 -19.5 -81t-47.5 -75l-344 -414h401q12 -23 23.5 -57.5t11.5 -75.5q0 -72 -32 -103.5t-85 -31.5h-678q-33 29 -52 67.5 t-19 88.5z" />
<glyph unicode="{" horiz-adv-x="690" d="M49 545q0 33 4 62.5t10 54.5q70 18 102 65t32 137v207q0 145 76.5 217t189.5 72q82 0 127 -38t45 -134v-25.5t-4 -29.5q-45 -12 -79 -42t-34 -100v-221q1 -174 -110 -225q111 -53 110 -226v-227q0 -70 34 -99.5t79 -41.5q4 -16 4 -29.5v-25.5q0 -92 -49 -132t-129 -40 q-113 0 -186.5 71.5t-73.5 216.5v213q0 90 -32 137.5t-102 65.5q-6 25 -10 54.5t-4 62.5z" />
<glyph unicode="|" horiz-adv-x="575" d="M133 -217v1601q20 4 59 9.5t78 5.5q82 0 127 -28t45 -118v-1599q-20 -4 -59 -9t-78 -5q-82 0 -127 26.5t-45 116.5z" />
<glyph unicode="}" horiz-adv-x="690" d="M55 -79q0 13 4 30q45 12 79 42t34 99v227q0 173 111 226q-111 51 -111 225v221q0 70 -34 99.5t-79 42.5q-4 16 -4 29.5v25.5q0 96 45 134t127 38q113 0 190 -71.5t77 -217.5v-207q0 -90 31.5 -137t101.5 -65q6 -25 10 -54.5t4 -62.5t-4 -62.5t-10 -54.5 q-70 -18 -101.5 -65.5t-31.5 -137.5v-213q0 -145 -74 -216.5t-187 -71.5q-80 0 -129 39.5t-49 132.5v25z" />
<glyph unicode="~" horiz-adv-x="1030" d="M37 502q0 55 22.5 94t58.5 64.5t79 38t86 12.5q51 0 100 -11.5t96 -23.5t93.5 -23.5t93.5 -11.5q49 0 76.5 26.5t45.5 57.5q43 0 81 -14.5t67 -39t45 -60.5t16 -79q0 -53 -20.5 -93t-54 -65.5t-78.5 -37.5t-94 -12t-96.5 10t-94.5 23.5t-95 23.5t-97 10q-51 0 -79 -29.5 t-44 -52.5q-41 0 -79 14.5t-66.5 39t-45 60.5t-16.5 79z" />
<glyph horiz-adv-x="0" />
<glyph unicode="&#xa1;" horiz-adv-x="610" d="M109 807q0 86 52 139t144 53t144.5 -53t52.5 -139t-52.5 -139.5t-144.5 -53.5t-144 53.5t-52 139.5zM125 -180q0 47 2 129t8 177t16.5 191.5t24.5 171.5q8 6 24.5 12.5t35 10.5t37 6t32.5 2q59 0 99 -18.5t51 -71.5q8 -47 16 -136t14.5 -192.5t9.5 -208t3 -182.5 q-41 -23 -93.5 -36t-103.5 -13q-84 0 -130 39t-46 119z" />
<glyph unicode="&#xa2;" horiz-adv-x="1007" d="M59 494q0 199 90.5 320.5t231.5 172.5v189q20 6 57 11t80 5q90 0 130 -29.5t40 -115.5v-27q111 -14 169 -63.5t58 -120.5q0 -39 -18 -73t-43 -58q-35 16 -84 31.5t-106 15.5q-51 0 -97.5 -16.5t-80 -49.5t-54 -81t-20.5 -111q0 -127 71.5 -188.5t178.5 -61.5q61 0 108 15 t82 32q39 -29 58.5 -61.5t19.5 -79.5q0 -72 -62.5 -119t-179.5 -58v-149q-20 -6 -57 -11.5t-80 -5.5q-90 0 -130 30t-40 116v51q-154 53 -238 175t-84 315z" />
<glyph unicode="&#xa3;" horiz-adv-x="1032" d="M72 162v15t2 16q82 37 123 98t41 178v23h-43q-53 0 -85 30.5t-32 108.5q0 39 12 72.5t23 56.5h98q-2 23 -3 43t-1 39q0 115 38 197.5t102.5 136t150.5 79t182 25.5q139 0 212 -47t73 -139q0 -41 -18.5 -79t-41.5 -54q-35 18 -73.5 29t-94.5 11q-88 0 -138 -38.5 t-50 -133.5v-33.5t2 -35.5h270q10 -23 22.5 -56.5t12.5 -72.5q0 -78 -31.5 -108.5t-85.5 -30.5h-164v-27q0 -113 -61 -195h453q12 -23 23 -57.5t11 -75.5q0 -74 -32.5 -105.5t-85.5 -31.5h-678q-53 0 -93 42t-40 120z" />
<glyph unicode="&#xa4;" horiz-adv-x="1157" d="M113 979q23 53 56.5 77.5t72.5 24.5q37 0 66.5 -28.5t58.5 -63.5l10 -16q88 37 192 37q113 0 207 -41l92 121q57 -10 100.5 -37t43.5 -74q0 -29 -16.5 -60.5t-45.5 -66.5l-12 -14q35 -49 53.5 -109.5t18.5 -132.5q0 -80 -22.5 -144.5t-61.5 -115.5l110 -133 q-23 -53 -56.5 -78t-72.5 -25q-37 0 -66.5 29t-58.5 64l-20 24q-88 -35 -189 -35q-53 0 -101 8.5t-93 26.5l-94 -125q-57 10 -100.5 37t-43.5 74q0 29 16.5 60.5t45.5 66.5l8 12q-37 49 -57.5 112.5t-20.5 141.5t21.5 142.5t60.5 115.5zM422 596q0 -92 42 -139t107 -47 q66 0 108 47t42 139t-42 139t-108 47t-107.5 -47t-41.5 -139z" />
<glyph unicode="&#xa5;" horiz-adv-x="1222" d="M68 1151q27 37 69.5 66.5t108.5 29.5q78 0 127 -30.5t92 -118.5l162 -328h12q29 61 49.5 112.5t40 100.5t39.5 103.5t49 123.5q35 16 80 26.5t84 10.5q70 0 117 -36.5t47 -108.5q0 -18 -6 -43t-24.5 -66t-52.5 -103.5t-89 -154.5h127q10 -20 19 -46.5t9 -59.5 q0 -59 -27.5 -84t-68.5 -25h-880q-10 16 -19.5 45t-9.5 60q0 59 26.5 84.5t67.5 25.5h68q-66 111 -124.5 220.5t-92.5 195.5zM123 313q0 59 26.5 85t67.5 26h883q10 -20 19 -47t9 -60q0 -59 -27.5 -83.5t-68.5 -24.5h-233v-207q-23 -6 -69 -12t-93 -6q-106 0 -147 36.5 t-41 129.5v59h-297q-10 16 -19.5 45t-9.5 59z" />
<glyph unicode="&#xa6;" horiz-adv-x="600" d="M133 -217v614q20 4 59 9.5t78 5.5q82 0 127 -28t45 -118v-612q-20 -4 -59 -9t-78 -5q-82 0 -127 26.5t-45 116.5zM133 770v614q20 4 59 9.5t78 5.5q82 0 127 -28t45 -118v-612q-20 -4 -59 -9t-78 -5q-82 0 -127 26.5t-45 116.5z" />
<glyph unicode="&#xa7;" horiz-adv-x="1118" d="M102 582q0 119 86 188q-80 74 -79 199q0 74 32.5 131t92 97t142.5 61.5t183 21.5q78 0 147.5 -11.5t123 -34t84 -58t30.5 -84.5q0 -47 -17.5 -81t-43.5 -57q-16 10 -51 21.5t-76 21t-85 15.5t-81 6q-66 0 -103.5 -15.5t-37.5 -48.5q0 -23 21.5 -34t70.5 -19l114 -16 q186 -27 273.5 -109t87.5 -207q0 -57 -23.5 -108t-60.5 -86q84 -72 84 -191q0 -150 -127 -236.5t-375 -86.5q-88 0 -163 12t-128 38t-83.5 64.5t-30.5 92.5q0 49 20.5 82.5t48.5 56.5q59 -33 138 -58.5t184 -25.5q98 0 135 18.5t37 48.5q0 29 -23.5 41.5t-83.5 22.5l-121 18 q-180 29 -261 104t-81 206zM426 592q0 -23 20.5 -48.5t75.5 -35.5l146 -31q25 37 24 72q0 29 -25.5 53.5t-82.5 34.5l-135 25q-12 -16 -17.5 -35t-5.5 -35z" />
<glyph unicode="&#xa8;" horiz-adv-x="765" d="M-12 1290q0 72 47 121t125 49t126 -49t48 -121t-48 -120t-126 -48t-125 48.5t-47 119.5zM428 1290q0 72 48 121t126 49t125 -49t47 -121t-47 -120t-125 -48t-126 48.5t-48 119.5z" />
<glyph unicode="&#xa9;" horiz-adv-x="1460" d="M72 631q0 133 47 249.5t133 202.5t207 135.5t268 49.5t268 -49.5t209 -135.5t136.5 -202.5t48.5 -249.5q0 -135 -48.5 -251t-136.5 -201t-209 -134t-268 -49t-268 49t-207 134t-133 201t-47 251zM291 631q0 -98 29.5 -180t87 -141.5t137.5 -92.5t182 -33t183 33 t137.5 92.5t86 141t29.5 180.5q0 98 -29.5 181t-86 143.5t-137.5 94t-183 33.5t-182 -33.5t-137.5 -94t-87 -143.5t-29.5 -181zM440 641q0 80 30 138.5t77 97t105.5 58t115.5 19.5q86 0 137 -33.5t51 -84.5q0 -59 -41 -101q-18 10 -45.5 19.5t-62.5 9.5q-55 0 -94 -33 t-39 -92q0 -63 37 -98t94 -35q39 0 66.5 10t48.5 21q47 -41 47 -103q0 -47 -57.5 -82t-149.5 -35q-68 0 -126.5 21.5t-101.5 62.5t-67.5 101.5t-24.5 138.5z" />
<glyph unicode="&#xaa;" horiz-adv-x="727" d="M29 803q0 94 53 143t170 62l174 18v8q0 74 -131 74q-49 0 -98.5 -11.5t-87.5 -27.5q-16 12 -27.5 36.5t-11.5 51.5q0 63 65 90q39 16 91.5 22.5t99.5 6.5q147 0 233 -59.5t86 -184.5v-299q0 -35 -19.5 -56.5t-45.5 -37.5q-82 -51 -244 -51q-141 0 -224 53t-83 162z M246 811q0 -27 21.5 -43t68.5 -16q25 0 51.5 4t40.5 12v109l-96 -9q-37 -4 -61.5 -16t-24.5 -41z" />
<glyph unicode="&#xab;" horiz-adv-x="1175" d="M59 444q0 66 16.5 106t41.5 62l301 291q78 -23 117.5 -64.5t39.5 -90.5q0 -23 -3 -42.5t-13 -39t-28.5 -41t-49.5 -47.5l-135 -125l254 -260q0 -59 -39 -106.5t-121 -47.5q-45 0 -80.5 23.5t-70.5 60.5l-199 201q-12 20 -21.5 54t-9.5 66zM569 444q0 66 16.5 106t41.5 62 l301 291q78 -23 117.5 -64.5t39.5 -90.5q0 -23 -3 -42.5t-13 -39t-28.5 -41t-49.5 -47.5l-135 -125l254 -260q0 -59 -39 -106.5t-121 -47.5q-45 0 -80.5 23.5t-70.5 60.5l-199 201q-12 20 -21.5 54t-9.5 66z" />
<glyph unicode="&#xac;" horiz-adv-x="1081" d="M61 782q0 72 32 104t85 32h688q72 0 113 -41t41 -113v-391q-20 -6 -64.5 -11.5t-85.5 -5.5q-43 0 -75.5 6.5t-54 22.5t-33 47t-11.5 78v141h-600q-12 23 -23.5 56.5t-11.5 74.5z" />
<glyph unicode="&#xad;" horiz-adv-x="724" d="M61 518q0 76 35 110t90 34h439q12 -23 25.5 -60t13.5 -78q0 -76 -35 -109.5t-90 -33.5h-439q-14 23 -26.5 59.5t-12.5 77.5z" />
<glyph unicode="&#xae;" horiz-adv-x="1267" d="M76 762q0 113 40 211t113.5 171t176 114.5t227.5 41.5q123 0 225.5 -41.5t177 -114.5t115.5 -171.5t41 -210.5q0 -113 -41 -211t-115.5 -170t-177 -114t-225.5 -42q-125 0 -227.5 42t-176 114t-113.5 170t-40 211zM260 762q0 -84 25.5 -152.5t75 -119t118 -78 t154.5 -27.5t154.5 27.5t115.5 78t72.5 119t25.5 152.5q0 82 -25.5 152.5t-72.5 121.5t-115.5 80t-154.5 29t-154.5 -29t-118 -80t-75 -121.5t-25.5 -152.5zM442 592v383q0 27 33 39q29 10 66 14t77 4q113 0 169.5 -46t56.5 -128q0 -53 -25.5 -87t-62.5 -52l102 -139 q-8 -29 -31.5 -43.5t-50.5 -14.5q-37 0 -57.5 17.5t-38.5 46.5l-66 102h-20v-156q-12 -2 -31.5 -4t-46.5 -2q-35 0 -54.5 12.5t-19.5 53.5zM594 799h31q31 0 49 13t18 46q0 57 -69 57q-10 0 -17.5 -1t-11.5 -1v-114z" />
<glyph unicode="&#xaf;" horiz-adv-x="745" d="M29 1282q0 76 30.5 105.5t81.5 29.5h543q16 -23 24.5 -56.5t8.5 -70.5q0 -76 -30 -105.5t-81 -29.5h-545q-10 23 -21 56.5t-11 70.5z" />
<glyph unicode="&#xb0;" horiz-adv-x="739" d="M33 973q0 72 25.5 128t70.5 95t106.5 59.5t135.5 20.5q72 0 133 -20.5t106 -59.5t71 -95t26 -128q0 -74 -26 -130.5t-71 -95t-106.5 -59t-132.5 -20.5q-74 0 -135.5 20.5t-106.5 59t-70.5 95t-25.5 130.5zM274 973q0 -59 29 -85t68 -26t66.5 25.5t27.5 85.5 q0 57 -27.5 81.5t-66.5 24.5t-68 -24.5t-29 -81.5z" />
<glyph unicode="&#xb1;" horiz-adv-x="1075" d="M82 131q0 76 35 109.5t90 33.5h751q12 -23 23.5 -59.5t11.5 -77.5q0 -76 -34.5 -106.5t-90.5 -30.5h-751q-14 23 -24.5 56.5t-10.5 74.5zM82 774q0 76 35 110t90 34h176v243q20 4 62 11.5t81 7.5q82 0 127 -29t45 -119v-114h260q12 -23 23.5 -60t11.5 -78 q0 -76 -34.5 -106.5t-90.5 -30.5h-170v-252q-20 -4 -63 -10t-82 -6q-84 0 -127 27.5t-43 117.5v123h-266q-14 23 -24.5 56.5t-10.5 74.5z" />
<glyph unicode="&#xb2;" horiz-adv-x="573" d="M45 860q0 76 29 98l149 132q31 27 49.5 45t27.5 32.5t12 24.5t3 20q0 27 -20.5 44.5t-56.5 17.5q-45 0 -76 -13.5t-53 -27.5q-16 14 -28.5 37.5t-12.5 54.5q0 55 49 83t139 28q123 0 192.5 -58.5t69.5 -158.5q0 -63 -40 -121t-103 -109l-80 -63h213q6 -14 13 -36t7 -44 q0 -45 -19.5 -63.5t-51.5 -18.5h-363q-23 16 -36 39.5t-13 56.5z" />
<glyph unicode="&#xb3;" horiz-adv-x="585" d="M29 866q0 29 15 54.5t40 35.5q33 -18 68.5 -31.5t85.5 -13.5q47 0 70.5 15.5t23.5 40.5q0 55 -78 55h-96q-8 12 -14.5 31.5t-6.5 44.5q0 51 21 78h92q68 0 67 47q0 51 -88 51q-41 0 -73.5 -10.5t-59.5 -24.5q-49 33 -49 90q0 55 58.5 82t156.5 27q123 0 190.5 -53.5 t67.5 -141.5q0 -43 -25.5 -80t-60.5 -55q41 -18 71 -57t30 -103q0 -92 -76 -146t-197 -54q-115 0 -174 33.5t-59 84.5z" />
<glyph unicode="&#xb4;" horiz-adv-x="610" d="M109 1217q0 25 9 47t38 53l206 223q106 0 159.5 -45t53.5 -102q0 -47 -20 -79t-70 -73l-194 -160q-92 0 -137 43t-45 93z" />
<glyph unicode="&#xb5;" horiz-adv-x="1191" d="M106 -197v1188q23 6 65 12.5t91 6.5q102 0 147.5 -34t45.5 -130v-451q0 -84 41 -119.5t118 -35.5q47 0 77 8t46 16v727q23 6 65 12.5t91 6.5q102 0 147 -34t45 -130v-633q0 -96 -86 -154q-59 -39 -138 -65.5t-195 -26.5q-82 0 -139.5 17.5t-98.5 48.5q10 -78 18.5 -147.5 t8.5 -143.5v-70q-29 -14 -68 -23t-88 -9q-102 0 -147.5 33.5t-45.5 129.5z" />
<glyph unicode="&#xb6;" horiz-adv-x="1126" d="M33 813q0 111 39 194t105.5 138t154.5 82.5t186 27.5h303q45 0 81 -6t60.5 -24.5t38 -50t13.5 -82.5v-1233q-23 -4 -67 -11.5t-89 -7.5t-81 6.5t-60.5 24.5t-37.5 50t-13 83v959h-142v-498q0 -27 -30.5 -44.5t-98.5 -17.5q-66 0 -131 25t-116.5 75t-83 127t-31.5 183z " />
<glyph unicode="&#xb7;" horiz-adv-x="487" d="M45 555q0 86 53.5 143.5t145.5 57.5t145 -57.5t53 -143.5t-53 -143.5t-145 -57.5t-145.5 57.5t-53.5 143.5z" />
<glyph unicode="&#xb8;" horiz-adv-x="399" d="M-41 -252q0 35 8 62h21q63 0 90.5 30.5t27.5 75.5q0 20 -8 47t-26 47l186 68q78 -43 108.5 -108.5t30.5 -141.5q0 -104 -65.5 -173t-181.5 -69q-86 0 -138.5 42t-52.5 120z" />
<glyph unicode="&#xb9;" horiz-adv-x="454" d="M14 1290q0 37 18.5 59.5t47.5 32.5l147 54h33q49 0 79 -31t30 -80v-557q-12 -4 -38 -8t-55 -4q-53 0 -80.5 18.5t-27.5 75.5v356l-84 -24q-25 12 -47.5 39.5t-22.5 68.5z" />
<glyph unicode="&#xba;" horiz-adv-x="811" d="M51 934q0 158 95.5 250t252.5 92q78 0 141.5 -24.5t109.5 -68.5t72 -107.5t26 -141.5q0 -166 -96.5 -255t-252.5 -89q-158 0 -253 92t-95 252zM283 934q0 -82 31.5 -125t84.5 -43q55 0 86 44t31 124q0 78 -32 122t-85 44q-55 0 -85.5 -43t-30.5 -123z" />
<glyph unicode="&#xbb;" horiz-adv-x="1175" d="M66 750q0 59 38.5 106t120.5 47q45 0 81 -23.5t71 -60.5l198 -201q12 -20 21.5 -54t9.5 -66q0 -66 -16.5 -106t-40.5 -62l-301 -291q-78 23 -118 64.5t-40 91.5q0 45 17.5 79.5t76.5 90.5l135 124zM575 750q0 59 39 106t121 47q45 0 81 -23.5t71 -60.5l198 -201 q12 -20 21.5 -54t9.5 -66q0 -66 -16.5 -106t-40.5 -62l-301 -291q-78 23 -118 64.5t-40 91.5q0 45 17.5 79.5t76.5 90.5l135 124z" />
<glyph unicode="&#xbc;" horiz-adv-x="1290" d="M14 1126q0 37 18.5 59.5t47.5 33.5l147 53h33q49 0 79 -31t30 -80v-557q-12 -4 -38 -8t-55 -4q-53 0 -80.5 18.5t-27.5 75.5v356l-84 -24q-25 12 -47.5 39.5t-22.5 68.5zM137 90q0 31 15.5 61.5t40.5 67.5l718 1045q63 -10 103.5 -36t44.5 -69q0 -31 -15.5 -61.5 t-39.5 -67.5l-719 -1044q-63 10 -103.5 35.5t-44.5 68.5zM668 227q0 53 28 95l234 325q20 4 47 9.5t57 5.5q49 0 93 -22t44 -81v-274h89q6 -12 12 -34t6 -46q0 -43 -19.5 -61.5t-48.5 -18.5h-39v-123q-12 -4 -36.5 -7t-51.5 -3q-49 0 -75.5 17.5t-26.5 70.5v45h-252 q-27 12 -44 37.5t-17 64.5zM879 285h108v75v46t2 63z" />
<glyph unicode="&#xbd;" horiz-adv-x="1302" d="M14 1126q0 37 18.5 59.5t47.5 33.5l147 53h33q49 0 79 -31t30 -80v-557q-12 -4 -38 -8t-55 -4q-53 0 -80.5 18.5t-27.5 75.5v356l-84 -24q-25 12 -47.5 39.5t-22.5 68.5zM137 90q0 31 15.5 61.5t40.5 67.5l718 1045q63 -10 103.5 -36t44.5 -69q0 -31 -15.5 -61.5 t-39.5 -67.5l-719 -1044q-63 10 -103.5 35.5t-44.5 68.5zM774 100q0 76 29 99l149 131q31 27 49.5 45t27.5 32.5t12 24.5t3 21q0 27 -20 44t-57 17q-45 0 -76 -13.5t-53 -27.5q-16 14 -28.5 38t-12.5 54q0 55 49 83t139 28q123 0 192.5 -58.5t69.5 -158.5q0 -63 -40 -120.5 t-103 -109.5l-80 -63h213q6 -14 13 -35.5t7 -44.5q0 -45 -19 -63.5t-52 -18.5h-363q-23 16 -36 40t-13 56z" />
<glyph unicode="&#xbe;" horiz-adv-x="1404" d="M29 711q0 29 15 54.5t40 35.5q33 -18 68.5 -31.5t85.5 -13.5q47 0 70.5 15t23.5 40q0 55 -78 55h-96q-8 12 -14.5 32t-6.5 44q0 51 21 78h92q68 0 67 47q0 51 -88 51q-41 0 -73.5 -10t-59.5 -25q-49 33 -49 91q0 55 58.5 81.5t156.5 26.5q123 0 190.5 -53t67.5 -142 q0 -43 -25.5 -79.5t-60.5 -55.5q41 -18 71 -57t30 -102q0 -92 -76 -146.5t-197 -54.5q-115 0 -174 33.5t-59 85.5zM250 90q0 31 15.5 61.5t39.5 67.5l719 1045q63 -10 103 -36t44 -69q0 -31 -15 -61.5t-40 -67.5l-719 -1044q-63 10 -103 35.5t-44 68.5zM780 227q0 53 29 95 l233 325q20 4 47 9.5t58 5.5q49 0 93 -22t44 -81v-274h88q6 -12 12.5 -34t6.5 -46q0 -43 -19.5 -61.5t-48.5 -18.5h-39v-123q-12 -4 -36.5 -7t-51.5 -3q-49 0 -75.5 17.5t-26.5 70.5v45h-252q-27 12 -44.5 37.5t-17.5 64.5zM991 285h109v75v46t2 63z" />
<glyph unicode="&#xbf;" horiz-adv-x="1019" d="M49 61q0 178 116 281.5t347 151.5l207 41q35 -23 65.5 -69t30.5 -112q0 -63 -33.5 -95t-99.5 -48l-160 -39q-53 -16 -77.5 -39.5t-24.5 -71.5q0 -39 38 -72.5t130 -33.5q84 0 157.5 20.5t118.5 51.5q35 -27 59.5 -65t24.5 -91t-30.5 -93t-85 -65.5t-130 -38t-163.5 -12.5 q-121 0 -212 29.5t-152.5 83t-93.5 127t-32 159.5zM393 807q0 86 52.5 139t144.5 53t144 -53t52 -139t-52 -139.5t-144 -53.5t-144.5 53.5t-52.5 139.5z" />
<glyph unicode="&#xc0;" horiz-adv-x="1284" d="M47 113q0 29 8 57.5t19 67.5q14 55 39.5 138t56.5 178t65.5 194.5t65.5 188.5t56.5 159.5t39.5 107.5q35 20 105.5 39t142.5 19q102 0 181 -30t102 -95q37 -104 80 -245.5t86 -292t84 -297t71 -259.5q-25 -29 -74 -46t-116 -17q-100 0 -139 32.5t-58 104.5l-37 141h-370 q-20 -74 -36 -137.5t-30 -118.5q-29 -10 -60.5 -17.5t-76.5 -7.5q-104 0 -154.5 36t-50.5 100zM309 1561q0 76 43 117.5t107 41.5q41 0 75.5 -18.5t75.5 -56.5l176 -175q-10 -72 -53 -106.5t-92 -34.5q-43 0 -73.5 15.5t-65.5 37.5l-189 131q-2 8 -3 23.5t-1 24.5zM512 535 h254q-29 117 -58.5 220t-52.5 185h-12q-29 -84 -63.5 -186.5t-67.5 -218.5z" />
<glyph unicode="&#xc1;" horiz-adv-x="1284" d="M47 113q0 29 8 57.5t19 67.5q14 55 39.5 138t56.5 178t65.5 194.5t65.5 188.5t56.5 159.5t39.5 107.5q35 20 105.5 39t142.5 19q102 0 181 -30t102 -95q37 -104 80 -245.5t86 -292t84 -297t71 -259.5q-25 -29 -74 -46t-116 -17q-100 0 -139 32.5t-58 104.5l-37 141h-370 q-20 -74 -36 -137.5t-30 -118.5q-29 -10 -60.5 -17.5t-76.5 -7.5q-104 0 -154.5 36t-50.5 100zM508 1450q0 25 7 47.5t40 50.5l238 185q86 0 134 -42t48 -104q0 -41 -19.5 -73.5t-76.5 -67.5l-205 -119q-82 0 -124 37t-42 86zM512 535h254q-29 117 -58.5 220t-52.5 185h-12 q-29 -84 -63.5 -186.5t-67.5 -218.5z" />
<glyph unicode="&#xc2;" horiz-adv-x="1284" d="M47 113q0 29 8 57.5t19 67.5q14 55 39.5 138t56.5 178t65.5 194.5t65.5 188.5t56.5 159.5t39.5 107.5q35 20 105.5 39t142.5 19q102 0 181 -30t102 -95q37 -104 80 -245.5t86 -292t84 -297t71 -259.5q-25 -29 -74 -46t-116 -17q-100 0 -139 32.5t-58 104.5l-37 141h-370 q-20 -74 -36 -137.5t-30 -118.5q-29 -10 -60.5 -17.5t-76.5 -7.5q-104 0 -154.5 36t-50.5 100zM322 1458q0 43 20 74t76 74l59 45q59 45 104.5 64.5t86.5 19.5q53 0 96 -19.5t90 -66.5l166 -166q0 -74 -38 -111t-103 -37q-41 0 -76 27t-84 80l-55 61q-49 -47 -98.5 -92 t-94.5 -82q-63 0 -106 37t-43 92zM512 535h254q-29 117 -58.5 220t-52.5 185h-12q-29 -84 -63.5 -186.5t-67.5 -218.5z" />
<glyph unicode="&#xc3;" horiz-adv-x="1284" d="M47 113q0 29 8 57.5t19 67.5q14 55 39.5 138t56.5 178t65.5 194.5t65.5 188.5t56.5 159.5t39.5 107.5q35 20 105.5 39t142.5 19q102 0 181 -30t102 -95q37 -104 80 -245.5t86 -292t84 -297t71 -259.5q-25 -29 -74 -46t-116 -17q-100 0 -139 32.5t-58 104.5l-37 141h-370 q-20 -74 -36 -137.5t-30 -118.5q-29 -10 -60.5 -17.5t-76.5 -7.5q-104 0 -154.5 36t-50.5 100zM272 1548q0 45 17.5 79t46.5 56.5t64.5 32.5t72.5 10q43 0 84 -9t79 -20t69.5 -20.5t56.5 -9.5q45 0 69.5 26.5t34.5 45.5h8q66 0 113 -46t47 -118q0 -92 -57 -135t-143 -43 q-49 0 -91.5 9t-77 20.5t-65.5 20.5t-55 9q-45 0 -68.5 -25.5t-36.5 -46.5h-8q-63 0 -111.5 45.5t-48.5 118.5zM512 535h254q-29 117 -58.5 220t-52.5 185h-12q-29 -84 -63.5 -186.5t-67.5 -218.5z" />
<glyph unicode="&#xc4;" horiz-adv-x="1284" d="M47 113q0 29 8 57.5t19 67.5q14 55 39.5 138t56.5 178t65.5 194.5t65.5 188.5t56.5 159.5t39.5 107.5q35 20 105.5 39t142.5 19q102 0 181 -30t102 -95q37 -104 80 -245.5t86 -292t84 -297t71 -259.5q-25 -29 -74 -46t-116 -17q-100 0 -139 32.5t-58 104.5l-37 141h-370 q-20 -74 -36 -137.5t-30 -118.5q-29 -10 -60.5 -17.5t-76.5 -7.5q-104 0 -154.5 36t-50.5 100zM256 1532q0 72 47 121t125 49t126 -49t48 -121t-48 -120t-126 -48t-125 48t-47 120zM512 535h254q-29 117 -58.5 220t-52.5 185h-12q-29 -84 -63.5 -186.5t-67.5 -218.5z M696 1532q0 72 48.5 121t125.5 49q78 0 125 -49t47 -121t-47 -120t-125 -48t-126 48t-48 120z" />
<glyph unicode="&#xc5;" horiz-adv-x="1284" d="M47 113q0 29 8 57.5t19 67.5q14 55 39.5 138t56.5 178t65.5 194.5t65.5 188.5t56.5 159.5t39.5 107.5q35 20 105.5 39t142.5 19q102 0 181 -30t102 -95q37 -104 80 -245.5t86 -292t84 -297t71 -259.5q-25 -29 -74 -46t-116 -17q-100 0 -139 32.5t-58 104.5l-37 141h-370 q-20 -74 -36 -137.5t-30 -118.5q-29 -10 -60.5 -17.5t-76.5 -7.5q-104 0 -154.5 36t-50.5 100zM387 1544q0 94 72.5 158.5t197.5 64.5q133 0 207 -64.5t74 -158.5t-73.5 -157.5t-207.5 -63.5q-125 0 -197.5 63.5t-72.5 157.5zM512 535h254q-29 117 -58.5 220t-52.5 185h-12 q-29 -84 -63.5 -186.5t-67.5 -218.5zM594 1544q0 -29 19.5 -46t45.5 -17q31 0 50.5 17.5t19.5 45.5q0 29 -19.5 46.5t-50.5 17.5q-27 0 -46 -17.5t-19 -46.5z" />
<glyph unicode="&#xc6;" horiz-adv-x="1792" d="M57 115q0 29 7.5 58.5t23.5 66.5q27 57 64.5 138t83 173t92.5 188.5t91 182.5t80 156.5t58 111.5q29 23 87 42t130 19q41 0 94.5 -8t98.5 -31q47 29 106 29h596q14 -23 25.5 -57.5t11.5 -77.5q0 -76 -33 -110.5t-90 -34.5h-432v-191h461q14 -23 25.5 -57.5t11.5 -77.5 q0 -76 -33 -109.5t-90 -33.5h-375v-216h526q14 -23 25.5 -59.5t11.5 -79.5q0 -76 -32.5 -109.5t-90.5 -33.5h-598q-88 0 -139 51t-51 139v74h-318l-112 -254q-29 -10 -58.5 -17t-72.5 -7q-94 0 -139.5 35.5t-45.5 99.5zM610 535h193v405h-12z" />
<glyph unicode="&#xc7;" horiz-adv-x="1169" d="M72 621q0 160 50 282.5t137 206.5t204 127t250 43q188 0 291.5 -61.5t103.5 -157.5q0 -53 -26.5 -92t-61.5 -62q-53 35 -113.5 59.5t-140.5 24.5q-158 0 -242 -97t-84 -273q0 -182 91.5 -275.5t252.5 -93.5q84 0 142.5 22.5t111.5 51.5q35 -29 54.5 -69t19.5 -93 q0 -47 -24.5 -86t-83.5 -66q-23 -10 -56 -20t-78 -19q35 -61 35 -145q0 -104 -65.5 -173t-182.5 -69q-86 0 -138 42t-52 120q0 35 8 62h21q63 0 90.5 30.5t27.5 75.5q0 27 -12 57q-115 16 -212 62.5t-167.5 126.5t-110.5 193.5t-40 265.5z" />
<glyph unicode="&#xc8;" horiz-adv-x="1122" d="M133 184v867q0 88 51.5 139t139.5 51h675q14 -23 25.5 -57.5t11.5 -77.5q0 -76 -32.5 -110.5t-90.5 -34.5h-432v-191h461q14 -23 25.5 -57.5t11.5 -77.5q0 -76 -33 -109.5t-90 -33.5h-375v-216h527q14 -23 25 -59.5t11 -79.5q0 -76 -32.5 -109.5t-89.5 -33.5h-598 q-88 0 -139.5 51t-51.5 139zM295 1561q0 76 43 117.5t106 41.5q41 0 76 -18.5t76 -56.5l176 -175q-10 -72 -53 -106.5t-92 -34.5q-43 0 -74 15.5t-66 37.5l-188 131q-2 8 -3 23.5t-1 24.5z" />
<glyph unicode="&#xc9;" horiz-adv-x="1122" d="M133 184v867q0 88 51.5 139t139.5 51h675q14 -23 25.5 -57.5t11.5 -77.5q0 -76 -32.5 -110.5t-90.5 -34.5h-432v-191h461q14 -23 25.5 -57.5t11.5 -77.5q0 -76 -33 -109.5t-90 -33.5h-375v-216h527q14 -23 25 -59.5t11 -79.5q0 -76 -32.5 -109.5t-89.5 -33.5h-598 q-88 0 -139.5 51t-51.5 139zM483 1450q0 25 7.5 47.5t39.5 50.5l238 185q86 0 134 -42t48 -104q0 -41 -19.5 -73.5t-76.5 -67.5l-205 -119q-82 0 -124 37t-42 86z" />
<glyph unicode="&#xca;" horiz-adv-x="1122" d="M133 184v867q0 88 51.5 139t139.5 51h675q14 -23 25.5 -57.5t11.5 -77.5q0 -76 -32.5 -110.5t-90.5 -34.5h-432v-191h461q14 -23 25.5 -57.5t11.5 -77.5q0 -76 -33 -109.5t-90 -33.5h-375v-216h527q14 -23 25 -59.5t11 -79.5q0 -76 -32.5 -109.5t-89.5 -33.5h-598 q-88 0 -139.5 51t-51.5 139zM258 1458q0 43 20.5 74t75.5 74l60 45q59 45 104 64.5t86 19.5q53 0 96 -19.5t91 -66.5l165 -166q0 -74 -37.5 -111t-103.5 -37q-41 0 -75.5 27t-84.5 80l-55 61q-49 -47 -98 -92t-94 -82q-63 0 -106.5 37t-43.5 92z" />
<glyph unicode="&#xcb;" horiz-adv-x="1122" d="M133 184v867q0 88 51.5 139t139.5 51h675q14 -23 25.5 -57.5t11.5 -77.5q0 -76 -32.5 -110.5t-90.5 -34.5h-432v-191h461q14 -23 25.5 -57.5t11.5 -77.5q0 -76 -33 -109.5t-90 -33.5h-375v-216h527q14 -23 25 -59.5t11 -79.5q0 -76 -32.5 -109.5t-89.5 -33.5h-598 q-88 0 -139.5 51t-51.5 139zM197 1532q0 72 47 121t125 49t126 -49t48 -121t-48.5 -120t-125.5 -48q-78 0 -125 48t-47 120zM637 1532q0 72 48 121t126 49t125 -49t47 -121t-47 -120t-125 -48t-126 48t-48 120z" />
<glyph unicode="&#xcc;" horiz-adv-x="624" d="M-45 1561q0 76 43 117.5t106 41.5q41 0 76 -18.5t76 -56.5l176 -175q-10 -72 -53 -106.5t-92 -34.5q-43 0 -74 15.5t-66 37.5l-188 131q-2 8 -3 23.5t-1 24.5zM133 154v1091q25 4 72 11.5t94 7.5q102 0 147.5 -35t45.5 -135v-1092q-23 -6 -70 -12t-96 -6 q-109 0 -151 36.5t-42 133.5z" />
<glyph unicode="&#xcd;" horiz-adv-x="624" d="M133 154v1091q25 4 72 11.5t94 7.5q102 0 147.5 -35t45.5 -135v-1092q-23 -6 -70 -12t-96 -6q-109 0 -151 36.5t-42 133.5zM160 1450q0 25 7 47.5t40 50.5l237 185q86 0 134.5 -42t48.5 -104q0 -41 -19.5 -73.5t-77.5 -67.5l-204 -119q-82 0 -124 37t-42 86z" />
<glyph unicode="&#xce;" horiz-adv-x="624" d="M-31 1458q0 43 20.5 74t76.5 74l59 45q59 45 104 64.5t86 19.5q53 0 96.5 -19.5t90.5 -66.5l166 -166q0 -74 -38 -111t-104 -37q-41 0 -75.5 27t-83.5 80l-56 61q-49 -47 -98 -92t-94 -82q-63 0 -106.5 37t-43.5 92zM133 154v1091q25 4 72 11.5t94 7.5q102 0 147.5 -35 t45.5 -135v-1092q-23 -6 -70 -12t-96 -6q-109 0 -151 36.5t-42 133.5z" />
<glyph unicode="&#xcf;" horiz-adv-x="624" d="M-92 1532q0 72 47 121t125 49t126 -49t48 -121t-48 -120t-126 -48t-125 48t-47 120zM133 154v1091q25 4 72 11.5t94 7.5q102 0 147.5 -35t45.5 -135v-1092q-23 -6 -70 -12t-96 -6q-109 0 -151 36.5t-42 133.5zM348 1532q0 72 48 121t126 49t125 -49t47 -121t-47 -120 t-125 -48t-126 48t-48 120z" />
<glyph unicode="&#xd0;" horiz-adv-x="1433" d="M41 623q0 76 32.5 109.5t90.5 33.5h39v358q0 43 23.5 66.5t64.5 38.5q88 29 186 38t176 9q160 0 290 -39t223.5 -120t144.5 -203.5t51 -290.5q0 -164 -49 -287t-140.5 -205t-218.5 -123t-280 -41q-35 0 -80 2t-93 8.5t-96.5 15.5t-89.5 25q-113 43 -112 150v319h-125 q-14 23 -25.5 58t-11.5 78zM559 266q23 -4 55.5 -7t61.5 -3q141 0 229 90t88 270q0 184 -86 277.5t-229 93.5q-29 0 -58.5 -2t-60.5 -6v-213h195q14 -23 25.5 -57.5t11.5 -77.5q0 -76 -33 -110t-90 -34h-109v-221z" />
<glyph unicode="&#xd1;" horiz-adv-x="1390" d="M133 147v1031q29 41 88.5 61.5t126.5 20.5q76 0 144.5 -24t109.5 -108l205 -413q31 -63 55.5 -119.5t52.5 -130.5l9 2q-8 98 -9.5 185t-1.5 167v428q23 4 68 10.5t92 6.5q104 0 144 -36t40 -128v-1057q-29 -29 -83 -44t-130 -15t-143 22.5t-110 108.5l-203 413 q-31 63 -55.5 120t-53.5 130l-14 -4q10 -129 11 -238.5t1 -209.5v-326q-23 -4 -67.5 -10t-92.5 -6q-104 0 -144 35.5t-40 127.5zM305 1548q0 45 17.5 79t46 56.5t64.5 32.5t73 10q43 0 84 -9t79 -20t69.5 -20.5t56.5 -9.5q45 0 69.5 26.5t34.5 45.5h8q66 0 113 -46t47 -118 q0 -92 -57.5 -135t-143.5 -43q-49 0 -91 9t-76.5 20.5t-65.5 20.5t-55 9q-45 0 -69 -25.5t-36 -46.5h-8q-63 0 -111.5 45.5t-48.5 118.5z" />
<glyph unicode="&#xd2;" horiz-adv-x="1439" d="M72 623q0 160 50 282.5t137 205.5t205 126t255 43t255 -43t206 -126t138 -205.5t50 -282.5t-49 -284t-136 -207t-206 -126t-258 -43t-258 43t-205 127t-135 207t-49 283zM391 1561q0 76 43 117.5t107 41.5q41 0 75.5 -18.5t75.5 -56.5l176 -175q-10 -72 -53 -106.5 t-92 -34.5q-43 0 -74 15.5t-65 37.5l-189 131q-2 8 -3 23.5t-1 24.5zM440 623q0 -186 76 -278.5t205 -92.5q127 0 202.5 92.5t75.5 278.5q0 184 -75.5 276t-204.5 92q-125 0 -202 -91t-77 -277z" />
<glyph unicode="&#xd3;" horiz-adv-x="1439" d="M72 623q0 160 50 282.5t137 205.5t205 126t255 43t255 -43t206 -126t138 -205.5t50 -282.5t-49 -284t-136 -207t-206 -126t-258 -43t-258 43t-205 127t-135 207t-49 283zM440 623q0 -186 76 -278.5t205 -92.5q127 0 202.5 92.5t75.5 278.5q0 184 -75.5 276t-204.5 92 q-125 0 -202 -91t-77 -277zM600 1450q0 25 7 47.5t40 50.5l238 185q86 0 134 -42t48 -104q0 -41 -19.5 -73.5t-76.5 -67.5l-205 -119q-82 0 -124 37t-42 86z" />
<glyph unicode="&#xd4;" horiz-adv-x="1439" d="M72 623q0 160 50 282.5t137 205.5t205 126t255 43t255 -43t206 -126t138 -205.5t50 -282.5t-49 -284t-136 -207t-206 -126t-258 -43t-258 43t-205 127t-135 207t-49 283zM385 1458q0 43 20.5 74t75.5 74l60 45q59 45 104 64.5t86 19.5q53 0 96 -19.5t91 -66.5l165 -166 q0 -74 -37.5 -111t-103.5 -37q-41 0 -76 27t-84 80l-55 61q-49 -47 -98 -92t-94 -82q-63 0 -106.5 37t-43.5 92zM440 623q0 -186 76 -278.5t205 -92.5q127 0 202.5 92.5t75.5 278.5q0 184 -75.5 276t-204.5 92q-125 0 -202 -91t-77 -277z" />
<glyph unicode="&#xd5;" horiz-adv-x="1439" d="M72 623q0 160 50 282.5t137 205.5t205 126t255 43t255 -43t206 -126t138 -205.5t50 -282.5t-49 -284t-136 -207t-206 -126t-258 -43t-258 43t-205 127t-135 207t-49 283zM342 1548q0 45 17.5 79t46 56.5t64.5 32.5t73 10q43 0 84 -9t78.5 -20t69.5 -20.5t56 -9.5 q45 0 70 26.5t35 45.5h8q66 0 113 -46t47 -118q0 -92 -57.5 -135t-143.5 -43q-49 0 -91 9t-77 20.5t-65.5 20.5t-55.5 9q-45 0 -68.5 -25.5t-35.5 -46.5h-8q-63 0 -111.5 45.5t-48.5 118.5zM440 623q0 -186 76 -278.5t205 -92.5q127 0 202.5 92.5t75.5 278.5 q0 184 -75.5 276t-204.5 92q-125 0 -202 -91t-77 -277z" />
<glyph unicode="&#xd6;" horiz-adv-x="1439" d="M72 623q0 160 50 282.5t137 205.5t205 126t255 43t255 -43t206 -126t138 -205.5t50 -282.5t-49 -284t-136 -207t-206 -126t-258 -43t-258 43t-205 127t-135 207t-49 283zM324 1532q0 72 47 121t125 49t126 -49t48 -121t-48.5 -120t-125.5 -48q-78 0 -125 48t-47 120z M440 623q0 -186 76 -278.5t205 -92.5q127 0 202.5 92.5t75.5 278.5q0 184 -75.5 276t-204.5 92q-125 0 -202 -91t-77 -277zM764 1532q0 72 48 121t126 49t125 -49t47 -121t-47 -120t-125 -48t-126 48t-48 120z" />
<glyph unicode="&#xd7;" horiz-adv-x="1032" d="M57 856q8 31 25.5 61.5t42.5 54t53.5 38t59.5 14.5q55 0 94 -45l192 -209l252 264q63 -20 112.5 -69.5t49.5 -110.5q0 -23 -12.5 -48.5t-40.5 -53.5l-162 -168l252 -291q-23 -72 -70 -114t-114 -42q-23 0 -54.5 13.5t-54.5 42.5l-170 204l-254 -274q-41 6 -76 23.5 t-60.5 41t-39.5 51t-14 54.5q0 39 53 98l190 203z" />
<glyph unicode="&#xd8;" horiz-adv-x="1439" d="M72 106q0 35 19.5 67t66.5 75l8 8q-45 76 -69.5 167t-24.5 200q0 160 50 282.5t137 205.5t205 126t255 43q217 0 379 -113l110 113q70 -18 111 -57t41 -86q0 -37 -26.5 -73t-65.5 -71q47 -76 73.5 -167.5t26.5 -202.5q0 -160 -49 -284t-136 -207t-206 -126t-258 -43 q-223 0 -385 113l-109 -113q-68 16 -110.5 51t-42.5 92zM430 623q0 -35 2 -64t8 -57l432 446q-66 43 -153 43q-125 0 -207 -92t-82 -276zM563 297q66 -45 158 -45q127 0 208 92.5t81 278.5q0 57 -11 114z" />
<glyph unicode="&#xd9;" horiz-adv-x="1359" d="M127 455v790q25 4 72 11.5t94 7.5q102 0 147 -35t45 -135v-633q0 -98 54.5 -153.5t140.5 -55.5t140 55t54 154v784q25 4 72 11.5t94 7.5q102 0 147.5 -35t45.5 -135v-639q0 -111 -38 -202t-109.5 -155.5t-174 -99.5t-231.5 -35t-231.5 35t-174 99.5t-109.5 155.5t-38 202 zM315 1561q0 76 43 117.5t107 41.5q41 0 75.5 -18.5t75.5 -56.5l177 -175q-10 -72 -53.5 -106.5t-92.5 -34.5q-43 0 -73.5 15.5t-65.5 37.5l-189 131q-2 8 -3 23.5t-1 24.5z" />
<glyph unicode="&#xda;" horiz-adv-x="1359" d="M127 455v790q25 4 72 11.5t94 7.5q102 0 147 -35t45 -135v-633q0 -98 54.5 -153.5t140.5 -55.5t140 55t54 154v784q25 4 72 11.5t94 7.5q102 0 147.5 -35t45.5 -135v-639q0 -111 -38 -202t-109.5 -155.5t-174 -99.5t-231.5 -35t-231.5 35t-174 99.5t-109.5 155.5t-38 202 zM547 1450q0 25 7 47.5t40 50.5l237 185q86 0 134.5 -42t48.5 -104q0 -41 -19.5 -73.5t-76.5 -67.5l-205 -119q-82 0 -124 37t-42 86z" />
<glyph unicode="&#xdb;" horiz-adv-x="1359" d="M127 455v790q25 4 72 11.5t94 7.5q102 0 147 -35t45 -135v-633q0 -98 54.5 -153.5t140.5 -55.5t140 55t54 154v784q25 4 72 11.5t94 7.5q102 0 147.5 -35t45.5 -135v-639q0 -111 -38 -202t-109.5 -155.5t-174 -99.5t-231.5 -35t-231.5 35t-174 99.5t-109.5 155.5t-38 202 zM348 1458q0 43 20.5 74t75.5 74l60 45q59 45 104 64.5t86 19.5q53 0 96.5 -19.5t90.5 -66.5l166 -166q0 -74 -38 -111t-104 -37q-41 0 -75.5 27t-84.5 80l-55 61q-49 -47 -98 -92t-94 -82q-63 0 -106.5 37t-43.5 92z" />
<glyph unicode="&#xdc;" horiz-adv-x="1359" d="M127 455v790q25 4 72 11.5t94 7.5q102 0 147 -35t45 -135v-633q0 -98 54.5 -153.5t140.5 -55.5t140 55t54 154v784q25 4 72 11.5t94 7.5q102 0 147.5 -35t45.5 -135v-639q0 -111 -38 -202t-109.5 -155.5t-174 -99.5t-231.5 -35t-231.5 35t-174 99.5t-109.5 155.5t-38 202 zM281 1532q0 72 47 121t125 49t126 -49t48 -121t-48.5 -120t-125.5 -48q-78 0 -125 48t-47 120zM721 1532q0 72 48 121t126 49t125 -49t47 -121t-47 -120t-125 -48t-126 48t-48 120z" />
<glyph unicode="&#xdd;" horiz-adv-x="1175" d="M10 1149q27 37 73 67.5t114 30.5q80 0 130 -32.5t95 -122.5l180 -363h12q29 63 52.5 118.5t46 112t46 116t52.5 132.5q37 18 82 28.5t86 10.5q72 0 122 -37.5t50 -113.5q0 -25 -13.5 -65t-53.5 -116.5t-111.5 -199.5t-188.5 -312v-401q-23 -6 -68.5 -12t-92.5 -6 q-106 0 -147.5 36.5t-41.5 129.5v260q-53 76 -114.5 173t-121 198.5t-109.5 197.5t-79 170zM436 1450q0 25 7.5 47.5t39.5 50.5l238 185q86 0 134 -42t48 -104q0 -41 -19.5 -73.5t-76.5 -67.5l-205 -119q-82 0 -124 37t-42 86z" />
<glyph unicode="&#xde;" horiz-adv-x="1181" d="M123 154v1091q25 4 72 11.5t94 7.5q102 0 147 -35t45 -135v-23h146q125 0 220 -31.5t157.5 -90t94 -139.5t31.5 -181t-31.5 -181t-94 -139.5t-157.5 -90.5t-220 -32h-146v-184q-23 -6 -69.5 -12t-96.5 -6q-109 0 -150.5 36.5t-41.5 133.5zM479 467h109q86 0 132 40 t46 122t-46 122t-132 40h-109v-324z" />
<glyph unicode="&#xdf;" horiz-adv-x="1277" d="M111 147v783q0 119 39.5 205t107.5 143t160 85t196 28q113 0 205 -32t158.5 -91.5t103.5 -143.5t37 -186q0 -51 -16.5 -83t-54.5 -52l-70 -37q-27 -14 -42 -30.5t-15 -39.5t15 -37t40 -26q125 -61 183.5 -135t58.5 -193q0 -82 -29 -145.5t-81 -106.5t-123 -65.5 t-153 -22.5q-123 0 -197.5 39t-74.5 117q0 47 19.5 79.5t48.5 53.5q29 -16 60.5 -26.5t72.5 -10.5q47 0 73.5 22.5t26.5 61.5q0 37 -20.5 59.5t-61.5 45.5q-106 57 -160.5 122.5t-54.5 171.5q0 82 51.5 143.5t141.5 96.5l16 6q0 70 -43 116t-113 46q-72 0 -114.5 -45 t-42.5 -133v-928q-23 -6 -65 -12t-91 -6q-102 0 -147 33.5t-45 129.5z" />
<glyph unicode="&#xe0;" horiz-adv-x="1114" d="M57 301q0 141 84 217t260 94l269 29v14q0 59 -52.5 85t-150.5 26q-76 0 -150.5 -16.5t-134.5 -40.5q-27 18 -45 56t-18 79q0 53 25.5 85t78.5 54q59 23 140 33t153 10q111 0 202 -22.5t155.5 -68.5t99.5 -116.5t35 -167.5v-458q0 -53 -30 -87t-71 -59q-133 -80 -375 -80 q-109 0 -195.5 20.5t-149 61.5t-96.5 104.5t-34 147.5zM227 1370q0 76 43 118t107 42q41 0 79 -16.5t72 -59.5l183 -227q-10 -72 -53.5 -107t-92.5 -35q-43 0 -72.5 12.5t-60.5 41.5l-201 184q-2 8 -3 23.5t-1 23.5zM393 313q0 -41 31.5 -66.5t107.5 -25.5q35 0 77 7.5 t63 19.5v164l-148 -13q-57 -4 -94 -24.5t-37 -61.5z" />
<glyph unicode="&#xe1;" horiz-adv-x="1114" d="M57 301q0 141 84 217t260 94l269 29v14q0 59 -52.5 85t-150.5 26q-76 0 -150.5 -16.5t-134.5 -40.5q-27 18 -45 56t-18 79q0 53 25.5 85t78.5 54q59 23 140 33t153 10q111 0 202 -22.5t155.5 -68.5t99.5 -116.5t35 -167.5v-458q0 -53 -30 -87t-71 -59q-133 -80 -375 -80 q-109 0 -195.5 20.5t-149 61.5t-96.5 104.5t-34 147.5zM393 313q0 -41 31.5 -66.5t107.5 -25.5q35 0 77 7.5t63 19.5v164l-148 -13q-57 -4 -94 -24.5t-37 -61.5zM401 1217q0 25 9.5 47t38.5 53l206 223q106 0 159.5 -45t53.5 -102q0 -47 -20.5 -79t-69.5 -73l-194 -160 q-92 0 -137.5 43t-45.5 93z" />
<glyph unicode="&#xe2;" horiz-adv-x="1114" d="M57 301q0 141 84 217t260 94l269 29v14q0 59 -52.5 85t-150.5 26q-76 0 -150.5 -16.5t-134.5 -40.5q-27 18 -45 56t-18 79q0 53 25.5 85t78.5 54q59 23 140 33t153 10q111 0 202 -22.5t155.5 -68.5t99.5 -116.5t35 -167.5v-458q0 -53 -30 -87t-71 -59q-133 -80 -375 -80 q-109 0 -195.5 20.5t-149 61.5t-96.5 104.5t-34 147.5zM213 1225q0 41 22.5 70.5t67.5 74.5l70 70q39 39 83 62.5t103 23.5q53 0 98 -20.5t105 -92.5l145 -178q0 -57 -33.5 -97t-103.5 -40q-41 0 -71.5 21.5t-63.5 62.5l-82 100q-27 -31 -48.5 -53.5t-40 -44t-36.5 -43 t-41 -47.5q-80 0 -127 35.5t-47 95.5zM393 313q0 -41 31.5 -66.5t107.5 -25.5q35 0 77 7.5t63 19.5v164l-148 -13q-57 -4 -94 -24.5t-37 -61.5z" />
<glyph unicode="&#xe3;" horiz-adv-x="1114" d="M57 301q0 141 84 217t260 94l269 29v14q0 59 -52.5 85t-150.5 26q-76 0 -150.5 -16.5t-134.5 -40.5q-27 18 -45 56t-18 79q0 53 25.5 85t78.5 54q59 23 140 33t153 10q111 0 202 -22.5t155.5 -68.5t99.5 -116.5t35 -167.5v-458q0 -53 -30 -87t-71 -59q-133 -80 -375 -80 q-109 0 -195.5 20.5t-149 61.5t-96.5 104.5t-34 147.5zM174 1286q0 45 17.5 79t46 56.5t64.5 32.5t73 10q43 0 84 -9t78.5 -20.5t69.5 -20.5t57 -9q45 0 69.5 26.5t34.5 45.5h8q66 0 113 -46.5t47 -117.5q0 -92 -57.5 -135t-143.5 -43q-49 0 -91 9t-77 20.5t-65.5 20.5 t-55.5 9q-45 0 -68.5 -25.5t-35.5 -46.5h-8q-66 0 -113 45t-47 119zM393 313q0 -41 31.5 -66.5t107.5 -25.5q35 0 77 7.5t63 19.5v164l-148 -13q-57 -4 -94 -24.5t-37 -61.5z" />
<glyph unicode="&#xe4;" horiz-adv-x="1114" d="M57 301q0 141 84 217t260 94l269 29v14q0 59 -52.5 85t-150.5 26q-76 0 -150.5 -16.5t-134.5 -40.5q-27 18 -45 56t-18 79q0 53 25.5 85t78.5 54q59 23 140 33t153 10q111 0 202 -22.5t155.5 -68.5t99.5 -116.5t35 -167.5v-458q0 -53 -30 -87t-71 -59q-133 -80 -375 -80 q-109 0 -195.5 20.5t-149 61.5t-96.5 104.5t-34 147.5zM170 1290q0 72 47 121t125 49t126 -49t48 -121t-48 -120t-126 -48t-125 48.5t-47 119.5zM393 313q0 -41 31.5 -66.5t107.5 -25.5q35 0 77 7.5t63 19.5v164l-148 -13q-57 -4 -94 -24.5t-37 -61.5zM610 1290 q0 72 48.5 121t125.5 49q78 0 125 -49t47 -121t-47 -120t-125 -48t-126 48.5t-48 119.5z" />
<glyph unicode="&#xe5;" horiz-adv-x="1114" d="M57 301q0 141 84 217t260 94l269 29v14q0 59 -52.5 85t-150.5 26q-76 0 -150.5 -16.5t-134.5 -40.5q-27 18 -45 56t-18 79q0 53 25.5 85t78.5 54q59 23 140 33t153 10q111 0 202 -22.5t155.5 -68.5t99.5 -116.5t35 -167.5v-458q0 -53 -30 -87t-71 -59q-133 -80 -375 -80 q-109 0 -195.5 20.5t-149 61.5t-96.5 104.5t-34 147.5zM279 1313q0 96 72.5 162.5t197.5 66.5q133 0 206.5 -66.5t73.5 -162.5t-73.5 -162t-206.5 -66q-125 0 -197.5 66t-72.5 162zM393 313q0 -41 31.5 -66.5t107.5 -25.5q35 0 77 7.5t63 19.5v164l-148 -13 q-57 -4 -94 -24.5t-37 -61.5zM485 1313q0 -33 19.5 -51.5t46.5 -18.5q31 0 50.5 18.5t19.5 51.5t-19.5 51t-50.5 18q-27 0 -46.5 -18t-19.5 -51z" />
<glyph unicode="&#xe6;" horiz-adv-x="1701" d="M57 301q0 141 84 217t260 94l269 29v14q0 59 -52.5 85t-150.5 26q-76 0 -150.5 -16.5t-134.5 -40.5q-27 18 -45 56t-18 79q0 53 25.5 85t78.5 54q59 23 140 33t153 10q219 0 328 -108q66 55 145.5 81.5t165.5 26.5q109 0 198 -32.5t153.5 -90t99 -137.5t34.5 -174 q0 -70 -38.5 -106.5t-108.5 -47.5l-510 -76q29 -76 96.5 -105.5t151.5 -29.5q86 0 164 21.5t125 50.5q33 -20 55 -57t22 -78q0 -51 -28.5 -88t-80.5 -61.5t-124 -36t-158 -11.5q-197 0 -325 94l-17 -10q-66 -39 -142.5 -61.5t-195.5 -22.5q-215 0 -342 82t-127 252zM393 313 q0 -41 31.5 -66.5t107.5 -25.5q35 0 77 7.5t63 19.5v164l-148 -13q-57 -4 -94 -24.5t-37 -61.5zM965 592l348 57q-2 20 -12.5 42t-29 40.5t-47 29.5t-67.5 11q-78 0 -130 -47t-62 -133z" />
<glyph unicode="&#xe7;" horiz-adv-x="1001" d="M63 494q0 135 44.5 235t120 166t175 98.5t209.5 32.5q147 0 227.5 -53t80.5 -137q0 -39 -18.5 -73t-43.5 -58q-35 16 -84 31.5t-106 15.5q-51 0 -97.5 -16.5t-80 -49.5t-54 -81t-20.5 -111q0 -127 71.5 -188.5t178.5 -61.5q61 0 108 15t82 32q39 -29 58.5 -61.5 t19.5 -79.5q0 -63 -48 -108.5t-141 -61.5q20 -35 28.5 -73t8.5 -79q0 -104 -65.5 -173t-181.5 -69q-86 0 -138.5 42t-52.5 120q0 35 8 62h21q63 0 91 30.5t28 75.5q0 29 -17 66q-193 35 -302.5 163.5t-109.5 348.5z" />
<glyph unicode="&#xe8;" horiz-adv-x="1124" d="M63 512q0 135 44.5 232.5t117 160t164.5 92t189 29.5q109 0 197.5 -32.5t153 -90t99.5 -137.5t35 -174q0 -70 -39 -106.5t-109 -47.5l-509 -78q29 -74 96 -103.5t151 -29.5q86 0 164 21.5t125 50.5q33 -20 55.5 -57t22.5 -78q0 -51 -28.5 -88t-81 -61.5t-124 -36 t-157.5 -11.5q-121 0 -224.5 34t-179 101.5t-119 170t-43.5 239.5zM231 1370q0 76 43 118t107 42q41 0 79 -16.5t72 -59.5l183 -227q-10 -72 -53.5 -107t-92.5 -35q-43 0 -72.5 12.5t-60.5 41.5l-200 184q-2 8 -3.5 23.5t-1.5 23.5zM387 592l348 57q-2 20 -12 42t-28.5 40.5 t-47 29.5t-67.5 11q-78 0 -130.5 -47t-62.5 -133z" />
<glyph unicode="&#xe9;" horiz-adv-x="1124" d="M63 512q0 135 44.5 232.5t117 160t164.5 92t189 29.5q109 0 197.5 -32.5t153 -90t99.5 -137.5t35 -174q0 -70 -39 -106.5t-109 -47.5l-509 -78q29 -74 96 -103.5t151 -29.5q86 0 164 21.5t125 50.5q33 -20 55.5 -57t22.5 -78q0 -51 -28.5 -88t-81 -61.5t-124 -36 t-157.5 -11.5q-121 0 -224.5 34t-179 101.5t-119 170t-43.5 239.5zM387 592l348 57q-2 20 -12 42t-28.5 40.5t-47 29.5t-67.5 11q-78 0 -130.5 -47t-62.5 -133zM424 1217q0 25 9 47t38 53l207 223q106 0 159.5 -45t53.5 -102q0 -47 -20.5 -79t-69.5 -73l-195 -160 q-92 0 -137 43t-45 93z" />
<glyph unicode="&#xea;" horiz-adv-x="1124" d="M63 512q0 135 44.5 232.5t117 160t164.5 92t189 29.5q109 0 197.5 -32.5t153 -90t99.5 -137.5t35 -174q0 -70 -39 -106.5t-109 -47.5l-509 -78q29 -74 96 -103.5t151 -29.5q86 0 164 21.5t125 50.5q33 -20 55.5 -57t22.5 -78q0 -51 -28.5 -88t-81 -61.5t-124 -36 t-157.5 -11.5q-121 0 -224.5 34t-179 101.5t-119 170t-43.5 239.5zM240 1225q0 41 22.5 70.5t67.5 74.5l69 70q39 39 83 62.5t104 23.5q53 0 98 -20.5t104 -92.5l146 -178q0 -57 -34 -97t-103 -40q-41 0 -72 21.5t-63 62.5l-82 100q-27 -31 -48.5 -53.5t-40 -44l-37 -43 t-40.5 -47.5q-80 0 -127 35.5t-47 95.5zM387 592l348 57q-2 20 -12 42t-28.5 40.5t-47 29.5t-67.5 11q-78 0 -130.5 -47t-62.5 -133z" />
<glyph unicode="&#xeb;" horiz-adv-x="1124" d="M63 512q0 135 44.5 232.5t117 160t164.5 92t189 29.5q109 0 197.5 -32.5t153 -90t99.5 -137.5t35 -174q0 -70 -39 -106.5t-109 -47.5l-509 -78q29 -74 96 -103.5t151 -29.5q86 0 164 21.5t125 50.5q33 -20 55.5 -57t22.5 -78q0 -51 -28.5 -88t-81 -61.5t-124 -36 t-157.5 -11.5q-121 0 -224.5 34t-179 101.5t-119 170t-43.5 239.5zM164 1290q0 72 47 121t125 49t126 -49t48 -121t-48 -120t-126 -48t-125 48.5t-47 119.5zM387 592l348 57q-2 20 -12 42t-28.5 40.5t-47 29.5t-67.5 11q-78 0 -130.5 -47t-62.5 -133zM604 1290q0 72 48 121 t126 49t125 -49t47 -121t-47 -120t-125 -48t-126 48.5t-48 119.5z" />
<glyph unicode="&#xec;" horiz-adv-x="577" d="M-49 1370q0 76 43 118t106 42q41 0 79 -16.5t73 -59.5l182 -227q-10 -72 -53 -107t-92 -35q-43 0 -73 12.5t-60 41.5l-201 184q-2 8 -3 23.5t-1 23.5zM115 147v834q23 6 64.5 12t90.5 6q102 0 147.5 -33.5t45.5 -129.5v-834q-23 -6 -65 -12t-91 -6q-102 0 -147 33.5 t-45 129.5z" />
<glyph unicode="&#xed;" horiz-adv-x="577" d="M115 147v834q23 6 64.5 12t90.5 6q102 0 147.5 -33.5t45.5 -129.5v-834q-23 -6 -65 -12t-91 -6q-102 0 -147 33.5t-45 129.5zM143 1217q0 25 9.5 47t37.5 53l207 223q106 0 159.5 -45t53.5 -102q0 -47 -20.5 -79t-69.5 -73l-194 -160q-92 0 -137.5 43t-45.5 93z" />
<glyph unicode="&#xee;" horiz-adv-x="577" d="M-53 1225q0 41 22.5 70.5t67.5 74.5l69 70q39 39 83 62.5t104 23.5q53 0 98 -20.5t105 -92.5l145 -178q0 -57 -34 -97t-103 -40q-41 0 -72 21.5t-63 62.5l-82 100q-27 -31 -48.5 -53.5t-40 -44l-37 -43t-40.5 -47.5q-80 0 -127 35.5t-47 95.5zM115 147v834q23 6 64.5 12 t90.5 6q102 0 147.5 -33.5t45.5 -129.5v-834q-23 -6 -65 -12t-91 -6q-102 0 -147 33.5t-45 129.5z" />
<glyph unicode="&#xef;" horiz-adv-x="577" d="M-106 1290q0 72 47 121t125 49t126 -49t48 -121t-48.5 -120t-125.5 -48q-78 0 -125 48.5t-47 119.5zM115 147v834q23 6 64.5 12t90.5 6q102 0 147.5 -33.5t45.5 -129.5v-834q-23 -6 -65 -12t-91 -6q-102 0 -147 33.5t-45 129.5zM334 1290q0 72 48 121t126 49t125 -49 t47 -121t-47 -120t-125 -48t-126 48.5t-48 119.5z" />
<glyph unicode="&#xf0;" horiz-adv-x="1198" d="M63 463q0 119 41 207t109 147.5t154 89t176 29.5q45 0 85 -7t74 -20q-25 43 -52 81t-68 73l-312 -117q-29 23 -52 60.5t-23 78.5q0 66 67 95l90 39q-35 14 -70.5 26t-76.5 27q6 96 54 140t116 44q76 0 153.5 -26.5t153.5 -75.5l233 94q29 -20 53.5 -59t24.5 -80 q0 -47 -20.5 -69.5t-52.5 -37.5l-43 -18q113 -129 184.5 -296t71.5 -356q0 -123 -31 -226t-95.5 -178t-166 -118t-240.5 -43q-125 0 -224.5 35t-169 99.5t-106.5 155.5t-37 206zM420 463q0 -104 45 -162.5t137 -58.5q88 0 130 60.5t42 164.5q0 41 -5 79t-13 72 q-61 57 -146 58q-92 0 -141 -59.5t-49 -153.5z" />
<glyph unicode="&#xf1;" horiz-adv-x="1193" d="M106 147v617q0 55 24 90t65 64q70 49 175 78.5t234 29.5q231 0 356 -101.5t125 -283.5v-639q-23 -6 -64.5 -12t-90.5 -6q-102 0 -147.5 33.5t-45.5 129.5v484q0 63 -37.5 93t-99.5 30q-41 0 -77 -10.5t-68 -26.5v-715q-23 -6 -65 -12t-91 -6q-102 0 -147.5 33.5 t-45.5 129.5zM219 1286q0 45 17.5 79t46 56.5t64.5 32.5t73 10q43 0 84 -9t79 -20.5t69.5 -20.5t56.5 -9q45 0 69.5 26.5t34.5 45.5h8q66 0 113 -46.5t47 -117.5q0 -92 -57.5 -135t-143.5 -43q-49 0 -91 9t-76.5 20.5t-65.5 20.5t-55 9q-45 0 -69 -25.5t-36 -46.5h-8 q-63 0 -111.5 45t-48.5 119z" />
<glyph unicode="&#xf2;" d="M63 498q0 121 39 219t110 166.5t169 105.5t219 37t219.5 -38t169 -106.5t109.5 -166.5t39 -217q0 -123 -38 -221.5t-108.5 -167t-169 -105.5t-221.5 -37t-221 36t-169 104.5t-109 167t-38 223.5zM324 1370q0 76 43 118t106 42q41 0 79 -16.5t73 -59.5l182 -227 q-10 -72 -53 -107t-92 -35q-43 0 -73 12.5t-61 41.5l-200 184q-2 8 -3 23.5t-1 23.5zM420 498q0 -129 47 -193.5t133 -64.5t133 65.5t47 192.5q0 123 -47 189.5t-133 66.5t-133 -66.5t-47 -189.5z" />
<glyph unicode="&#xf3;" d="M63 498q0 121 39 219t110 166.5t169 105.5t219 37t219.5 -38t169 -106.5t109.5 -166.5t39 -217q0 -123 -38 -221.5t-108.5 -167t-169 -105.5t-221.5 -37t-221 36t-169 104.5t-109 167t-38 223.5zM393 1217q0 25 9.5 47t37.5 53l207 223q106 0 159.5 -45t53.5 -102 q0 -47 -20.5 -79t-69.5 -73l-195 -160q-92 0 -137 43t-45 93zM420 498q0 -129 47 -193.5t133 -64.5t133 65.5t47 192.5q0 123 -47 189.5t-133 66.5t-133 -66.5t-47 -189.5z" />
<glyph unicode="&#xf4;" d="M63 498q0 121 39 219t110 166.5t169 105.5t219 37t219.5 -38t169 -106.5t109.5 -166.5t39 -217q0 -123 -38 -221.5t-108.5 -167t-169 -105.5t-221.5 -37t-221 36t-169 104.5t-109 167t-38 223.5zM254 1225q0 41 22.5 70.5t67.5 74.5l70 70q39 39 83 62.5t103 23.5 q53 0 98 -20.5t105 -92.5l145 -178q0 -57 -33.5 -97t-103.5 -40q-41 0 -71.5 21.5t-63.5 62.5l-82 100q-27 -31 -48.5 -53.5t-40 -44t-36.5 -43t-41 -47.5q-80 0 -127 35.5t-47 95.5zM420 498q0 -129 47 -193.5t133 -64.5t133 65.5t47 192.5q0 123 -47 189.5t-133 66.5 t-133 -66.5t-47 -189.5z" />
<glyph unicode="&#xf5;" d="M63 498q0 121 39 219t110 166.5t169 105.5t219 37t219.5 -38t169 -106.5t109.5 -166.5t39 -217q0 -123 -38 -221.5t-108.5 -167t-169 -105.5t-221.5 -37t-221 36t-169 104.5t-109 167t-38 223.5zM223 1286q0 45 17.5 79t46 56.5t64.5 32.5t73 10q43 0 84 -9t79 -20.5 t69.5 -20.5t56.5 -9q45 0 69.5 26.5t34.5 45.5h8q66 0 113 -46.5t47 -117.5q0 -92 -57.5 -135t-143.5 -43q-49 0 -91 9t-76.5 20.5t-65.5 20.5t-55 9q-45 0 -69 -25.5t-36 -46.5h-8q-63 0 -111.5 45t-48.5 119zM420 498q0 -129 47 -193.5t133 -64.5t133 65.5t47 192.5 q0 123 -47 189.5t-133 66.5t-133 -66.5t-47 -189.5z" />
<glyph unicode="&#xf6;" d="M63 498q0 121 39 219t110 166.5t169 105.5t219 37t219.5 -38t169 -106.5t109.5 -166.5t39 -217q0 -123 -38 -221.5t-108.5 -167t-169 -105.5t-221.5 -37t-221 36t-169 104.5t-109 167t-38 223.5zM205 1290q0 72 47 121t125 49t126 -49t48 -121t-48 -120t-126 -48 t-125 48.5t-47 119.5zM420 498q0 -129 47 -193.5t133 -64.5t133 65.5t47 192.5q0 123 -47 189.5t-133 66.5t-133 -66.5t-47 -189.5zM645 1290q0 72 48 121t126 49t125 -49t47 -121t-47 -120t-125 -48t-126 48.5t-48 119.5z" />
<glyph unicode="&#xf7;" horiz-adv-x="1075" d="M61 586q0 76 35 109.5t90 33.5h793q12 -23 23.5 -59.5t11.5 -77.5q0 -76 -35 -106.5t-90 -30.5h-793q-14 23 -24.5 56.5t-10.5 74.5zM381 246q0 70 44 117t118 47t116.5 -47.5t42.5 -116.5q0 -70 -43 -116t-116 -46q-74 0 -118 46t-44 116zM381 938q0 70 44 117t118 47 t116.5 -47t42.5 -117t-43 -116t-116 -46q-74 0 -118 46t-44 116z" />
<glyph unicode="&#xf8;" d="M63 498q0 121 39 219t110 166.5t169 105.5t219 37t225 -41l90 135q18 0 42 -7t44.5 -20.5t35 -32t14.5 -38.5t-15 -43l-59 -86q76 -70 118 -170t42 -225q0 -123 -38 -221.5t-108.5 -167t-169 -105.5t-221.5 -37q-125 0 -223 37l-88 -129q-20 0 -44 8t-44.5 22.5t-33.5 32 t-13 35.5q0 23 16 45l53 76q-78 70 -119 171.5t-41 232.5zM395 498q0 -72 19 -123l252 370q-31 13 -66 13q-86 0 -145.5 -64.5t-59.5 -195.5zM535 246q35 -10 65 -10q86 0 145.5 63.5t59.5 198.5q0 66 -21 123z" />
<glyph unicode="&#xf9;" horiz-adv-x="1191" d="M106 395v596q23 6 65 12.5t91 6.5q102 0 147.5 -34t45.5 -130v-451q0 -84 41 -119.5t118 -35.5q47 0 77 8t46 16v727q23 6 65 12.5t91 6.5q102 0 147 -34t45 -130v-633q0 -102 -86 -154q-72 -45 -171 -68.5t-216 -23.5q-111 0 -204 24.5t-160.5 76t-104.5 132.5t-37 195z M236 1370q0 76 43 118t106 42q41 0 79 -16.5t73 -59.5l182 -227q-10 -72 -53 -107t-93 -35q-43 0 -72.5 12.5t-60.5 41.5l-200 184q-2 8 -3 23.5t-1 23.5z" />
<glyph unicode="&#xfa;" horiz-adv-x="1191" d="M106 395v596q23 6 65 12.5t91 6.5q102 0 147.5 -34t45.5 -130v-451q0 -84 41 -119.5t118 -35.5q47 0 77 8t46 16v727q23 6 65 12.5t91 6.5q102 0 147 -34t45 -130v-633q0 -102 -86 -154q-72 -45 -171 -68.5t-216 -23.5q-111 0 -204 24.5t-160.5 76t-104.5 132.5t-37 195z M473 1217q0 25 9.5 47t37.5 53l207 223q106 0 159.5 -45t53.5 -102q0 -47 -20.5 -79t-69.5 -73l-195 -160q-92 0 -137 43t-45 93z" />
<glyph unicode="&#xfb;" horiz-adv-x="1191" d="M106 395v596q23 6 65 12.5t91 6.5q102 0 147.5 -34t45.5 -130v-451q0 -84 41 -119.5t118 -35.5q47 0 77 8t46 16v727q23 6 65 12.5t91 6.5q102 0 147 -34t45 -130v-633q0 -102 -86 -154q-72 -45 -171 -68.5t-216 -23.5q-111 0 -204 24.5t-160.5 76t-104.5 132.5t-37 195z M250 1225q0 41 22.5 70.5t67.5 74.5l70 70q39 39 83 62.5t103 23.5q53 0 98 -20.5t105 -92.5l145 -178q0 -57 -33.5 -97t-103.5 -40q-41 0 -71.5 21.5t-63.5 62.5l-82 100q-27 -31 -48.5 -53.5t-40 -44l-37 -43t-40.5 -47.5q-80 0 -127 35.5t-47 95.5z" />
<glyph unicode="&#xfc;" horiz-adv-x="1191" d="M106 395v596q23 6 65 12.5t91 6.5q102 0 147.5 -34t45.5 -130v-451q0 -84 41 -119.5t118 -35.5q47 0 77 8t46 16v727q23 6 65 12.5t91 6.5q102 0 147 -34t45 -130v-633q0 -102 -86 -154q-72 -45 -171 -68.5t-216 -23.5q-111 0 -204 24.5t-160.5 76t-104.5 132.5t-37 195z M197 1290q0 72 47 121t125 49t126 -49t48 -121t-48.5 -120t-125.5 -48q-78 0 -125 48.5t-47 119.5zM637 1290q0 72 48 121t126 49t125 -49t47 -121t-47 -120t-125 -48t-126 48.5t-48 119.5z" />
<glyph unicode="&#xfd;" horiz-adv-x="1128" d="M41 944q29 29 77 50.5t105 21.5q72 0 119 -30t70 -112q41 -143 80.5 -283t80.5 -280h9q25 70 48 152t45.5 169t42 174t34.5 171q35 18 71.5 28.5t77.5 10.5q72 0 125 -31t53 -106q0 -82 -25.5 -196t-66.5 -235.5t-92 -238.5t-102 -205q-117 -201 -214.5 -296t-197.5 -95 q-82 0 -137.5 51t-65.5 133q66 55 131.5 125t114.5 141q-35 10 -75 48.5t-87 142.5q-23 51 -48.5 114.5t-53 145.5t-57 187.5t-62.5 242.5zM373 1217q0 25 9 47t38 53l207 223q106 0 159.5 -45t53.5 -102q0 -47 -20.5 -79t-69.5 -73l-195 -160q-92 0 -137 43t-45 93z" />
<glyph unicode="&#xfe;" horiz-adv-x="1202" d="M111 -197v1532q23 6 64.5 12.5t90.5 6.5q102 0 147.5 -34t45.5 -130v-193q37 10 82 19.5t98 9.5q102 0 193.5 -30.5t159 -94t107.5 -162t40 -235.5q0 -131 -39 -230.5t-108.5 -167t-162.5 -102.5t-204 -35q-49 0 -90 7.5t-76 19.5v-338q-23 -6 -65 -12t-91 -6 q-102 0 -147 33.5t-45 129.5zM459 270q53 -26 112 -26q102 0 156.5 65.5t54.5 194.5q0 131 -53 190.5t-145 59.5q-27 0 -58.5 -6.5t-66.5 -22.5v-455z" />
<glyph unicode="&#xff;" horiz-adv-x="1128" d="M41 944q29 29 77 50.5t105 21.5q72 0 119 -30t70 -112q41 -143 80.5 -283t80.5 -280h9q25 70 48 152t45.5 169t42 174t34.5 171q35 18 71.5 28.5t77.5 10.5q72 0 125 -31t53 -106q0 -82 -25.5 -196t-66.5 -235.5t-92 -238.5t-102 -205q-117 -201 -214.5 -296t-197.5 -95 q-82 0 -137.5 51t-65.5 133q66 55 131.5 125t114.5 141q-35 10 -75 48.5t-87 142.5q-23 51 -48.5 114.5t-53 145.5t-57 187.5t-62.5 242.5zM162 1290q0 72 47 121t125 49t126 -49t48 -121t-48 -120t-126 -48t-125 48.5t-47 119.5zM602 1290q0 72 48 121t126 49t125 -49 t47 -121t-47 -120t-125 -48t-126 48.5t-48 119.5z" />
<glyph unicode="&#x152;" horiz-adv-x="1947" d="M72 623q0 160 50 282.5t137 205.5t205 126t255 43q94 0 170 -24.5t135 -71.5q51 57 145 57h656q14 -23 25.5 -57.5t11.5 -77.5q0 -76 -33 -110.5t-90 -34.5h-432v-191h460q14 -23 25.5 -57.5t11.5 -77.5q0 -76 -32.5 -109.5t-90.5 -33.5h-374v-216h526q14 -23 25.5 -59.5 t11.5 -79.5q0 -76 -33 -109.5t-90 -33.5h-578q-98 0 -147 59q-59 -41 -134 -65.5t-169 -24.5q-139 0 -258 43t-205 127t-135 207t-49 283zM440 623q0 -186 76 -278.5t205 -92.5q162 0 237 119v501q-78 119 -239 119q-125 0 -202 -91t-77 -277z" />
<glyph unicode="&#x153;" horiz-adv-x="1832" d="M63 498q0 121 37 219t104.5 166.5t165 105.5t218.5 37q113 0 199.5 -39t148.5 -104q66 74 156 108.5t194 34.5q109 0 198 -32.5t153.5 -90t99.5 -137.5t35 -174q0 -70 -39 -106.5t-109 -47.5l-508 -78q29 -74 95.5 -103.5t150.5 -29.5q86 0 164 21.5t125 50.5 q33 -20 55.5 -57t22.5 -78q0 -51 -29 -88t-81 -61.5t-124 -36t-158 -11.5q-254 0 -389 148q-61 -70 -151 -109t-209 -39q-123 0 -220.5 36t-165 104.5t-103.5 167t-36 223.5zM420 498q0 -129 47 -193.5t133 -64.5t133 65.5t47 192.5q0 123 -47 189.5t-133 66.5t-133 -66.5 t-47 -189.5zM1096 592l348 57q-2 20 -12.5 42t-29 40.5t-47 29.5t-67.5 11q-78 0 -130 -47t-62 -133z" />
<glyph unicode="&#x178;" horiz-adv-x="1175" d="M10 1149q27 37 73 67.5t114 30.5q80 0 130 -32.5t95 -122.5l180 -363h12q29 63 52.5 118.5t46 112t46 116t52.5 132.5q37 18 82 28.5t86 10.5q72 0 122 -37.5t50 -113.5q0 -25 -13.5 -65t-53.5 -116.5t-111.5 -199.5t-188.5 -312v-401q-23 -6 -68.5 -12t-92.5 -6 q-106 0 -147.5 36.5t-41.5 129.5v260q-53 76 -114.5 173t-121 198.5t-109.5 197.5t-79 170zM201 1532q0 72 47 121t125 49t126 -49t48 -121t-48 -120t-126 -48t-125 48t-47 120zM641 1532q0 72 48 121t126 49t125 -49t47 -121t-47 -120t-125 -48t-126 48t-48 120z" />
<glyph unicode="&#x2c6;" horiz-adv-x="712" d="M10 1225q0 41 22.5 70.5t67.5 74.5l70 70q39 39 83 62.5t103 23.5q53 0 98.5 -20.5t104.5 -92.5l146 -178q0 -57 -34 -97t-104 -40q-41 0 -71.5 21.5t-63.5 62.5l-82 100q-27 -31 -48 -53.5t-39.5 -44l-37 -43t-41.5 -47.5q-80 0 -127 35.5t-47 95.5z" />
<glyph unicode="&#x2dc;" horiz-adv-x="765" d="M2 1286q0 45 17.5 79t46 56.5t64.5 32.5t73 10q43 0 84 -9t78.5 -20.5t69.5 -20.5t57 -9q45 0 69.5 26.5t34.5 45.5h8q66 0 113 -46.5t47 -117.5q0 -92 -57.5 -135t-143.5 -43q-49 0 -91 9t-77 20.5t-65.5 20.5t-55.5 9q-45 0 -68.5 -25.5t-35.5 -46.5h-6q-66 0 -114 45 t-48 119z" />
<glyph unicode="&#x2000;" horiz-adv-x="883" />
<glyph unicode="&#x2001;" horiz-adv-x="1767" />
<glyph unicode="&#x2002;" horiz-adv-x="883" />
<glyph unicode="&#x2003;" horiz-adv-x="1767" />
<glyph unicode="&#x2004;" horiz-adv-x="589" />
<glyph unicode="&#x2005;" horiz-adv-x="441" />
<glyph unicode="&#x2006;" horiz-adv-x="294" />
<glyph unicode="&#x2007;" horiz-adv-x="294" />
<glyph unicode="&#x2008;" horiz-adv-x="220" />
<glyph unicode="&#x2009;" horiz-adv-x="353" />
<glyph unicode="&#x200a;" horiz-adv-x="98" />
<glyph unicode="&#x2010;" horiz-adv-x="724" d="M61 518q0 76 35 110t90 34h439q12 -23 25.5 -60t13.5 -78q0 -76 -35 -109.5t-90 -33.5h-439q-14 23 -26.5 59.5t-12.5 77.5z" />
<glyph unicode="&#x2011;" horiz-adv-x="724" d="M61 518q0 76 35 110t90 34h439q12 -23 25.5 -60t13.5 -78q0 -76 -35 -109.5t-90 -33.5h-439q-14 23 -26.5 59.5t-12.5 77.5z" />
<glyph unicode="&#x2012;" horiz-adv-x="724" d="M61 518q0 76 35 110t90 34h439q12 -23 25.5 -60t13.5 -78q0 -76 -35 -109.5t-90 -33.5h-439q-14 23 -26.5 59.5t-12.5 77.5z" />
<glyph unicode="&#x2013;" horiz-adv-x="1107" d="M41 518q0 76 35 110t90 34h862q12 -23 25.5 -60t13.5 -78q0 -76 -35 -109.5t-90 -33.5h-862q-14 23 -26.5 59.5t-12.5 77.5z" />
<glyph unicode="&#x2014;" horiz-adv-x="1589" d="M61 518q0 76 35 110t90 34h1303q12 -23 25.5 -60t13.5 -78q0 -76 -35 -109.5t-90 -33.5h-1303q-14 23 -26.5 59.5t-12.5 77.5z" />
<glyph unicode="&#x2018;" horiz-adv-x="458" d="M41 862q0 39 8 91.5t23.5 104.5t33.5 99t41 78q23 35 53.5 51.5t78.5 16.5q39 0 71.5 -8.5t63.5 -22.5q-10 -123 -20.5 -256t-14.5 -240q-29 -16 -75 -30.5t-89 -14.5q-33 0 -64.5 6t-56 21.5t-39 41t-14.5 62.5z" />
<glyph unicode="&#x2019;" horiz-adv-x="454" d="M45 762q10 123 20.5 256t14.5 239q29 16 75 31t89 15q33 0 64.5 -6.5t56 -21.5t39 -41t14.5 -63q0 -41 -8.5 -92t-23.5 -103t-35 -99t-40 -78q-23 -35 -53.5 -51.5t-77.5 -16.5q-39 0 -71.5 8.5t-63.5 22.5z" />
<glyph unicode="&#x201a;" horiz-adv-x="466" d="M45 -227q10 123 20.5 256t14.5 239q29 16 75 30.5t89 14.5q33 0 64.5 -6t56 -21.5t39 -41t14.5 -62.5q0 -41 -8.5 -92t-23.5 -103.5t-35 -99t-40 -77.5q-23 -35 -53.5 -51.5t-77.5 -16.5q-39 0 -71.5 8t-63.5 23z" />
<glyph unicode="&#x201c;" horiz-adv-x="856" d="M39 862q0 39 8 91.5t23.5 104.5t33.5 99t41 78q23 35 49.5 51.5t73.5 16.5q39 0 66.5 -6.5t58.5 -20.5q-4 -61 -10 -128t-11 -132.5t-9.5 -128t-6.5 -115.5q-29 -16 -69.5 -28.5t-83.5 -12.5q-70 0 -117 27.5t-47 103.5zM457 862q0 39 8 91.5t23.5 104.5t33.5 99t41 78 q23 35 49.5 51.5t73.5 16.5q39 0 66.5 -6.5t58.5 -20.5q-4 -61 -10 -128t-11.5 -132.5t-9.5 -128t-6 -115.5q-29 -16 -69.5 -28.5t-83.5 -12.5q-70 0 -117 27.5t-47 103.5z" />
<glyph unicode="&#x201d;" horiz-adv-x="856" d="M45 758q4 61 9 127.5t10.5 132t9.5 128t6 116.5q29 16 69.5 28.5t83.5 12.5q70 0 117 -28t47 -104q0 -41 -8 -92t-22.5 -103t-34 -99t-39.5 -78q-23 -35 -49.5 -51.5t-73.5 -16.5q-39 0 -66.5 6t-58.5 21zM463 758q4 61 9 127.5t10 132t9.5 128t6.5 116.5 q29 16 69.5 28.5t83.5 12.5q70 0 117 -28t47 -104q0 -41 -8 -92t-22.5 -103t-34 -99t-39.5 -78q-23 -35 -49.5 -51.5t-73.5 -16.5q-39 0 -66.5 6t-58.5 21z" />
<glyph unicode="&#x201e;" horiz-adv-x="864" d="M45 -231q4 61 9 127.5t10.5 132t9.5 128t6 115.5q29 16 69.5 28.5t83.5 12.5q70 0 117 -27.5t47 -103.5q0 -41 -8 -92t-22.5 -103.5t-34 -99t-39.5 -77.5q-23 -35 -49.5 -51.5t-73.5 -16.5q-39 0 -66.5 6t-58.5 21zM463 -231q4 61 9 127.5t10 132t9.5 128t6.5 115.5 q29 16 69.5 28.5t83.5 12.5q70 0 117 -27.5t47 -103.5q0 -41 -8 -92t-22.5 -103.5t-34 -99t-39.5 -77.5q-23 -35 -49.5 -51.5t-73.5 -16.5q-39 0 -66.5 6t-58.5 21z" />
<glyph unicode="&#x2022;" horiz-adv-x="641" d="M72 578q0 106 66.5 178.5t180.5 72.5q117 0 183.5 -72.5t66.5 -178.5t-66.5 -178t-183.5 -72q-115 0 -181 72t-66 178z" />
<glyph unicode="&#x2026;" horiz-adv-x="1454" d="M45 166q0 86 53.5 143.5t145.5 57.5t145 -57.5t53 -143.5t-53 -143.5t-145 -57.5t-145.5 57.5t-53.5 143.5zM528 166q0 86 53.5 143.5t145.5 57.5t145.5 -57.5t53.5 -143.5t-53.5 -143.5t-145.5 -57.5t-145.5 57.5t-53.5 143.5zM1012 166q0 86 53 143.5t145 57.5 t145.5 -57.5t53.5 -143.5t-53 -143.5t-146 -57.5q-92 0 -145 57.5t-53 143.5z" />
<glyph unicode="&#x202f;" horiz-adv-x="353" />
<glyph unicode="&#x2039;" horiz-adv-x="665" d="M59 444q0 66 16.5 106t41.5 62l301 291q78 -23 117.5 -64.5t39.5 -90.5q0 -23 -3 -42.5t-13 -39t-28.5 -41t-49.5 -47.5l-135 -125l254 -260q0 -59 -39 -106.5t-121 -47.5q-45 0 -80.5 23.5t-70.5 60.5l-199 201q-12 20 -21.5 54t-9.5 66z" />
<glyph unicode="&#x203a;" horiz-adv-x="665" d="M66 750q0 59 38.5 106t120.5 47q45 0 81 -23.5t71 -60.5l198 -201q12 -20 21.5 -54t9.5 -66q0 -66 -16.5 -106t-40.5 -62l-301 -291q-78 23 -118 64.5t-40 91.5q0 45 17.5 79.5t76.5 90.5l135 124z" />
<glyph unicode="&#x205f;" horiz-adv-x="441" />
<glyph unicode="&#x20ac;" horiz-adv-x="1214" d="M20 469q0 57 25 80.5t64 23.5h882q10 -18 18.5 -43.5t8.5 -56.5q0 -55 -24.5 -78.5t-65.5 -23.5h-379q88 -125 280 -125q84 0 139.5 19.5t108.5 47.5q35 -29 57.5 -62.5t22.5 -86.5q0 -47 -24.5 -87t-83.5 -67q-37 -16 -99.5 -31.5t-158.5 -15.5q-113 0 -212.5 25.5 t-180.5 77t-139 127t-89 178.5h-123q-10 16 -18.5 42.5t-8.5 55.5zM20 768q0 57 25 80.5t64 23.5h67q66 199 219.5 303.5t362.5 104.5q188 0 291.5 -59.5t103.5 -151.5q0 -53 -25.5 -90t-60.5 -59q-53 35 -114.5 56t-141.5 21q-88 0 -153.5 -32.5t-106.5 -92.5h440 q10 -18 18.5 -43.5t8.5 -56.5q0 -55 -24.5 -78.5t-65.5 -23.5h-881q-10 16 -18.5 42.5t-8.5 55.5z" />
<glyph unicode="&#x2122;" horiz-adv-x="1568" d="M41 1157q0 47 22.5 69.5t57.5 22.5h512q8 -14 17 -38.5t9 -49.5q0 -49 -23.5 -67.5t-57.5 -18.5h-121v-514q-12 -4 -43 -7t-60 -3q-55 0 -83.5 18.5t-28.5 81.5v424h-174q-8 14 -17.5 37t-9.5 45zM694 631l33 573q10 16 43 36t94 20q59 0 95 -19.5t53 -66.5l84 -246 l98 309q16 10 46 16.5t65 6.5q59 0 97 -19.5t44 -54.5q4 -33 13 -117t17.5 -181t15.5 -185.5t9 -129.5q-23 -14 -43 -19t-55 -5q-47 0 -77 17.5t-34 64.5q-6 66 -9 150.5t-11 213.5l-76 -272q-33 -27 -98 -27q-41 0 -71 11.5t-38 37.5l-74 250l-14 -434q-16 -4 -39.5 -8 t-52.5 -4q-53 0 -84 17.5t-31 64.5z" />
<glyph unicode="&#x25fc;" horiz-adv-x="1013" d="M0 0v1014h1014v-1014h-1014z" />
</font>
</defs>
</svg>
