<?xml version="1.0" standalone="no"?>
<!DOCTYPE svg PUBLIC "-//W3C//DTD SVG 1.1//EN" "http://www.w3.org/Graphics/SVG/1.1/DTD/svg11.dtd" >
<svg xmlns="http://www.w3.org/2000/svg" xmlns:xlink="http://www.w3.org/1999/xlink" version="1.1">
<metadata></metadata>
<defs>
<font id="nunitosemibold_italic" horiz-adv-x="1228" >
<font-face units-per-em="2048" ascent="1638" descent="-410" />
<missing-glyph horiz-adv-x="540" />
<glyph unicode="&#xfb01;" horiz-adv-x="1191" d="M74 903q0 45 25.5 70.5t70.5 25.5h115l10 64q27 170 135.5 269.5t302.5 113.5l60 4q43 2 63.5 -20.5t20.5 -53t-17.5 -55.5t-50.5 -29l-59 -4q-215 -14 -248 -225l-10 -64h530q49 0 72.5 -27.5t13.5 -78.5l-127 -805q-14 -102 -119 -102q-49 0 -71.5 31.5t-14.5 88.5 l117 734h-426l-121 -752q-17 -102 -119 -102q-47 0 -69.5 31.5t-14.5 88.5l117 734h-104q-82 0 -82 63zM958 1331q12 125 144 125q55 0 85 -28.5t23 -79.5q-12 -125 -145 -125q-55 0 -83 27.5t-24 80.5z" />
<glyph unicode="&#xfb02;" horiz-adv-x="1339" d="M74 903q0 45 25.5 70.5t70.5 25.5h115l10 64q27 170 134.5 269.5t303.5 113.5l64 4q43 2 63.5 -20.5t20.5 -53t-17.5 -55.5t-50.5 -29l-59 -4q-115 -6 -175.5 -62.5t-76.5 -162.5l-10 -64h190q82 0 82 -63q0 -45 -26.5 -70.5t-71.5 -25.5h-199l-119 -752 q-17 -102 -121 -102q-47 0 -69.5 31.5t-14.5 88.5l117 734h-104q-82 0 -82 63zM830 340l164 1016q14 102 118 102q47 0 70 -31.5t14 -89.5l-159 -995q-14 -100 17.5 -145t107.5 -45q25 0 40 4t27 4q16 0 26.5 -12.5t10.5 -47.5q0 -49 -21.5 -74.5t-52.5 -33.5q-16 -6 -43 -8 t-47 -2q-158 0 -228.5 91t-43.5 267z" />
<glyph horiz-adv-x="0" />
<glyph horiz-adv-x="682" />
<glyph horiz-adv-x="0" />
<glyph horiz-adv-x="0" />
<glyph unicode="&#xd;" horiz-adv-x="540" />
<glyph unicode=" "  horiz-adv-x="540" />
<glyph unicode="&#x09;" horiz-adv-x="540" />
<glyph unicode="&#xa0;" horiz-adv-x="540" />
<glyph unicode="!" horiz-adv-x="485" d="M55 123q0 57 36 93t95 36t94 -36t35 -93t-35 -94t-94 -37t-95 37t-36 94zM170 471l86 866q12 121 131 121q61 0 90 -39t15 -106l-187 -852q-15 -64 -74 -64q-68 0 -61 74z" />
<glyph unicode="&#x22;" horiz-adv-x="854" d="M229 934l31 422q2 43 33 72.5t82 29.5q55 0 87 -33.5t17 -93.5l-98 -409q-10 -39 -32.5 -55.5t-47.5 -16.5q-35 0 -54.5 18.5t-17.5 65.5zM610 934l31 422q2 43 33 72.5t82 29.5q55 0 87 -33.5t17 -93.5l-98 -409q-10 -39 -32.5 -55.5t-47.5 -16.5q-35 0 -54.5 18.5 t-17.5 65.5z" />
<glyph unicode="#" d="M61 426q0 78 86 78h127l160 452h-158q-18 0 -47.5 9.5t-29.5 54.5q0 35 21.5 56.5t64.5 21.5h198l101 288q27 72 94 72q39 0 51 -26.5t-4 -73.5l-92 -260h297l100 288q27 72 94 72q41 0 53.5 -26.5t-3.5 -73.5l-93 -260h80q20 0 50 -9.5t30 -52.5q0 -37 -22.5 -58.5 t-63.5 -21.5h-125l-160 -452h156q20 0 50 -9.5t30 -54.5q0 -35 -22.5 -56.5t-65.5 -21.5h-197l-110 -305q-25 -72 -93 -71q-39 0 -51 27.5t4 74.5l99 274h-295l-109 -305q-26 -71 -92 -71q-41 0 -53 27.5t4 74.5l98 274h-82q-20 0 -50 10.5t-30 53.5zM424 504h295l162 452 h-297z" />
<glyph unicode="$" d="M48 179.5q-7 37.5 9.5 70.5t51 45t77.5 -16q82 -53 182.5 -81t223.5 -28q139 0 231 57.5t92 163.5q0 84 -52 133t-187 86l-191 49q-143 37 -229 125t-86 242q0 135 71.5 229.5t191.5 145.5t267 53l27 162q10 72 90 72q35 0 58.5 -23t15.5 -70l-23 -153q80 -16 159 -51 t142 -88q29 -20 32 -54.5t-12 -64t-48 -38.5t-80 21q-147 106 -342 107q-156 0 -247 -60.5t-91 -169.5q0 -92 46 -138t142 -72l191 -50q188 -49 277 -140t89 -230q0 -129 -66.5 -220.5t-177 -141.5t-243.5 -60l-29 -172q-10 -70 -86 -70q-43 0 -64.5 24.5t-13.5 71.5l23 146 q-106 10 -203.5 43t-171.5 82q-39 25 -46 62.5z" />
<glyph unicode="%" horiz-adv-x="1918" d="M176 911q0 152 48 276t140.5 197.5t227.5 73.5q147 0 230 -90t83 -246q0 -152 -48 -275.5t-140 -197.5t-225 -74q-150 0 -233 90.5t-83 245.5zM348 915q-2 -106 38 -153t106 -47q78 0 131 56t80.5 148.5t29.5 198.5q4 106 -36 153.5t-105 47.5q-80 0 -133 -56.5 t-80 -148.5t-31 -199zM418 19.5q-6 31.5 20 68.5l981 1348q25 35 57.5 41t59.5 -11.5t33 -48.5t-21 -67l-981 -1350q-27 -37 -59.5 -42t-58 12.5t-31.5 49zM1083 315q0 152 47.5 276t139.5 198.5t225 74.5q150 0 232.5 -91t82.5 -245t-47 -277.5t-139 -196t-227 -72.5 q-150 0 -232 90t-82 243zM1253 322q-2 -106 37 -153.5t107 -47.5q80 0 133 56t79.5 147.5t30.5 199.5q2 106 -37.5 153.5t-105.5 47.5q-80 0 -133 -56.5t-81 -148.5t-30 -198z" />
<glyph unicode="&#x26;" horiz-adv-x="1449" d="M96 309q0 111 52.5 201t137.5 159.5t181 123.5l27 14q-59 76 -85 146.5t-26 133.5q0 111 52 196t145.5 132t216.5 47q139 0 224 -75.5t85 -196.5q0 -94 -46 -169t-124 -135.5t-174 -113.5l258 -340q51 76 85 160t64 201q23 78 97 77q45 0 67.5 -24.5t9.5 -69.5 q-39 -154 -89 -261t-126 -210l146 -182q41 -51 16.5 -95t-88.5 -44q-23 0 -46 6t-40 28l-115 152q-94 -90 -214 -139t-259 -49q-199 0 -315.5 89t-116.5 238zM303 338q0 -92 63.5 -141.5t188.5 -49.5q104 0 188 36t156 106l-307 395l-17 -10q-76 -41 -137 -89t-98 -108.5 t-37 -138.5zM575 1106q0 -53 19.5 -98t71.5 -115q139 74 201.5 139.5t62.5 149.5q0 61 -39 95t-105 34q-96 0 -153.5 -57.5t-57.5 -147.5z" />
<glyph unicode="'" horiz-adv-x="473" d="M229 934l31 422q2 43 33 72.5t82 29.5q55 0 87 -33.5t17 -93.5l-98 -409q-10 -39 -32.5 -55.5t-47.5 -16.5q-35 0 -54.5 18.5t-17.5 65.5z" />
<glyph unicode="(" horiz-adv-x="688" d="M201 262q0 217 47 426t130 394.5t191 332.5q25 33 59 39t62.5 -9t38.5 -46t-10 -72q-141 -258 -219 -533.5t-78 -590.5q0 -113 11 -227.5t32 -235.5q8 -49 -12.5 -78t-53 -37t-63.5 7.5t-43 54.5q-92 301 -92 575z" />
<glyph unicode=")" horiz-adv-x="688" d="M-29.5 -321.5q-11.5 30.5 11.5 71.5q141 258 219 533.5t78 590.5q0 113 -11.5 228t-31.5 235q-8 49 12 78t53 37t63.5 -7t43.5 -54q92 -303 92 -576q0 -217 -47 -424t-130 -391t-192 -334q-25 -33 -58.5 -40t-62 7.5t-40 45z" />
<glyph unicode="*" horiz-adv-x="925" d="M156 1090q0 35 24.5 53t67.5 16l198 -10l-108 172q-49 76 16 113q31 18 60.5 4.5t46.5 -52.5l94 -186l94 186q18 39 48 52.5t61 -4.5q63 -39 16 -115l-110 -170l200 10q41 2 65.5 -16.5t24.5 -52.5q0 -37 -24.5 -55.5t-65.5 -14.5l-198 8l108 -170q20 -35 17 -64.5 t-33 -48.5q-31 -18 -60.5 -4.5t-48.5 50.5l-94 188l-96 -188q-18 -37 -46 -51.5t-61 3.5q-63 41 -16 115l108 170l-196 -8q-43 -4 -67.5 15.5t-24.5 54.5z" />
<glyph unicode="+" d="M115 573q0 90 88 91h358l55 356q14 76 89 76q82 0 67 -90l-53 -342h344q80 0 80 -62q0 -90 -88 -90h-361l-57 -367q-12 -77 -86 -77q-84 0 -70 92l58 352h-344q-80 0 -80 61z" />
<glyph unicode="," horiz-adv-x="485" d="M54 -194.5q-9 30.5 26 65.5q63 63 84 123q-49 8 -79 42t-30 87q0 57 35 93t94 36t92 -40t33 -103q0 -179 -143 -318q-37 -35 -70 -25.5t-42 40z" />
<glyph unicode="-" horiz-adv-x="878" d="M137 530q0 41 23.5 70t68.5 29h441q90 0 90 -68q0 -41 -24.5 -69.5t-69.5 -28.5h-439q-90 0 -90 67z" />
<glyph unicode="." horiz-adv-x="485" d="M55 123q0 57 36 93t95 36t94 -36t35 -93t-35 -94t-94 -37t-95 37t-36 94z" />
<glyph unicode="/" horiz-adv-x="608" d="M-100.5 -70.5q-12.5 29.5 6.5 68.5l712 1485q18 39 49 47t61 -5.5t42 -43t-6 -68.5l-715 -1485q-18 -39 -49 -48t-59.5 5.5t-41 44z" />
<glyph unicode="0" d="M127 518q0 293 71.5 505t202.5 325.5t310 113.5q227 0 345 -137t118 -395q0 -295 -72 -508t-202 -326.5t-310 -113.5q-227 0 -345 138t-118 398zM334 477q0 -319 266 -319q166 0 265.5 205.5t101.5 603.5q2 319 -267 319q-164 0 -265 -204.5t-101 -604.5z" />
<glyph unicode="1" d="M160 78q0 45 28.5 72.5t77.5 27.5h250l162 1012l-193 -113q-43 -27 -76.5 -15.5t-51 42.5t-8.5 65.5t52 61.5l318 190q66 37 119 37q43 0 63.5 -27.5t11.5 -76.5l-186 -1176h213q96 0 96 -78q0 -45 -28.5 -72.5t-77.5 -27.5h-674q-96 0 -96 78z" />
<glyph unicode="2" d="M109 84q0 33 17 59.5t54 61.5l500 463q113 106 183.5 206.5t70.5 210.5q0 94 -62.5 145.5t-175.5 51.5q-76 0 -154.5 -25.5t-162.5 -82.5q-39 -25 -72 -16t-49 39t-11 65.5t42 60.5q92 66 207.5 102.5t236.5 36.5q125 0 217 -44t143.5 -121.5t51.5 -180.5 q0 -117 -44 -214t-121 -185t-173 -174l-404 -365h564q96 0 96 -74q0 -49 -27.5 -76.5t-79.5 -27.5h-743q-47 0 -75.5 21.5t-28.5 62.5z" />
<glyph unicode="3" d="M78 166q-6 37 11 67.5t50 42t70 -13.5q88 -59 177 -79.5t181 -20.5q127 0 213 70.5t86 197.5q0 98 -65.5 154.5t-190.5 56.5h-121q-96 0 -96 80q0 45 29 71.5t78 26.5h123q133 0 223 68.5t90 193.5q0 92 -65.5 146.5t-174.5 54.5q-80 0 -166 -24.5t-163 -79.5 q-41 -25 -74 -16t-49.5 38t-9 64.5t46.5 62.5q98 70 214.5 102.5t227.5 32.5q135 0 229.5 -48t142.5 -128t48 -178q2 -135 -81 -234.5t-214 -136.5q111 -37 168 -122t57 -195q0 -125 -63.5 -224.5t-178 -156.5t-264.5 -57q-109 0 -226.5 26.5t-217.5 95.5q-39 25 -45 62z " />
<glyph unicode="4" d="M70 381q0 33 16 61.5t47 63.5l750 885q29 33 55.5 47t65.5 14q45 0 68.5 -30.5t14.5 -88.5l-137 -862h129q86 0 86 -72q0 -47 -24.5 -76.5t-81.5 -29.5h-133l-33 -207q-17 -100 -119 -100q-51 0 -75.5 28.5t-14.5 81.5l31 197h-535q-55 0 -82.5 24.5t-27.5 63.5zM297 471 h444l103 649z" />
<glyph unicode="5" d="M122 171.5q-5 35.5 12.5 66t50 41t69.5 -14.5q84 -59 161 -80.5t169 -21.5q96 0 171.5 41t120 112.5t44.5 165.5q0 113 -69 182.5t-183 69.5q-156 0 -281 -121q-23 -20 -46.5 -31.5t-53.5 -11.5q-39 0 -61.5 22.5t-14.5 72.5l111 690q14 90 108 90h672q96 0 96 -76 q0 -47 -28.5 -74.5t-79.5 -27.5h-576l-72 -455q61 47 137 72.5t154 25.5q113 0 201 -48t140 -139t52 -222q0 -158 -74.5 -274.5t-197.5 -180t-270 -63.5q-100 0 -211 27.5t-207 99.5q-39 27 -44 62.5z" />
<glyph unicode="6" d="M143 522q0 272 79 485.5t230.5 334t368.5 120.5q100 0 197.5 -34.5t175.5 -106.5q35 -27 37 -63.5t-17.5 -65.5t-52.5 -36t-69 22q-121 104 -283 104q-195 0 -315.5 -162t-145.5 -446q49 113 157.5 177t229.5 64q115 0 203 -55t138 -147t50 -207q0 -150 -63.5 -268.5 t-176 -187t-255.5 -68.5q-227 0 -357.5 145t-130.5 395zM367 406q0 -111 71.5 -181.5t184.5 -70.5q90 0 158.5 44t107.5 120.5t39 170.5q0 111 -73 181.5t-183 70.5q-90 0 -160 -44t-107.5 -119.5t-37.5 -171.5z" />
<glyph unicode="7" d="M201 31q-23 45 18 106l762 1129h-637q-100 0 -100 77q0 100 106 101h787q59 0 83.5 -21.5t24.5 -58.5q0 -35 -14 -65.5t-43 -69.5l-782 -1172q-49 -71 -121 -71q-61 0 -84 45z" />
<glyph unicode="8" d="M70 340q0 98 41 182t112.5 142.5t163.5 78.5q-84 39 -130 116t-46 179q0 137 70.5 231.5t191.5 143.5t275 49q133 0 234 -43t157.5 -120.5t56.5 -182.5q0 -133 -77 -237.5t-199 -143.5q94 -33 151 -112.5t57 -194.5q0 -145 -74.5 -244.5t-203.5 -150.5t-295 -51 q-145 0 -253.5 43t-170 123.5t-61.5 191.5zM270 362q0 -106 81 -159t214 -53q168 0 265.5 73.5t97.5 214.5q0 104 -80 156.5t-211 52.5q-168 0 -267.5 -72.5t-99.5 -212.5zM410 1022q0 -100 69.5 -153.5t188.5 -53.5q145 0 237 75t92 200q0 98 -69.5 150t-188.5 52 q-154 0 -241.5 -70.5t-87.5 -199.5z" />
<glyph unicode="9" d="M67.5 185.5q-1.5 35.5 17.5 64.5t52 37t70 -21q125 -104 293 -104q186 0 306 160.5t146 443.5q-51 -111 -159.5 -174.5t-227.5 -63.5q-117 0 -205 55.5t-138 147.5t-50 207q0 150 64.5 268.5t176 187t255.5 68.5q227 0 357 -144t130 -394q0 -201 -43 -372t-127 -300 t-209 -199.5t-287 -70.5q-98 0 -200.5 34.5t-184.5 106.5q-35 27 -36.5 62.5zM373 954q0 -111 71.5 -181.5t182.5 -70.5q92 0 160.5 44.5t106.5 120t38 171.5q0 111 -72 182.5t-182 71.5q-92 0 -160.5 -45t-106.5 -121.5t-38 -171.5z" />
<glyph unicode=":" horiz-adv-x="485" d="M55 123q0 57 36 93t95 36t94 -36t35 -93t-35 -94t-94 -37t-95 37t-36 94zM174 877q0 59 36 95t97 36q59 0 94 -36t35 -95q0 -55 -35 -92t-94 -37q-61 0 -97 36.5t-36 92.5z" />
<glyph unicode=";" horiz-adv-x="485" d="M54 -194.5q-9 30.5 26 65.5q63 63 84 123q-49 8 -79 42t-30 87q0 57 35 93t94 36t92 -40t33 -103q0 -179 -143 -318q-37 -35 -70 -25.5t-42 40zM174 877q0 59 36 95t97 36q59 0 94 -36t35 -95q0 -55 -35 -92t-94 -37q-61 0 -97 36.5t-36 92.5z" />
<glyph unicode="&#x3c;" d="M113 573q0 43 26.5 74t69.5 49l893 369q39 14 66.5 0t38 -43t-1 -57.5t-48.5 -44.5l-840 -342l715 -334q35 -16 44 -45t-3 -56.5t-39.5 -41t-64.5 4.5l-764 361q-92 41 -92 106z" />
<glyph unicode="=" d="M82 371q0 41 23.5 64.5t64.5 23.5h860q80 0 80 -62q0 -41 -23.5 -64.5t-64.5 -23.5h-860q-80 0 -80 62zM145 778q0 90 88 90h861q82 0 82 -61q0 -90 -91 -90h-860q-80 0 -80 61z" />
<glyph unicode="&#x3e;" d="M51 153.5q-10 28.5 1 57.5t48 45l838 340l-713 336q-37 16 -46 46t2.5 58.5t39 41t64.5 -4.5l768 -364q90 -43 90 -107q0 -43 -25.5 -72.5t-68.5 -48.5l-893 -366q-39 -16 -67 -3t-38 41.5z" />
<glyph unicode="?" horiz-adv-x="921" d="M143.5 1267q8.5 36 49.5 64q86 66 200.5 98.5t220.5 32.5q117 0 198 -42t124 -112.5t43 -154.5q0 -125 -72.5 -222t-183.5 -177q-111 -84 -157 -157t-66 -144q-6 -29 -21.5 -45.5t-46.5 -16.5q-37 0 -53.5 23.5t-9.5 62.5q10 68 29.5 125t63.5 114.5t126 129.5 q92 80 136 139t44 137q0 70 -45 115t-143 45q-84 0 -159 -26.5t-145 -73.5q-45 -27 -78.5 -17.5t-48 38t-6 64.5zM246 123q0 57 35.5 93t95.5 36q61 0 96 -36t35 -93t-35 -94t-96 -37q-59 0 -95 37t-36 94z" />
<glyph unicode="@" horiz-adv-x="1941" d="M139 555q0 203 65.5 370t185.5 287.5t286 185t368 64.5q240 0 420.5 -94t280.5 -265t100 -401q0 -176 -50 -307t-139 -202.5t-206 -71.5q-100 0 -163.5 47t-80.5 133q-55 -90 -135 -135t-170 -45q-160 0 -249 100.5t-89 276.5q0 150 57.5 267.5t158 185t225.5 67.5 q190 0 256 -152l12 64q14 76 90 76q84 0 68 -88l-74 -433q-10 -59 -10 -104q0 -131 114 -131q109 0 178.5 125t69.5 327q0 193 -82 333.5t-231.5 216t-350.5 75.5q-227 0 -396 -95t-263 -269.5t-94 -407.5q0 -236 89 -405.5t251 -260t385 -90.5q143 0 261 38t204 108 q43 29 75.5 11.5t35.5 -55.5t-38 -71q-204 -166 -538 -166q-264 0 -461 109.5t-306.5 310.5t-109.5 471zM733 500q0 -117 51.5 -179.5t145.5 -62.5q84 0 150.5 52t104.5 143.5t38 208.5q0 217 -195 217q-84 0 -151.5 -49.5t-105.5 -134.5t-38 -195z" />
<glyph unicode="A" horiz-adv-x="1507" d="M8 24q-12 17 -12 37q0 25 18 56l768 1269q45 72 123 72q86 0 111 -84l356 -1251q9 -31 9 -55q1 -32 -15 -50q-26 -32 -76 -32q-84 0 -108 94l-72 272h-733l-178 -303q-37 -63 -107 -63q-58 0 -84 38zM477 524h586l-180 684h-4z" />
<glyph unicode="B" horiz-adv-x="1396" d="M109 123l194 1216q14 104 121 105h463q231 0 338.5 -94.5t107.5 -245.5q0 -141 -78.5 -237.5t-214.5 -133.5q104 -35 163 -114.5t59 -190.5q0 -211 -135.5 -319.5t-381.5 -108.5h-532q-57 0 -85 32q-21 24 -21 63q0 13 2 28zM319 164h420q158 0 238 70.5t80 203.5 q0 104 -71 157.5t-202 53.5h-387zM424 813h383q150 0 234.5 69.5t84.5 198.5q0 96 -65.5 147.5t-204.5 51.5h-358z" />
<glyph unicode="C" horiz-adv-x="1384" d="M152 633q0 174 52 325.5t150.5 265t238.5 176t320 62.5q123 0 233.5 -34.5t192.5 -100.5q37 -29 40 -67v-9q-1 -32 -17 -60q-20 -32 -52 -43q-10 -3 -20 -3q-23 0 -47 16q-80 61 -162 87t-176 26q-166 0 -284.5 -83t-181 -227.5t-62.5 -326.5q0 -248 113.5 -357.5 t322.5 -109.5q84 0 161 23.5t154 78.5q30 18 56 18q11 0 20 -4q34 -10 50 -40q12 -22 11 -48q1 -10 -1 -20q-6 -37 -45 -63q-92 -70 -202.5 -101.5t-223.5 -31.5q-188 0 -333 70.5t-226.5 215t-81.5 365.5z" />
<glyph unicode="D" horiz-adv-x="1538" d="M109 123l194 1216q16 104 121 105h336q336 0 518 -160t182 -450q0 -174 -50 -325t-151.5 -265.5t-256 -179t-363.5 -64.5h-426q-57 0 -85 32q-21 24 -21 63q0 13 2 28zM330 178h313q211 0 342 87t192.5 235.5t61.5 330.5q0 211 -120 323t-359 112h-258z" />
<glyph unicode="E" horiz-adv-x="1206" d="M109 123l194 1216q14 104 121 105h741q90 0 90 -68q0 -51 -27.5 -77.5t-72.5 -26.5h-659l-72 -453h600q88 0 88 -69q0 -49 -27.5 -76t-72.5 -27h-615l-78 -475h644q90 0 90 -70q0 -49 -28 -75.5t-73 -26.5h-737q-109 0 -109 93q0 14 3 30z" />
<glyph unicode="F" horiz-adv-x="1134" d="M106 106l197 1233q14 104 121 105h715q92 0 92 -70q0 -47 -26.5 -74.5t-76.5 -27.5h-622l-76 -461h565q92 0 92 -70q0 -47 -26.5 -74.5t-75.5 -27.5h-582l-86 -549q-18 -104 -112 -104q-55 0 -81 32q-20 24 -20 63q0 12 2 25z" />
<glyph unicode="G" horiz-adv-x="1497" d="M150 612q0 250 93 441.5t266 300t417 108.5q129 0 240.5 -32.5t191.5 -94.5q41 -29 46 -69q1 -8 1 -16q0 -30 -15 -56q-18 -33 -52 -44q-10 -3 -20 -3q-27 0 -56 20q-74 57 -160 83t-189 26q-170 0 -290.5 -84t-185 -231.5t-64.5 -339.5q0 -233 118.5 -344t342.5 -111 q78 0 148.5 12t133.5 33l66 393h-264q-90 0 -91 70q0 43 28 66.5t73 23.5h352q49 0 72 -26q18 -20 18 -53q0 -11 -2 -23l-80 -517q-12 -76 -80 -100q-82 -31 -188.5 -47t-212.5 -16q-201 0 -348.5 71.5t-228 213t-80.5 345.5z" />
<glyph unicode="H" horiz-adv-x="1570" d="M106 111l199 1243q16 104 119 104q91 0 91 -88q0 -17 -3 -37l-82 -512h811l84 533q16 104 119 104q92 0 92 -86q0 -18 -4 -39l-197 -1241q-16 -106 -116 -106q-94 0 -94 90q0 16 3 35l84 532h-809l-88 -551q-18 -106 -118 -106q-53 0 -76 32q-17 24 -17 64q0 14 2 29z " />
<glyph unicode="I" horiz-adv-x="548" d="M106 111l199 1243q16 104 119 104q91 0 91 -88q0 -17 -3 -37l-197 -1241q-18 -106 -116 -106q-55 0 -78 32q-17 24 -17 64q0 14 2 29z" />
<glyph unicode="J" horiz-adv-x="692" d="M-94 72q2 86 86 90l63 4q205 16 242 246l152 948q14 98 114 98q51 0 76 -30q18 -23 18 -59q0 -13 -2 -28l-151 -950q-29 -186 -129.5 -285.5t-304.5 -113.5l-64 -6h-8q-41 0 -66 20q-26 21 -26 60v6z" />
<glyph unicode="K" horiz-adv-x="1316" d="M106 109l199 1247q16 102 119 102q50 0 74 -32q17 -22 17 -58q0 -15 -3 -31l-86 -542h4l727 614q29 27 51.5 38t55.5 11q40 0 64 -24q23 -24 23 -57q0 -37 -32 -66l-688 -580l538 -602q25 -29 25 -59q0 -34 -28 -60q-26 -24 -66 -24q-39 0 -61.5 15t-55.5 52l-571 627h-4 l-93 -592q-16 -102 -118 -102q-49 0 -75 32q-19 23 -19 60q0 14 3 31z" />
<glyph unicode="L" horiz-adv-x="1130" d="M109 117l198 1245q14 96 113 96q54 0 78 -30q18 -23 18 -60q0 -12 -2 -25l-182 -1161h616q98 0 99 -73q0 -53 -30 -81t-79 -28h-731q-55 0 -81 30q-19 23 -19 60q0 13 2 27z" />
<glyph unicode="M" horiz-adv-x="1765" d="M111 100l200 1268q14 90 105 90q41 0 63.5 -17.5t38.5 -60.5l346 -938l662 955q43 61 116 61q47 0 69 -28q17 -21 17 -55q0 -11 -2 -23l-202 -1268q-14 -92 -103 -92q-47 0 -71 28q-18 21 -17 56q0 12 2 24l152 959l-557 -803q-18 -27 -38 -39t-48 -12q-63 0 -86 65 l-303 793l-156 -979q-14 -92 -102 -92t-88 81q0 12 2 27z" />
<glyph unicode="N" horiz-adv-x="1521" d="M106 102l201 1266q14 90 99 90q41 0 62 -15.5t42 -49.5l618 -1063l164 1032q14 96 115 96q45 0 65 -30q15 -22 15 -57q0 -13 -2 -28l-201 -1265q-14 -92 -90 -92q-41 0 -65.5 16t-47.5 53l-618 1059l-164 -1032q-15 -96 -109 -96q-48 0 -70 30q-17 22 -16 59q0 13 2 27z " />
<glyph unicode="O" horiz-adv-x="1587" d="M150 606q0 246 88 439.5t254.5 305t400.5 111.5q188 0 326.5 -72.5t214 -212t75.5 -337.5q0 -248 -88 -441.5t-255 -305t-400 -111.5q-186 0 -324.5 72.5t-215 212t-76.5 339.5zM373 610q0 -225 105.5 -334.5t291.5 -109.5q166 0 281.5 87t175 238.5t59.5 344.5 q0 225 -106.5 333.5t-292.5 108.5q-166 0 -280.5 -86t-174 -237.5t-59.5 -344.5z" />
<glyph unicode="P" horiz-adv-x="1314" d="M106 109l197 1230q16 104 121 105h434q229 0 352 -100.5t123 -294.5q0 -227 -141 -357.5t-412 -130.5h-391l-74 -471q-16 -104 -116 -104q-51 0 -76 32q-19 25 -19 64q0 13 2 27zM418 731h375q164 0 248.5 78t84.5 225q0 123 -72.5 181.5t-217.5 58.5h-332z" />
<glyph unicode="Q" horiz-adv-x="1587" d="M150 606q0 246 88 439.5t254.5 305t400.5 111.5q188 0 326.5 -72.5t214 -212t75.5 -337.5q0 -195 -55 -359t-161.5 -280.5t-258.5 -173.5q76 -33 123 -133l74 -160q15 -31 15 -56q0 -16 -6 -30q-17 -35 -53 -50q-19 -7 -38 -7q-18 0 -37 7q-39 13 -61 60l-95 207 q-27 59 -79 88t-138 29h2q-180 4 -312 78.5t-205.5 212t-73.5 333.5zM373 610q0 -225 105.5 -334.5t291.5 -109.5q166 0 281.5 87t175 238.5t59.5 344.5q0 225 -106.5 333.5t-292.5 108.5q-166 0 -280.5 -86t-174 -237.5t-59.5 -344.5z" />
<glyph unicode="R" horiz-adv-x="1386" d="M109 111l194 1226q16 106 123 107h430q236 0 356.5 -105.5t120.5 -287.5q0 -193 -109.5 -302.5t-285.5 -138.5q51 -20 87 -66t62 -114l117 -307q13 -35 13 -62q1 -23 -9 -39q-22 -36 -88 -36q-43 0 -68.5 21.5t-43.5 70.5l-140 366q-33 84 -82 118t-141 34h-250l-78 -506 q-18 -104 -122 -104q-49 0 -73 32q-16 22 -16 58q0 16 3 35zM422 756h381q154 0 238.5 72.5t84.5 205.5q0 119 -71.5 179.5t-225.5 60.5h-325z" />
<glyph unicode="S" horiz-adv-x="1273" d="M66 174q-2 11 -2 23q0 23 12 45q16 32 50 44q11 4 22 4q25 0 55 -18q96 -61 204.5 -85.5t223.5 -24.5q154 0 247 62.5t93 168.5q0 76 -55.5 128t-190.5 83l-217 53q-145 35 -232.5 122t-87.5 241q0 137 76 236.5t202 152.5t277 53q115 0 239 -32.5t220 -104.5 q35 -27 42 -63q2 -11 2 -21q0 -24 -11 -45q-16 -31 -51 -40q-8 -2 -16 -2q-30 0 -68 24q-76 53 -171 78.5t-190 25.5q-147 0 -243.5 -67.5t-96.5 -178.5q0 -92 49.5 -138t145.5 -69l217 -53q188 -43 279.5 -135t91.5 -223q0 -143 -78 -240.5t-208 -146.5t-284 -49 q-135 0 -265 30.5t-234 100.5q-39 25 -47 61z" />
<glyph unicode="T" horiz-adv-x="1251" d="M129 1339q0 49 28.5 77t78.5 28h1062q96 0 97 -72q0 -51 -29 -78.5t-78 -27.5h-434l-186 -1176q-19 -104 -119 -104q-51 0 -75 32q-18 24 -17 63q0 13 2 28l182 1157h-416q-96 0 -96 73z" />
<glyph unicode="U" horiz-adv-x="1501" d="M178 618l117 742q14 98 117 98q52 0 76 -30q18 -23 18 -60q0 -13 -2 -27l-117 -741q-11 -66 -11 -123q0 -311 329 -311q186 0 293.5 94t140.5 303l127 797q14 98 116 98q51 0 75 -30q18 -23 18 -61q0 -12 -2 -26l-123 -780q-45 -287 -203 -433t-455 -146 q-182 0 -310 69.5t-184 210.5q-34 86 -34 201q0 72 14 155z" />
<glyph unicode="V" horiz-adv-x="1431" d="M176 1313q-6 22 -6 40q0 32 18 55q28 36 80 36q41 0 66.5 -20.5t40.5 -73.5l293 -1080l647 1098q25 41 51.5 58.5t67.5 17.5q64 0 86 -42q9 -17 9 -36q0 -28 -20 -59l-743 -1244q-25 -41 -53.5 -59t-73.5 -18q-90 0 -117 96z" />
<glyph unicode="W" horiz-adv-x="2267" d="M225 1331q-3 16 -3 30q0 37 20 62q26 35 82 35q84 0 100 -98l192 -1053l543 1071q41 80 119 80q74 0 94 -102l195 -1061l547 1085q18 41 43.5 59.5t66.5 18.5q61 0 83 -40q9 -17 9 -38q0 -27 -16 -59l-641 -1255q-41 -80 -125 -80q-86 0 -107 100l-194 1034l-539 -1054 q-20 -41 -49 -60.5t-76 -19.5q-84 0 -104 100z" />
<glyph unicode="X" horiz-adv-x="1351" d="M20 68.5q0 35.5 31 70.5l539 606l-330 564q-20 34 -20 64q0 21 10 40q26 45 90 45q39 0 60.5 -17.5t48.5 -60.5l284 -499l441 514q31 35 57 49t61 14q40 0 66 -24q27 -24 27 -60q0 -34 -29 -67l-514 -580l346 -590q20 -32 20 -61q0 -22 -12 -43q-27 -47 -90 -47 q-39 0 -60.5 17t-48.5 60l-303 525l-465 -539q-31 -35 -57 -49t-61 -14q-41 0 -66 23.5t-25 59z" />
<glyph unicode="Y" horiz-adv-x="1241" d="M178 1412q25 46 88 46q39 0 62.5 -17.5t48.5 -60.5l289 -520l467 535q31 35 56 49t62 14q59 0 82 -49q8 -16 8 -33q0 -33 -32 -69l-555 -631l-95 -586q-16 -104 -120 -104q-51 0 -73 32q-16 24 -16 59q0 15 3 32l90 563l-355 635q-20 34 -20 64q0 22 10 41z" />
<glyph unicode="Z" horiz-adv-x="1220" d="M33 106q6 48 51 99l920 1061h-693q-94 0 -94 73q0 51 29.5 78t77.5 27h862q84 0 98 -64q2 -11 2 -22q0 -54 -53 -115l-922 -1065h723q94 0 94 -72q0 -51 -29.5 -78.5t-76.5 -27.5h-901q-47 0 -71 30q-19 24 -18 58q0 8 1 18z" />
<glyph unicode="[" horiz-adv-x="681" d="M104 -244l254 1606q4 35 31 58.5t64 23.5h264q98 0 98 -74q0 -45 -25.5 -65.5t-70.5 -20.5h-168l-236 -1493h164q43 0 58.5 -19.5t15.5 -45.5q0 -43 -24.5 -69t-69.5 -26h-250q-51 0 -83 36t-22 89z" />
<glyph unicode="\" horiz-adv-x="608" d="M131 1446q-6 39 15.5 63.5t52 30.5t58.5 -10.5t36 -59.5l248 -1507q8 -41 -13.5 -65.5t-53.5 -29.5t-60.5 12.5t-34.5 60.5z" />
<glyph unicode="]" horiz-adv-x="681" d="M-121 -295q0 45 25.5 65.5t70.5 20.5h168l236 1493h-164q-43 0 -58.5 19.5t-15.5 46.5q0 43 24.5 68.5t70.5 25.5h249q51 0 83 -36t22 -89l-254 -1606q-6 -35 -31.5 -58.5t-62.5 -23.5h-265q-98 0 -98 74z" />
<glyph unicode="^" d="M108.5 304q-14.5 32 10.5 75l510 854q23 37 48 52t64 15q74 0 97 -83l237 -840q12 -49 -8 -77t-61 -28t-56.5 21.5t-23.5 50.5l-209 754l-455 -768q-16 -27 -35.5 -42.5t-54.5 -15.5q-49 0 -63.5 32z" />
<glyph unicode="_" horiz-adv-x="1024" d="M-63 -74q0 39 23.5 56.5t55.5 17.5h820q74 0 73 -55q0 -37 -23.5 -55.5t-56.5 -18.5h-819q-74 0 -73 55z" />
<glyph unicode="`" horiz-adv-x="1024" d="M303.5 1515.5q10.5 32.5 42 48t68.5 5.5t61 -58l164 -301q20 -39 2 -67.5t-52.5 -30.5t-61.5 37l-205 293q-29 41 -18.5 73.5z" />
<glyph unicode="a" horiz-adv-x="1099" d="M72 285q0 158 135 229.5t428 71.5h141l8 49q5 30 5 55q1 69 -35 111q-48 57 -170 57q-72 0 -138.5 -14.5t-134.5 -48.5q-25 -13 -47 -13q-12 0 -22 4q-30 11 -44 38.5t-0.5 60.5t60.5 55q82 39 173 58.5t177 19.5q222 0 310 -122q65 -90 65 -218q0 -45 -8 -96l-78 -494 q-16 -102 -113 -102q-46 0 -68 28q-17 21 -16 58q0 13 2 28l9 52q-51 -88 -134.5 -129t-175.5 -41q-88 0 -163.5 39.5t-120.5 108.5t-45 155zM276 297q0 -82 54.5 -125t130.5 -43q104 0 185 68.5t99 191.5l11 70h-103q-213 0 -295 -35t-82 -127z" />
<glyph unicode="b" horiz-adv-x="1210" d="M82 106l199 1250q18 102 118 102q49 0 72 -32q17 -23 17 -58q0 -14 -3 -31l-77 -491q55 82 142 127t195 45q172 0 276.5 -116t104.5 -314q0 -166 -59 -304.5t-170.5 -220t-269.5 -81.5q-113 0 -201 51t-127 155l-16 -100q-14 -102 -113 -102q-48 0 -72 32q-18 24 -18 61 q0 13 2 27zM346 418q0 -135 65.5 -206t182.5 -71q104 0 176 59.5t110 159t38 220.5q0 135 -65 205.5t-181 70.5q-104 0 -177 -58.5t-111 -157.5t-38 -222z" />
<glyph unicode="c" horiz-adv-x="956" d="M84 430q0 111 33 215.5t100.5 188.5t171 134t244.5 50q76 0 148.5 -19.5t125.5 -52.5q43 -25 53.5 -58.5t-2.5 -61.5q-14 -30 -42 -42q-11 -5 -23 -4q-19 0 -41 13q-94 61 -209 61q-125 0 -200.5 -62.5t-110.5 -159.5t-35 -200q0 -131 62.5 -209t207.5 -78 q43 0 93.5 13.5t101.5 44.5q31 16 57.5 6t40.5 -38t7 -58.5t-44 -53.5q-55 -37 -133.5 -57t-148.5 -20q-231 0 -344 123.5t-113 324.5z" />
<glyph unicode="d" horiz-adv-x="1210" d="M82 410q0 168 59.5 306t172 220t270.5 82q111 0 197.5 -51.5t127.5 -153.5l86 547q14 98 119 98q87 0 87 -85q0 -15 -3 -32l-199 -1251q-16 -104 -118 -104q-49 0 -69 32q-14 22 -14 56q0 16 3 35l10 57q-57 -86 -146 -135t-202 -49q-172 0 -276.5 115.5t-104.5 312.5z M291 418q0 -135 65.5 -206t182.5 -71q102 0 174.5 59.5t110.5 159t38 220.5q0 135 -65.5 205.5t-180.5 70.5q-104 0 -176.5 -58.5t-110.5 -157.5t-38 -222z" />
<glyph unicode="e" horiz-adv-x="1099" d="M84 428q0 164 67.5 298t189.5 213t284 79t254 -73q91 -73 125 -187q24 -81 25 -168q0 -36 -5 -74q-4 -39 -20.5 -51t-47.5 -12h-675q-1 -16 -1 -32q0 -121 70 -195q78 -84 228 -85q68 0 135 16.5t125 53.5q31 19 54 19q8 0 16 -2q28 -8 41.5 -35t4 -59t-44.5 -56 q-72 -49 -167 -72.5t-179 -23.5q-221 0 -350 119.5t-129 326.5zM299 580h561q2 19 2 37q0 99 -47 171q-55 84 -192 84q-96 0 -163 -42t-106 -108.5t-55 -141.5z" />
<glyph unicode="f" horiz-adv-x="710" d="M74 903q0 45 25.5 70.5t70.5 25.5h115l10 64q27 170 134.5 269.5t303.5 113.5l64 4h7q38 0 56 -20q21 -23 21 -53.5t-17.5 -55.5t-50.5 -29l-59 -4q-115 -6 -175.5 -62.5t-76.5 -162.5l-10 -64h190q82 0 82 -63q0 -45 -26.5 -70.5t-71.5 -25.5h-199l-119 -752 q-17 -102 -121 -102q-47 0 -69 32q-17 23 -17 60q0 13 2 28l117 734h-104q-82 0 -82 63z" />
<glyph unicode="g" horiz-adv-x="1216" d="M59 -223q-6 33 8.5 59.5t44.5 37.5q11 4 22 4q22 0 48 -15q68 -41 143.5 -65.5t161.5 -24.5q129 0 208 61.5t102 194.5l28 172q-55 -84 -144 -130t-198 -46q-180 0 -289.5 109.5t-109.5 299.5q0 154 60.5 287t174 215t271.5 82q113 0 201 -50t129 -151l14 96 q14 100 117 101q47 0 69 -32q16 -22 16 -56q0 -15 -3 -33l-136 -854q-67 -426 -481 -426q-121 0 -227.5 29.5t-188.5 81.5q-35 20 -41 53zM293 444q0 -123 65.5 -190.5t184.5 -67.5q106 0 180 57.5t111.5 151.5t37.5 205q0 121 -65.5 188.5t-185.5 67.5q-104 0 -178 -57.5 t-112 -151.5t-38 -203z" />
<glyph unicode="h" horiz-adv-x="1179" d="M84 109l197 1247q14 102 118 102q49 0 72 -30q17 -22 17 -59q0 -14 -3 -30l-79 -497q55 84 144 130t204 46q164 0 248 -102q61 -74 62 -205q0 -50 -9 -109l-80 -514q-14 -102 -119 -102q-48 0 -72 32q-16 22 -17 56q0 15 3 32l78 492q7 42 7 76q0 178 -175 178 q-137 0 -218 -85t-104 -228l-71 -451q-15 -102 -119 -102q-50 0 -72 32q-16 22 -15 58q0 15 3 33z" />
<glyph unicode="i" horiz-adv-x="497" d="M82 106l129 805q16 102 119 103q48 0 70 -32q17 -24 16 -61q0 -13 -2 -28l-129 -805q-17 -102 -119 -102q-48 0 -70 32q-17 23 -16 60q0 13 2 28zM254 1331q12 125 147 125q59 0 88 -28q25 -25 25 -68v-12q-14 -125 -149 -125q-112 0 -112 95q0 6 1 13z" />
<glyph unicode="j" horiz-adv-x="503" d="M-239 -315.5q-1 30.5 18.5 56.5t58.5 26q94 2 153.5 52t78.5 158l147 934q18 102 119 103q47 0 70 -32q18 -24 18 -62q0 -13 -2 -27l-143 -899q-31 -195 -131.5 -286t-299.5 -99h-7q-38 0 -57 21q-22 24 -23 54.5zM258 1331q10 125 148 125q57 0 86 -28q25 -24 25 -63 q0 -8 -1 -17q-14 -125 -147 -125q-112 0 -112 92q0 8 1 16z" />
<glyph unicode="k" horiz-adv-x="1056" d="M84 104l199 1256q14 98 118 98q47 0 70 -32q17 -23 17 -58q0 -14 -3 -31l-123 -774h5l448 391q35 31 60.5 45.5t60.5 14.5q41 0 60.5 -23.5t15.5 -58.5t-37 -64l-406 -360l328 -375q27 -33 27 -64q0 -37 -26 -61q-24 -22 -62 -22q-43 0 -69 18.5t-58 58.5l-359 402h-4 l-59 -381q-15 -98 -119 -98q-50 0 -72 30q-16 21 -15 55q0 15 3 33z" />
<glyph unicode="l" horiz-adv-x="626" d="M119 340l164 1016q14 102 118 102q47 0 70 -32q17 -23 17 -58q0 -14 -3 -31l-159 -995q-4 -31 -4 -56q0 -58 22 -89q32 -45 107 -45q25 0 40 4t27 4q16 0 26.5 -12.5t10.5 -47.5q0 -49 -21.5 -74.5t-52.5 -33.5q-16 -6 -43 -8t-47 -2q-159 0 -229 91q-51 66 -50 176 q0 42 7 91z" />
<glyph unicode="m" horiz-adv-x="1773" d="M86 102l129 811q14 100 115 101q48 0 70 -31q16 -23 16 -58q0 -13 -2 -28l-11 -61q57 90 141.5 136t182.5 46q219 0 277 -205q53 98 143 151.5t211 53.5q156 0 238 -102q57 -71 57 -197q0 -54 -11 -119l-81 -516q-14 -98 -115 -98q-48 0 -72 30q-18 23 -18 60q0 12 2 26 l78 504q7 42 7 76q0 170 -159 170q-115 0 -188.5 -83t-98.5 -230l-69 -455q-16 -98 -119 -98q-49 0 -73 30q-18 23 -17 60q0 12 2 26l82 504q6 40 6 74q0 172 -158 172q-115 0 -190.5 -83t-98.5 -230l-71 -455q-15 -98 -121 -98q-48 0 -70 30q-17 22 -16 59q0 13 2 27z" />
<glyph unicode="n" horiz-adv-x="1179" d="M84 109l127 802q14 102 119 103q46 0 68 -29q16 -20 15 -54q0 -15 -3 -32l-11 -68q55 90 145.5 138.5t209.5 48.5q164 0 248 -102q61 -74 62 -205q0 -50 -9 -109l-80 -514q-16 -102 -119 -102q-48 0 -72 32q-16 22 -17 56q0 15 3 32l78 492q7 42 7 76q0 178 -175 178 q-137 0 -218 -85t-104 -228l-71 -451q-15 -102 -119 -102q-48 0 -70 32q-17 24 -16 62q0 14 2 29z" />
<glyph unicode="o" horiz-adv-x="1157" d="M84 426q0 174 69.5 307t191.5 209t278 76q211 0 330.5 -120t119.5 -325q0 -174 -69.5 -308t-191 -208.5t-277.5 -74.5q-211 0 -331 119.5t-120 324.5zM293 418q0 -135 65.5 -206t180.5 -71q104 0 176.5 59.5t110.5 159t38 220.5q0 135 -65.5 205.5t-180.5 70.5 q-104 0 -176.5 -58.5t-110.5 -157.5t-38 -222z" />
<glyph unicode="p" horiz-adv-x="1210" d="M25 -264l186 1171q16 106 119 107q47 0 68 -32q15 -22 15 -55q0 -16 -3 -34l-9 -55q57 86 145.5 133t198.5 47q172 0 276.5 -116t104.5 -314q0 -166 -59 -304.5t-171 -220t-269 -81.5q-111 0 -198 49t-128 149l-74 -465q-16 -98 -116 -98q-49 0 -73 31q-16 20 -16 54 q0 16 3 34zM346 418q0 -135 65.5 -206t182.5 -71q104 0 176 59.5t110 159t38 220.5q0 135 -65 205.5t-181 70.5q-104 0 -177 -58.5t-111 -157.5t-38 -222z" />
<glyph unicode="q" horiz-adv-x="1210" d="M82 410q0 168 60.5 306t173 220t272.5 82q111 0 197.5 -53.5t125.5 -159.5l19 108q16 100 112 101q47 0 71 -32q17 -23 17 -60q0 -13 -2 -29l-186 -1172q-17 -104 -121 -104q-87 0 -87 86q0 15 3 33l66 420q-55 -82 -142.5 -128t-195.5 -46q-174 0 -278.5 115.5 t-104.5 312.5zM291 418q0 -135 65.5 -206t182.5 -71q102 0 174.5 59.5t110.5 159t38 220.5q0 135 -65.5 205.5t-180.5 70.5q-104 0 -176.5 -58.5t-110.5 -157.5t-38 -222z" />
<glyph unicode="r" horiz-adv-x="763" d="M82 102l129 811q14 100 117 101q48 0 70 -31q17 -23 16 -59q0 -13 -2 -27l-11 -66q49 88 137.5 135.5t194.5 53.5h10q43 0 59 -16q18 -18 17 -56q0 -53 -24.5 -78.5t-79.5 -29.5l-49 -6q-152 -14 -218.5 -90t-87.5 -207l-71 -453q-15 -98 -121 -98q-50 0 -72 30 q-17 22 -16 59q0 13 2 27z" />
<glyph unicode="s" horiz-adv-x="991" d="M67.5 113.5q-10.5 31.5 2 60.5t40.5 40q10 4 21 4q21 0 47 -15q66 -35 137.5 -53.5t145.5 -18.5q104 0 161.5 40t57.5 112q0 94 -125 120l-190 43q-106 25 -167 90.5t-61 161.5q0 90 51.5 162t146.5 115t230 43q78 0 162 -22.5t143 -61.5q37 -25 45.5 -56.5t-5.5 -57.5 q-12 -26 -42 -34q-8 -2 -17 -2q-23 0 -52 17q-104 65 -240 65h-4q-106 0 -166.5 -43t-60.5 -114q0 -43 26.5 -75t85.5 -44l191 -43q115 -27 177 -89.5t62 -160.5q0 -150 -113.5 -232.5t-297.5 -82.5q-96 0 -186.5 20.5t-155.5 56.5q-39 23 -49.5 54.5z" />
<glyph unicode="t" horiz-adv-x="747" d="M55 907q0 45 29 68.5t78 23.5h117l34 220q14 96 113 96q93 0 93 -83q0 -15 -3 -32l-31 -201h226q88 0 88 -67q0 -41 -25.5 -66.5t-73.5 -25.5h-239l-76 -467q-5 -34 -5 -62q0 -71 32 -107q45 -50 133 -50q39 0 61.5 7t42.5 7q23 0 35 -12.5t12 -46.5q0 -55 -17 -78 t-50 -33q-23 -8 -58.5 -12t-64.5 -4q-186 0 -271 102q-65 78 -65 196q0 36 6 76l78 484h-111q-88 0 -88 67z" />
<glyph unicode="u" horiz-adv-x="1165" d="M125 399l82 519q14 96 115 96q50 0 74 -30q18 -23 18 -59q0 -12 -2 -26l-80 -500q-6 -39 -6 -72q0 -180 170 -180q129 0 209.5 85t103.5 229l72 457q14 96 112 96q51 0 75 -31q17 -23 17 -57q0 -13 -2 -27l-129 -815q-14 -98 -112 -98q-88 0 -88 81q0 13 2 27l10 68 q-117 -180 -344 -180q-162 0 -247 101q-60 72 -60 200q0 53 10 116z" />
<glyph unicode="v" horiz-adv-x="1064" d="M123 868q-7 25 -7 47q0 31 16 57q26 42 85 42q41 0 65.5 -21.5t36.5 -72.5l166 -680l402 702q23 39 48.5 55.5t63.5 16.5q59 0 80 -40q8 -16 8 -33q0 -28 -20 -60l-481 -815q-49 -80 -127 -80q-49 0 -79 25.5t-44 74.5z" />
<glyph unicode="w" horiz-adv-x="1732" d="M143 866q-5 23 -5 44q0 37 16 63q26 41 84 41q41 0 61 -21.5t31 -70.5l133 -676l368 702q35 66 105 66q35 0 60.5 -19.5t33.5 -62.5l139 -699l365 705q20 43 46 59.5t67 16.5q61 0 79 -39q7 -15 6 -33q0 -27 -16 -57l-440 -819q-43 -80 -127 -80q-94 0 -117 98l-133 631 l-340 -647q-43 -82 -129 -82q-43 0 -72.5 23.5t-42.5 74.5z" />
<glyph unicode="x" horiz-adv-x="1093" d="M29 32q-6 14 -6 28q0 32 30 63l379 395l-229 350q-22 34 -22 63q-1 21 11 39q26 44 78 44q70 0 111 -66l190 -301l285 311q25 29 48.5 42.5t60.5 13.5q66 0 84 -46q5 -14 5 -27q0 -32 -30 -62l-350 -373l246 -375q23 -34 23 -63q0 -21 -12 -39q-28 -43 -81 -43 q-70 0 -109 65l-204 320l-316 -330q-27 -29 -50 -42t-60 -13q-63 0 -82 46z" />
<glyph unicode="y" horiz-adv-x="1064" d="M121 870q-6 23 -6 43q0 34 17 59q26 42 83 42q45 0 66.5 -21.5t33.5 -72.5l168 -680l402 698q20 41 45.5 58.5t66.5 17.5q59 0 80 -41q8 -17 8 -35q0 -27 -18 -59l-707 -1188q-23 -39 -47 -56.5t-65 -17.5q-59 0 -78 40q-7 15 -7 32q0 27 19 59l168 279z" />
<glyph unicode="z" horiz-adv-x="958" d="M38 51q-5 14 -6 28q0 38 38 77l622 686h-450q-84 0 -84 65q0 43 25.5 67.5t68.5 24.5h608q72 0 88 -52q4 -12 4 -24q0 -41 -43 -87l-618 -678h475q84 0 84 -66q0 -41 -25.5 -66.5t-68.5 -25.5h-631q-67 0 -87 51z" />
<glyph unicode="{" horiz-adv-x="757" d="M88 522q0 41 20.5 68.5t53.5 30.5q84 2 125 36.5t55 124.5l68 435q37 227 247 227h142q88 0 88 -78q0 -37 -25.5 -59.5t-62.5 -22.5h-86q-84 0 -101 -90l-67 -434q-14 -98 -71.5 -153.5t-117.5 -67.5q55 -14 93 -70.5t24 -153.5l-67 -436q-6 -47 11 -67.5t60 -20.5h74 q31 0 51.5 -20.5t20.5 -51.5q0 -88 -86 -88h-105q-137 0 -195.5 61.5t-41.5 166.5l69 434q14 94 -15.5 125t-101.5 37q-59 6 -59 67z" />
<glyph unicode="|" horiz-adv-x="563" d="M57 -262l258 1618q14 102 119 102q47 0 69.5 -31.5t14.5 -89.5l-256 -1618q-17 -102 -119 -102q-49 0 -71.5 32t-14.5 89z" />
<glyph unicode="}" horiz-adv-x="757" d="M-117 -291q0 39 24.5 60.5t63.5 21.5h86q84 0 101 90l67 434q14 98 71.5 153.5t117.5 68.5q-55 14 -94 70.5t-23 152.5l65 436q8 47 -9 67.5t-60 20.5h-74q-31 0 -51.5 20.5t-20.5 51.5q0 88 84 88h107q137 0 194.5 -61.5t42.5 -165.5l-69 -435q-14 -94 15.5 -124.5 t101.5 -36.5q59 -6 59 -68q0 -41 -20.5 -68.5t-55.5 -29.5q-82 -2 -123 -37t-55 -125l-70 -434q-35 -227 -245 -228h-142q-88 0 -88 78z" />
<glyph unicode="~" d="M138.5 512q-19.5 31 6.5 72q49 78 111.5 116.5t142.5 38.5q70 0 136.5 -27.5t123.5 -58.5q53 -29 97.5 -50t87.5 -21q55 0 92 26.5t63 63.5q27 35 64 29.5t55.5 -36t-8.5 -71.5q-98 -158 -254 -158q-68 0 -132.5 28t-121.5 58q-53 29 -100 50.5t-90 21.5q-53 0 -90 -25.5 t-64 -62.5q-27 -35 -63.5 -30t-56 36z" />
<glyph unicode="&#xa1;" horiz-adv-x="485" d="M6 -242l176 791q16 63 74 63q66 0 59 -80l-73 -790q-10 -125 -127 -125q-61 0 -92 37t-17 104zM174 877q0 59 36 95t97 36q59 0 94 -36t35 -95q0 -55 -35 -92t-94 -37q-61 0 -97 36.5t-36 92.5z" />
<glyph unicode="&#xa2;" d="M178 430q0 131 47 254t148.5 209t259.5 108l29 185q12 74 92 74q35 0 59.5 -21.5t15.5 -71.5l-26 -159q139 -14 229 -80q35 -23 41 -53.5t-9 -57t-45 -36t-67 11.5q-92 53 -207 53q-129 0 -207.5 -61.5t-113.5 -158t-35 -194.5q0 -123 64.5 -199.5t216.5 -76.5 q45 0 96 12t100 43q35 20 61.5 8t39 -40.5t3.5 -61.5t-44 -51q-66 -39 -141.5 -57.5t-139.5 -18.5l-27 -166q-12 -74 -92 -74q-39 0 -60.5 21.5t-14.5 68.5l28 170q-154 39 -227.5 150.5t-73.5 269.5z" />
<glyph unicode="&#xa3;" d="M14 80q0 47 32 71.5t81 24.5h102l76 473h-112q-43 0 -61.5 19.5t-18.5 46.5q0 35 26.5 59.5t65.5 24.5h125l37 233q35 215 155.5 322.5t345.5 107.5q102 0 201.5 -31.5t167.5 -89.5q35 -31 38 -65.5t-16.5 -61t-51 -33.5t-66.5 17q-63 51 -129 70.5t-138 19.5 q-258 0 -296 -248l-37 -241h276q43 0 62.5 -19.5t19.5 -46.5q0 -39 -26.5 -61.5t-65.5 -22.5h-291l-76 -473h549q53 0 77 -22.5t24 -55.5q0 -43 -31 -70.5t-80 -27.5h-862q-51 0 -77 22.5t-26 57.5z" />
<glyph unicode="&#xa4;" d="M81.5 25q0.5 28 22.5 49l117 121q-47 63 -73.5 142t-26.5 165t25.5 164.5t74.5 144.5l-117 121q-47 47 0 94q18 23 46 22t51 -24l116 -119q61 49 138 77t161 28q82 0 158 -27t137 -74l113 115q23 23 51.5 24t48.5 -20q23 -23 23 -51.5t-23 -50.5l-114 -117 q98 -135 98 -307q0 -86 -25.5 -165t-74.5 -144l116 -119q20 -20 21.5 -48t-21.5 -49q-18 -20 -46.5 -20t-49.5 23l-115 118q-61 -49 -137 -76.5t-160 -27.5q-86 0 -162.5 27.5t-138.5 74.5l-116 -116q-20 -23 -47.5 -24.5t-47.5 21.5q-23 20 -22.5 48zM299 502 q0 -92 42 -169t113.5 -122t159.5 -45t159 45t114 122t43 169q0 94 -43 170t-114 122t-159 44q-86 0 -157.5 -45t-114.5 -121t-43 -170z" />
<glyph unicode="&#xa5;" d="M113 414q0 35 25.5 57.5t60.5 22.5h309l27 165h-283q-43 0 -65.5 19.5t-22.5 50.5q0 37 25.5 58.5t58.5 21.5h231l-278 504q-33 57 -5.5 101t89.5 44q37 0 56 -16.5t40 -57.5l281 -522l454 537q27 31 49.5 45t55.5 14q39 0 64.5 -22.5t28.5 -55t-26 -65.5l-436 -506h199 q88 0 88 -72q0 -33 -26 -55.5t-58 -22.5h-310l-26 -165h280q88 0 88 -72q0 -35 -25.5 -56.5t-57.5 -21.5h-310l-39 -256q-19 -102 -123 -102q-51 0 -73.5 31.5t-14.5 88.5l39 238h-280q-45 0 -67.5 19.5t-22.5 50.5z" />
<glyph unicode="&#xa6;" horiz-adv-x="563" d="M59 -262l78 487q16 104 119 105q49 0 71.5 -32t14.5 -89l-78 -490q-17 -102 -121 -102q-49 0 -71.5 32t-12.5 89zM238 868l77 488q16 102 119 102q49 0 71.5 -31.5t14.5 -89.5l-78 -487q-18 -102 -120 -102q-49 0 -72 31.5t-12 88.5z" />
<glyph unicode="&#xa7;" horiz-adv-x="1138" d="M5 -236.5q-7 31.5 8.5 59t45 37t66.5 -15.5q127 -82 303 -82q123 0 195.5 64.5t72.5 161.5q0 72 -32.5 115.5t-108.5 89.5l-219 124q-229 135 -230 322q0 188 173 305q-25 57 -25 127q0 121 63.5 209t169 135t232.5 47q96 0 184 -21.5t170 -74.5q39 -25 46 -55.5t-9 -56 t-47 -34t-70 14.5q-55 37 -127.5 57.5t-142.5 20.5q-123 0 -195.5 -64.5t-72.5 -163.5q0 -72 32.5 -116.5t110.5 -89.5l213 -123q233 -135 233 -322q0 -90 -44 -168t-128 -135q25 -55 25 -125q0 -123 -63.5 -211t-168 -135t-231.5 -47q-115 0 -211 24.5t-172 71.5 q-39 23 -46 54.5zM293 674q0 -63 42 -115.5t122 -99.5l194 -111q92 -55 135 -110q37 39 55.5 81.5t18.5 81.5q0 63 -43 114.5t-127 100.5l-188 107q-92 53 -140 115q-37 -39 -53 -82t-16 -82z" />
<glyph unicode="&#xa8;" horiz-adv-x="1024" d="M348 1315q0 59 34 95t93 36q96 0 97 -84q0 -61 -33 -97t-94 -36q-96 0 -97 86zM721 1315q0 59 33 95t94 36q94 0 94 -84q0 -61 -33 -97t-94 -36q-94 0 -94 86z" />
<glyph unicode="&#xa9;" horiz-adv-x="1669" d="M129 723q0 158 55.5 292t156.5 235.5t236.5 156.5t292.5 55q158 0 292 -55t235.5 -156.5t157 -235.5t55.5 -292t-55.5 -293t-157 -235.5t-235.5 -156.5t-292 -56t-293 56t-236 156.5t-156.5 235.5t-55.5 293zM231 723q0 -137 48.5 -254t135.5 -205t202.5 -136t252.5 -48 t253 48t202 136t134 205t48 254q0 182 -83 327.5t-227 229.5t-327 84q-137 0 -252.5 -48t-202.5 -135t-135.5 -204t-48.5 -254zM467 727q0 203 116.5 319.5t317.5 116.5q66 0 132.5 -18.5t123.5 -57.5q29 -16 34 -43.5t-7.5 -51t-37 -33t-59.5 9.5q-45 27 -88 39t-86 12 q-125 0 -195.5 -77t-70.5 -218q0 -139 70.5 -219t195.5 -80q45 0 88 11.5t93 41.5q31 18 55.5 9t36.5 -32.5t6 -51t-33 -46.5q-53 -37 -121.5 -57t-136.5 -20q-201 0 -317.5 121.5t-116.5 324.5z" />
<glyph unicode="&#xaa;" horiz-adv-x="679" d="M135 1024q0 180 354 180h97l4 27q10 63 -26 94t-105 31q-82 0 -160 -35q-37 -14 -58.5 5.5t-17.5 49t43 43.5q90 43 205 43q137 0 202.5 -73.5t47.5 -192.5l-47 -295q-10 -61 -72 -61q-35 0 -49 18.5t-10 48.5l10 56h-6q-74 -125 -205 -125q-88 0 -147.5 55t-59.5 131z M274 1032q0 -43 30 -68.5t77 -25.5q63 0 119.5 43t66.5 109l4 32h-71q-121 0 -173.5 -21.5t-52.5 -68.5z" />
<glyph unicode="&#xab;" horiz-adv-x="952" d="M117 542q4 36 30 70l211 273q20 27 49 33t58 -9q33 -16 37 -51t-29 -82l-168 -239l82 -248q26 -80 -37 -107q-39 -14 -70.5 -0.5t-48.5 49.5l-104 244q-14 31 -10 67zM512 542q4 36 30 70l211 273q20 27 49 33t58 -9q33 -16 37 -51t-29 -82l-168 -239l82 -248 q26 -80 -37 -107q-39 -14 -70.5 -0.5t-48.5 49.5l-104 244q-14 31 -10 67z" />
<glyph unicode="&#xac;" d="M147 782q0 88 89 88h813q55 0 83.5 -33.5t20.5 -91.5l-61 -389q-12 -75 -88 -75q-84 0 -68 94l57 346h-766q-80 0 -80 61z" />
<glyph unicode="&#xad;" horiz-adv-x="878" d="M137 530q0 41 23.5 70t68.5 29h441q90 0 90 -68q0 -41 -24.5 -69.5t-69.5 -28.5h-439q-90 0 -90 67z" />
<glyph unicode="&#xae;" horiz-adv-x="1669" d="M129 723q0 158 55.5 292t156.5 235.5t236.5 156.5t292.5 55q158 0 292 -55t235.5 -156.5t157 -235.5t55.5 -292t-55.5 -293t-157 -235.5t-235.5 -156.5t-292 -56t-293 56t-236 156.5t-156.5 235.5t-55.5 293zM231 723q0 -137 48.5 -254t135.5 -205t202.5 -136t252.5 -48 t253 48t202 136t134 205t48 254q0 182 -83 327.5t-227 229.5t-327 84q-137 0 -252.5 -48t-202.5 -135t-135.5 -204t-48.5 -254zM565 365v694q0 96 99 96h264q141 0 217 -68.5t76 -183.5q0 -94 -48.5 -152.5t-134.5 -78.5q33 -12 57.5 -42t45.5 -85l59 -164 q16 -51 -9.5 -76.5t-68.5 -25.5q-31 0 -49 17t-29 48l-71 207q-16 49 -51 65.5t-84 16.5h-109v-268q0 -86 -82 -86t-82 86zM727 760h178q158 0 158 135t-158 135h-178v-270z" />
<glyph unicode="&#xaf;" horiz-adv-x="1024" d="M318 1327q0 33 20.5 54.5t56.5 21.5h508q70 0 70 -55q0 -35 -20.5 -55.5t-57.5 -20.5h-508q-70 0 -69 55z" />
<glyph unicode="&#xb0;" horiz-adv-x="768" d="M174 1145q0 88 41 157.5t111.5 110.5t160.5 41q88 0 158 -40t112 -110.5t42 -158.5t-41 -157.5t-112 -109.5t-159 -40q-90 0 -160.5 41t-111.5 110.5t-41 155.5zM313 1145q0 -78 48 -129t126 -51q76 0 125.5 51t49.5 129q0 80 -49.5 131t-125.5 51q-78 0 -126 -51 t-48 -131z" />
<glyph unicode="&#xb1;" d="M33 61q0 90 90 91h858q82 0 82 -62q0 -90 -90 -90h-860q-80 0 -80 61zM129 666q0 88 90 88h361l38 268q12 80 89 80q39 0 56 -25.5t11 -68.5l-39 -254h342q82 0 82 -62q0 -90 -90 -90h-360l-41 -266q-12 -80 -86 -80q-82 0 -70 92l41 254h-344q-80 0 -80 64z" />
<glyph unicode="&#xb2;" horiz-adv-x="778" d="M121 646q0 27 11 45t34 39l295 262q61 55 98 108t39 111q0 45 -32 71.5t-91 26.5q-45 0 -86 -12t-84 -35q-39 -20 -65.5 2.5t-26.5 60t43 60.5q57 35 124.5 51t133.5 16q127 0 197.5 -64.5t68.5 -156.5q-2 -94 -56 -166.5t-157 -160.5l-205 -183h293q76 0 76 -59 q0 -39 -22.5 -61.5t-63.5 -22.5h-444q-80 0 -80 68z" />
<glyph unicode="&#xb3;" horiz-adv-x="778" d="M103 687q-5 28 8.5 51.5t40 32t59.5 -12.5q41 -27 92 -37t108 -10q68 0 114 33t46 98q4 100 -137 101h-88q-35 0 -56.5 15t-21.5 46q0 35 22.5 59.5t65.5 24.5h90q72 0 121 30.5t49 94.5q0 47 -34.5 71.5t-98.5 24.5q-59 0 -105 -15.5t-79 -33.5q-41 -23 -67.5 0 t-25.5 60.5t44 60.5q49 29 114.5 50t145.5 21q127 0 200.5 -59t73.5 -149q0 -80 -51 -139.5t-133 -84.5q68 -23 103.5 -73t35.5 -115q0 -78 -44 -136.5t-117.5 -92t-163.5 -33.5q-72 0 -147 17.5t-130 53.5q-29 18 -34 46z" />
<glyph unicode="&#xb4;" horiz-adv-x="1024" d="M584 1146q-14 28 8 64l211 320q27 41 61.5 46t62.5 -14.5t35 -53t-22 -66.5l-250 -301q-27 -33 -59.5 -28t-46.5 33z" />
<glyph unicode="&#xb5;" d="M53 -266l189 1181q14 98 116 99q49 0 73 -31t15 -88l-79 -496q-41 -252 163 -252q131 0 211 86t103 228l69 452q16 100 119 101q49 0 71.5 -31t14.5 -88l-129 -811q-14 -98 -112 -98q-45 0 -71 25.5t-20 64.5l17 100q-43 -92 -118 -143t-171 -51q-154 0 -213 106 l-47 -369q-13 -102 -117 -102q-47 0 -69.5 30.5t-14.5 86.5z" />
<glyph unicode="&#xb6;" horiz-adv-x="1236" d="M160 971q0 141 60.5 247.5t168 166t248.5 59.5h471q51 0 76.5 -29t17.5 -82l-260 -1638q-14 -78 -92 -78t-64 90l250 1585h-250l-254 -1597q-12 -78 -92 -78q-76 0 -63 90l143 901q-113 0 -192.5 48.5t-123.5 130t-44 184.5z" />
<glyph unicode="&#xb7;" horiz-adv-x="485" d="M121 547q0 57 36 93t97 36q59 0 94 -36t35 -93t-35 -93t-94 -36q-61 0 -97 35.5t-36 93.5z" />
<glyph unicode="&#xb8;" horiz-adv-x="1024" d="M205 -334q-4 31 16.5 54.5t56.5 9.5q49 -16 109 -17q57 0 90 18.5t33 53.5q0 49 -70 49q-33 0 -67 -8q-35 -8 -47 4q-14 14 -7 47l54 164h118l-41 -123h29q74 0 118 -34t44 -97q0 -84 -72 -134t-178 -50q-78 0 -143 20q-39 12 -43 43z" />
<glyph unicode="&#xb9;" horiz-adv-x="778" d="M174 641q0 35 22.5 57.5t63.5 22.5h133l82 516l-96 -51q-39 -20 -68 -11t-42 35.5t-4 56.5t48 50l193 105q18 10 41.5 19t52.5 9q37 0 50 -15t14 -35.5t-1 -35.5l-102 -643h80q78 0 78 -61q0 -35 -23.5 -58.5t-62.5 -23.5h-383q-76 0 -76 63z" />
<glyph unicode="&#xba;" horiz-adv-x="706" d="M147 1128q0 104 43 179t116 115t163 40q129 0 212 -77.5t83 -208.5q0 -102 -43 -178t-116 -116t-161 -40q-129 0 -213 77.5t-84 208.5zM291 1126q0 -84 42.5 -130t112.5 -46q78 0 127.5 57.5t49.5 170.5q0 86 -43 131t-113 45q-78 0 -127 -57.5t-49 -170.5z" />
<glyph unicode="&#xbb;" horiz-adv-x="952" d="M69.5 232q-3.5 36 30.5 83l166 240l-82 246q-25 82 37 106q39 14 71 1t48 -50l104 -242q14 -33 10.5 -68.5t-30.5 -70.5l-211 -272q-20 -27 -49 -33t-58 8q-33 16 -36.5 52zM464.5 232q-3.5 36 30.5 83l166 240l-82 246q-25 82 37 106q39 14 71 1t48 -50l104 -242 q14 -33 10.5 -68.5t-30.5 -70.5l-211 -272q-20 -27 -49 -33t-58 8q-33 16 -36.5 52z" />
<glyph unicode="&#xbc;" horiz-adv-x="1847" d="M174 641q0 35 22.5 57.5t63.5 22.5h133l82 516l-96 -51q-39 -20 -68 -11t-42 35.5t-4 56.5t48 50l193 105q18 10 41.5 19t52.5 9q37 0 50 -15t14 -35.5t-1 -35.5l-102 -643h80q78 0 78 -61q0 -35 -23.5 -58.5t-62.5 -23.5h-383q-76 0 -76 63zM432.5 20.5 q-6.5 28.5 20.5 63.5l999 1360q25 33 54.5 37t54.5 -12.5t30 -45t-20 -63.5l-997 -1358q-25 -33 -55.5 -38t-55 11.5t-31 45zM1081 223q0 23 10.5 43.5t24.5 36.5l432 510q18 25 44 43t69 18q86 0 72 -86l-76 -485h49q25 0 44 -16.5t19 -46.5q0 -29 -21.5 -54.5t-55.5 -25.5 h-58l-14 -92q-12 -76 -96 -76q-39 0 -58.5 18.5t-13.5 59.5l14 90h-293q-37 0 -64.5 13t-27.5 50zM1276 303h213l51 313z" />
<glyph unicode="&#xbd;" horiz-adv-x="1941" d="M174 641q0 35 22.5 57.5t63.5 22.5h133l82 516l-96 -51q-39 -20 -68 -11t-42 35.5t-4 56.5t48 50l193 105q18 10 41.5 19t52.5 9q37 0 50 -15t14 -35.5t-1 -35.5l-102 -643h80q78 0 78 -61q0 -35 -23.5 -58.5t-62.5 -23.5h-383q-76 0 -76 63zM432.5 20.5 q-6.5 28.5 20.5 63.5l999 1360q25 33 54.5 37t54.5 -12.5t30 -45t-20 -63.5l-997 -1358q-25 -33 -55.5 -38t-55 11.5t-31 45zM1192 68q0 27 11 45t34 39l295 262q61 55 98 108t39 111q0 45 -32 71.5t-91 26.5q-45 0 -86 -12t-84 -35q-39 -20 -65.5 2.5t-26.5 60t43 60.5 q57 35 124.5 51t133.5 16q127 0 197.5 -64.5t68.5 -156.5q-2 -94 -56 -166.5t-157 -160.5l-205 -183h293q76 0 76 -59q0 -39 -22.5 -61.5t-63.5 -22.5h-444q-80 0 -80 68z" />
<glyph unicode="&#xbe;" horiz-adv-x="1847" d="M103 687q-5 28 8.5 51.5t40 32t59.5 -12.5q41 -27 92 -37t108 -10q68 0 114 33t46 98q4 100 -137 101h-88q-35 0 -56.5 15t-21.5 46q0 35 22.5 59.5t65.5 24.5h90q72 0 121 30.5t49 94.5q0 47 -34.5 71.5t-98.5 24.5q-59 0 -105 -15.5t-79 -33.5q-41 -23 -67.5 0 t-25.5 60.5t44 60.5q49 29 114.5 50t145.5 21q127 0 200.5 -59t73.5 -149q0 -80 -51 -139.5t-133 -84.5q68 -23 103.5 -73t35.5 -115q0 -78 -44 -136.5t-117.5 -92t-163.5 -33.5q-72 0 -147 17.5t-130 53.5q-29 18 -34 46zM432.5 20.5q-6.5 28.5 20.5 63.5l999 1360 q25 33 54.5 37t54.5 -12.5t30 -45t-20 -63.5l-997 -1358q-25 -33 -55.5 -38t-55 11.5t-31 45zM1081 223q0 23 10.5 43.5t24.5 36.5l432 510q18 25 44 43t69 18q86 0 72 -86l-76 -485h49q25 0 44 -16.5t19 -46.5q0 -29 -21.5 -54.5t-55.5 -25.5h-58l-14 -92q-12 -76 -96 -76 q-39 0 -58.5 18.5t-13.5 59.5l14 90h-293q-37 0 -64.5 13t-27.5 50zM1276 303h213l51 313z" />
<glyph unicode="&#xbf;" horiz-adv-x="921" d="M-51 -92q0 113 65.5 200t173.5 160q111 76 162 144.5t70 148.5q8 25 21.5 39t45.5 14q35 0 52.5 -20.5t11.5 -61.5q-12 -66 -33.5 -121t-65.5 -109t-124 -114q-76 -59 -121 -115.5t-45 -127.5q0 -66 47 -109t137 -43t165 21.5t148 64.5q47 27 79 15.5t46.5 -41t4 -65.5 t-49.5 -60q-88 -59 -198.5 -87t-225.5 -28q-113 0 -194.5 39t-126.5 106.5t-45 149.5zM412 877q0 59 35.5 95t95.5 36q61 0 96 -36t35 -95q0 -55 -35 -92t-96 -37q-59 0 -95 36.5t-36 92.5z" />
<glyph unicode="&#xc0;" horiz-adv-x="1507" d="M8.5 23.5q-26.5 37.5 5.5 93.5l768 1269q45 72 123 72q86 0 111 -84l356 -1251q20 -72 -6.5 -104.5t-75.5 -32.5q-84 0 -108 94l-72 272h-733l-178 -303q-37 -63 -107 -63q-57 0 -83.5 37.5zM477 524h586l-180 684h-4zM637.5 1877q9.5 34 38 52.5t64.5 13t61 -48.5 l147 -237q20 -37 3 -66.5t-51 -36t-63 26.5l-178 227q-31 35 -21.5 69z" />
<glyph unicode="&#xc1;" horiz-adv-x="1507" d="M8.5 23.5q-26.5 37.5 5.5 93.5l768 1269q45 72 123 72q86 0 111 -84l356 -1251q20 -72 -6.5 -104.5t-75.5 -32.5q-84 0 -108 94l-72 272h-733l-178 -303q-37 -63 -107 -63q-57 0 -83.5 37.5zM477 524h586l-180 684h-4zM903 1589.5q-14 28.5 10 61.5l191 252 q29 37 63.5 41t62 -16.5t34 -52.5t-26.5 -63l-223 -235q-31 -31 -64 -23.5t-47 36z" />
<glyph unicode="&#xc2;" horiz-adv-x="1507" d="M8.5 23.5q-26.5 37.5 5.5 93.5l768 1269q45 72 123 72q86 0 111 -84l356 -1251q20 -72 -6.5 -104.5t-75.5 -32.5q-84 0 -108 94l-72 272h-733l-178 -303q-37 -63 -107 -63q-57 0 -83.5 37.5zM477 524h586l-180 684h-4zM613.5 1580q-15.5 26 10.5 58l189 234q59 72 139 72 q41 0 69.5 -21.5t53.5 -60.5l135 -222q25 -39 5.5 -65.5t-56.5 -27.5t-66 36l-155 213l-215 -221q-29 -31 -61.5 -26t-48 31z" />
<glyph unicode="&#xc3;" horiz-adv-x="1507" d="M8.5 23.5q-26.5 37.5 5.5 93.5l768 1269q45 72 123 72q86 0 111 -84l356 -1251q20 -72 -6.5 -104.5t-75.5 -32.5q-84 0 -108 94l-72 272h-733l-178 -303q-37 -63 -107 -63q-57 0 -83.5 37.5zM477 524h586l-180 684h-4zM495 1661q33 115 100.5 170t159.5 55 q55 0 104.5 -21.5t93.5 -50t86 -51t81 -22.5q49 0 86 27.5t55 82.5q18 49 68 47q27 -2 39 -20t4 -51q-33 -117 -101.5 -172.5t-160.5 -55.5q-57 0 -106.5 23t-92.5 51.5t-84 51t-82 22.5q-102 0 -141 -113q-19 -49 -68 -45q-25 2 -38 20.5t-3 51.5z" />
<glyph unicode="&#xc4;" horiz-adv-x="1507" d="M8.5 23.5q-26.5 37.5 5.5 93.5l768 1269q45 72 123 72q86 0 111 -84l356 -1251q20 -72 -6.5 -104.5t-75.5 -32.5q-84 0 -108 94l-72 272h-733l-178 -303q-37 -63 -107 -63q-57 0 -83.5 37.5zM477 524h586l-180 684h-4zM655 1714q0 61 34 96t95 35q94 0 94 -84 q0 -61 -33 -97t-96 -36q-94 0 -94 86zM1026 1714q0 61 32.5 96t94.5 35q96 0 96 -84q0 -61 -34 -97t-95 -36q-94 0 -94 86z" />
<glyph unicode="&#xc5;" horiz-adv-x="1507" d="M8.5 23.5q-26.5 37.5 5.5 93.5l768 1269q45 72 123 72q86 0 111 -84l356 -1251q20 -72 -6.5 -104.5t-75.5 -32.5q-84 0 -108 94l-72 272h-733l-178 -303q-37 -63 -107 -63q-57 0 -83.5 37.5zM477 524h586l-180 684h-4zM704 1794q0 102 73 172t177 70q106 0 178 -70 t72 -172t-72 -174t-178 -72q-104 0 -177 72t-73 174zM813 1794q0 -61 40 -102t101 -41t101 41t40 102q0 59 -39.5 99t-101.5 40q-61 0 -101 -40t-40 -99z" />
<glyph unicode="&#xc6;" horiz-adv-x="2021" d="M-55.5 30q-16.5 44 16.5 89l979 1270q25 31 52.5 43t64.5 12h921q92 0 93 -68q0 -51 -29 -77.5t-74 -26.5h-776l27 -453h616q92 0 92 -69q0 -49 -28.5 -76t-71.5 -27h-600l24 -475h527q92 0 92 -70q0 -47 -27.5 -74.5t-75.5 -27.5h-598q-92 0 -98 92l-14 260h-688 l-234 -307q-42 -59 -108 -59t-82.5 44zM496 524h553l-39 678h-4z" />
<glyph unicode="&#xc7;" horiz-adv-x="1384" d="M152 633q0 174 52 325.5t150.5 265t238.5 176t320 62.5q123 0 233.5 -34.5t192.5 -100.5q37 -29 40 -66.5t-16.5 -69.5t-52 -43t-67.5 13q-80 61 -162 87t-176 26q-166 0 -284.5 -83t-181 -227.5t-62.5 -326.5q0 -248 113.5 -357.5t322.5 -109.5q84 0 161 23.5t154 78.5 q43 25 76 14.5t49.5 -41t10 -67.5t-44.5 -63q-92 -70 -202.5 -101.5t-223.5 -31.5q-188 0 -333 70.5t-226.5 215t-81.5 365.5zM529 -334q-4 31 16.5 54.5t56.5 9.5q49 -16 109 -17q57 0 90 18.5t33 53.5q0 49 -70 49q-33 0 -67 -8q-35 -8 -47 4q-14 14 -7 47l54 164h118 l-41 -123h29q74 0 118 -34t44 -97q0 -84 -72 -134t-178 -50q-78 0 -143 20q-39 12 -43 43z" />
<glyph unicode="&#xc8;" horiz-adv-x="1206" d="M109 123l194 1216q14 104 121 105h741q90 0 90 -68q0 -51 -27.5 -77.5t-72.5 -26.5h-659l-72 -453h600q88 0 88 -69q0 -49 -27.5 -76t-72.5 -27h-615l-78 -475h644q90 0 90 -70q0 -49 -28 -75.5t-73 -26.5h-737q-125 0 -106 123zM551.5 1877q9.5 34 38 52.5t64.5 13 t61 -48.5l147 -237q20 -37 3 -66.5t-51 -36t-63 26.5l-178 227q-31 35 -21.5 69z" />
<glyph unicode="&#xc9;" horiz-adv-x="1206" d="M109 123l194 1216q14 104 121 105h741q90 0 90 -68q0 -51 -27.5 -77.5t-72.5 -26.5h-659l-72 -453h600q88 0 88 -69q0 -49 -27.5 -76t-72.5 -27h-615l-78 -475h644q90 0 90 -70q0 -49 -28 -75.5t-73 -26.5h-737q-125 0 -106 123zM817 1589.5q-14 28.5 10 61.5l191 252 q29 37 63.5 41t62 -16.5t34 -52.5t-26.5 -63l-223 -235q-31 -31 -64 -23.5t-47 36z" />
<glyph unicode="&#xca;" horiz-adv-x="1206" d="M109 123l194 1216q14 104 121 105h741q90 0 90 -68q0 -51 -27.5 -77.5t-72.5 -26.5h-659l-72 -453h600q88 0 88 -69q0 -49 -27.5 -76t-72.5 -27h-615l-78 -475h644q90 0 90 -70q0 -49 -28 -75.5t-73 -26.5h-737q-125 0 -106 123zM527.5 1580q-15.5 26 10.5 58l189 234 q59 72 139 72q41 0 69.5 -21.5t53.5 -60.5l135 -222q25 -39 5.5 -65.5t-56.5 -27.5t-66 36l-155 213l-215 -221q-29 -31 -61.5 -26t-48 31z" />
<glyph unicode="&#xcb;" horiz-adv-x="1206" d="M109 123l194 1216q14 104 121 105h741q90 0 90 -68q0 -51 -27.5 -77.5t-72.5 -26.5h-659l-72 -453h600q88 0 88 -69q0 -49 -27.5 -76t-72.5 -27h-615l-78 -475h644q90 0 90 -70q0 -49 -28 -75.5t-73 -26.5h-737q-125 0 -106 123zM569 1714q0 61 34 96t95 35q94 0 94 -84 q0 -61 -33 -97t-96 -36q-94 0 -94 86zM940 1714q0 61 32.5 96t94.5 35q96 0 96 -84q0 -61 -34 -97t-95 -36q-94 0 -94 86z" />
<glyph unicode="&#xcc;" horiz-adv-x="548" d="M106 111l199 1243q16 104 119 104q109 0 88 -125l-197 -1241q-18 -106 -116 -106q-55 0 -78 32.5t-15 92.5zM156.5 1877q9.5 34 38 52.5t64.5 13t61 -48.5l147 -237q20 -37 3 -66.5t-51 -36t-63 26.5l-178 227q-31 35 -21.5 69z" />
<glyph unicode="&#xcd;" horiz-adv-x="548" d="M106 111l199 1243q16 104 119 104q109 0 88 -125l-197 -1241q-18 -106 -116 -106q-55 0 -78 32.5t-15 92.5zM422 1589.5q-14 28.5 10 61.5l191 252q29 37 63.5 41t62 -16.5t34 -52.5t-26.5 -63l-223 -235q-31 -31 -64 -23.5t-47 36z" />
<glyph unicode="&#xce;" horiz-adv-x="548" d="M106 111l199 1243q16 104 119 104q109 0 88 -125l-197 -1241q-18 -106 -116 -106q-55 0 -78 32.5t-15 92.5zM132.5 1580q-15.5 26 10.5 58l189 234q59 72 139 72q41 0 69.5 -21.5t53.5 -60.5l135 -222q25 -39 5.5 -65.5t-56.5 -27.5t-66 36l-155 213l-215 -221 q-29 -31 -61.5 -26t-48 31z" />
<glyph unicode="&#xcf;" horiz-adv-x="548" d="M106 111l199 1243q16 104 119 104q109 0 88 -125l-197 -1241q-18 -106 -116 -106q-55 0 -78 32.5t-15 92.5zM174 1714q0 61 34 96t95 35q94 0 94 -84q0 -61 -33 -97t-96 -36q-94 0 -94 86zM545 1714q0 61 32.5 96t94.5 35q96 0 96 -84q0 -61 -34 -97t-95 -36 q-94 0 -94 86z" />
<glyph unicode="&#xd0;" horiz-adv-x="1538" d="M10 719q0 45 27 68.5t72 23.5h632q88 0 89 -63q0 -45 -26 -70t-73 -25h-633q-88 0 -88 66zM109 123l194 1216q16 104 121 105h336q336 0 518 -160t182 -450q0 -174 -50 -325t-151.5 -265.5t-256 -179t-363.5 -64.5h-426q-57 0 -85 31.5t-19 91.5zM330 178h313 q211 0 342 87t192.5 235.5t61.5 330.5q0 211 -120 323t-359 112h-258z" />
<glyph unicode="&#xd1;" horiz-adv-x="1521" d="M106 102l201 1266q14 90 99 90q41 0 62 -15.5t42 -49.5l618 -1063l164 1032q14 96 115 96q45 0 65.5 -30.5t12.5 -84.5l-201 -1265q-14 -92 -90 -92q-41 0 -65.5 16t-47.5 53l-618 1059l-164 -1032q-15 -96 -109 -96q-47 0 -69.5 30.5t-14.5 85.5zM499 1661 q33 115 100.5 170t159.5 55q55 0 104.5 -21.5t93.5 -50t86 -51t81 -22.5q49 0 86 27.5t55 82.5q18 49 68 47q27 -2 39 -20t4 -51q-33 -117 -101.5 -172.5t-160.5 -55.5q-57 0 -106.5 23t-92.5 51.5t-84 51t-82 22.5q-102 0 -141 -113q-19 -49 -68 -45q-25 2 -38 20.5 t-3 51.5z" />
<glyph unicode="&#xd2;" horiz-adv-x="1587" d="M150 606q0 246 88 439.5t254.5 305t400.5 111.5q188 0 326.5 -72.5t214 -212t75.5 -337.5q0 -248 -88 -441.5t-255 -305t-400 -111.5q-186 0 -324.5 72.5t-215 212t-76.5 339.5zM373 610q0 -225 105.5 -334.5t291.5 -109.5q166 0 281.5 87t175 238.5t59.5 344.5 q0 225 -106.5 333.5t-292.5 108.5q-166 0 -280.5 -86t-174 -237.5t-59.5 -344.5zM652.5 1877q9.5 34 38 52.5t64.5 13t61 -48.5l147 -237q20 -37 3 -66.5t-51 -36t-63 26.5l-178 227q-31 35 -21.5 69z" />
<glyph unicode="&#xd3;" horiz-adv-x="1587" d="M150 606q0 246 88 439.5t254.5 305t400.5 111.5q188 0 326.5 -72.5t214 -212t75.5 -337.5q0 -248 -88 -441.5t-255 -305t-400 -111.5q-186 0 -324.5 72.5t-215 212t-76.5 339.5zM373 610q0 -225 105.5 -334.5t291.5 -109.5q166 0 281.5 87t175 238.5t59.5 344.5 q0 225 -106.5 333.5t-292.5 108.5q-166 0 -280.5 -86t-174 -237.5t-59.5 -344.5zM918 1589.5q-14 28.5 10 61.5l191 252q29 37 63.5 41t62 -16.5t34 -52.5t-26.5 -63l-223 -235q-31 -31 -64 -23.5t-47 36z" />
<glyph unicode="&#xd4;" horiz-adv-x="1587" d="M150 606q0 246 88 439.5t254.5 305t400.5 111.5q188 0 326.5 -72.5t214 -212t75.5 -337.5q0 -248 -88 -441.5t-255 -305t-400 -111.5q-186 0 -324.5 72.5t-215 212t-76.5 339.5zM373 610q0 -225 105.5 -334.5t291.5 -109.5q166 0 281.5 87t175 238.5t59.5 344.5 q0 225 -106.5 333.5t-292.5 108.5q-166 0 -280.5 -86t-174 -237.5t-59.5 -344.5zM628.5 1580q-15.5 26 10.5 58l189 234q59 72 139 72q41 0 69.5 -21.5t53.5 -60.5l135 -222q25 -39 5.5 -65.5t-56.5 -27.5t-66 36l-155 213l-215 -221q-29 -31 -61.5 -26t-48 31z" />
<glyph unicode="&#xd5;" horiz-adv-x="1587" d="M150 606q0 246 88 439.5t254.5 305t400.5 111.5q188 0 326.5 -72.5t214 -212t75.5 -337.5q0 -248 -88 -441.5t-255 -305t-400 -111.5q-186 0 -324.5 72.5t-215 212t-76.5 339.5zM373 610q0 -225 105.5 -334.5t291.5 -109.5q166 0 281.5 87t175 238.5t59.5 344.5 q0 225 -106.5 333.5t-292.5 108.5q-166 0 -280.5 -86t-174 -237.5t-59.5 -344.5zM510 1661q33 115 100.5 170t159.5 55q55 0 104.5 -21.5t93.5 -50t86 -51t81 -22.5q49 0 86 27.5t55 82.5q18 49 68 47q27 -2 39 -20t4 -51q-33 -117 -101.5 -172.5t-160.5 -55.5 q-57 0 -106.5 23t-92.5 51.5t-84 51t-82 22.5q-102 0 -141 -113q-19 -49 -68 -45q-25 2 -38 20.5t-3 51.5z" />
<glyph unicode="&#xd6;" horiz-adv-x="1587" d="M150 606q0 246 88 439.5t254.5 305t400.5 111.5q188 0 326.5 -72.5t214 -212t75.5 -337.5q0 -248 -88 -441.5t-255 -305t-400 -111.5q-186 0 -324.5 72.5t-215 212t-76.5 339.5zM373 610q0 -225 105.5 -334.5t291.5 -109.5q166 0 281.5 87t175 238.5t59.5 344.5 q0 225 -106.5 333.5t-292.5 108.5q-166 0 -280.5 -86t-174 -237.5t-59.5 -344.5zM670 1714q0 61 34 96t95 35q94 0 94 -84q0 -61 -33 -97t-96 -36q-94 0 -94 86zM1041 1714q0 61 32.5 96t94.5 35q96 0 96 -84q0 -61 -34 -97t-95 -36q-94 0 -94 86z" />
<glyph unicode="&#xd7;" d="M134 197.5q-1 29.5 28 56.5l360 334l-299 325q-27 29 -22.5 60t27 51t53 20t59.5 -30l295 -322l358 328q31 29 60.5 25.5t50 -25t21.5 -52t-27 -55.5l-363 -331l303 -334q27 -29 23 -58.5t-26.5 -49t-53.5 -20.5t-57 32l-299 323l-357 -328q-31 -29 -61.5 -25.5t-51 25 t-21.5 51z" />
<glyph unicode="&#xd8;" horiz-adv-x="1587" d="M150 606q0 246 88 439.5t254.5 305t400.5 111.5q188 0 326.5 -72.5t214 -212t75.5 -337.5q0 -248 -88 -441.5t-255 -305t-400 -111.5q-186 0 -324.5 72.5t-215 212t-76.5 339.5zM212.5 -19.5q-6.5 29.5 18.5 62.5l119 158l65 90l705 950l67 92l117 156q25 33 55.5 35 t54 -15.5t30 -47t-18.5 -62.5l-117 -156l-65 -90l-705 -950l-67 -90l-121 -162q-23 -31 -52.5 -33t-54 15.5t-31 47zM373 610q0 -225 105.5 -334.5t291.5 -109.5q166 0 281.5 87t175 238.5t59.5 344.5q0 225 -106.5 333.5t-292.5 108.5q-166 0 -280.5 -86t-174 -237.5 t-59.5 -344.5z" />
<glyph unicode="&#xd9;" horiz-adv-x="1501" d="M178 618l117 742q14 98 117 98q53 0 76.5 -30.5t15.5 -86.5l-117 -741q-70 -434 318 -434q186 0 293.5 94t140.5 303l127 797q14 98 116 98q51 0 75 -30.5t16 -86.5l-123 -780q-45 -287 -203 -433t-455 -146q-182 0 -310 69.5t-183.5 210.5t-20.5 356zM631.5 1877 q9.5 34 38 52.5t64.5 13t61 -48.5l147 -237q20 -37 3 -66.5t-51 -36t-63 26.5l-178 227q-31 35 -21.5 69z" />
<glyph unicode="&#xda;" horiz-adv-x="1501" d="M178 618l117 742q14 98 117 98q53 0 76.5 -30.5t15.5 -86.5l-117 -741q-70 -434 318 -434q186 0 293.5 94t140.5 303l127 797q14 98 116 98q51 0 75 -30.5t16 -86.5l-123 -780q-45 -287 -203 -433t-455 -146q-182 0 -310 69.5t-183.5 210.5t-20.5 356zM897 1589.5 q-14 28.5 10 61.5l191 252q29 37 63.5 41t62 -16.5t34 -52.5t-26.5 -63l-223 -235q-31 -31 -64 -23.5t-47 36z" />
<glyph unicode="&#xdb;" horiz-adv-x="1501" d="M178 618l117 742q14 98 117 98q53 0 76.5 -30.5t15.5 -86.5l-117 -741q-70 -434 318 -434q186 0 293.5 94t140.5 303l127 797q14 98 116 98q51 0 75 -30.5t16 -86.5l-123 -780q-45 -287 -203 -433t-455 -146q-182 0 -310 69.5t-183.5 210.5t-20.5 356zM607.5 1580 q-15.5 26 10.5 58l189 234q59 72 139 72q41 0 69.5 -21.5t53.5 -60.5l135 -222q25 -39 5.5 -65.5t-56.5 -27.5t-66 36l-155 213l-215 -221q-29 -31 -61.5 -26t-48 31z" />
<glyph unicode="&#xdc;" horiz-adv-x="1501" d="M178 618l117 742q14 98 117 98q53 0 76.5 -30.5t15.5 -86.5l-117 -741q-70 -434 318 -434q186 0 293.5 94t140.5 303l127 797q14 98 116 98q51 0 75 -30.5t16 -86.5l-123 -780q-45 -287 -203 -433t-455 -146q-182 0 -310 69.5t-183.5 210.5t-20.5 356zM649 1714 q0 61 34 96t95 35q94 0 94 -84q0 -61 -33 -97t-96 -36q-94 0 -94 86zM1020 1714q0 61 32.5 96t94.5 35q96 0 96 -84q0 -61 -34 -97t-95 -36q-94 0 -94 86z" />
<glyph unicode="&#xdd;" horiz-adv-x="1241" d="M178 1412q25 46 88 46q39 0 62.5 -17.5t48.5 -60.5l289 -520l467 535q31 35 56 49t62 14q59 0 82 -49t-24 -102l-555 -631l-95 -586q-16 -104 -120 -104q-51 0 -73 32.5t-13 90.5l90 563l-355 635q-35 59 -10 105zM750 1589.5q-14 28.5 10 61.5l191 252q29 37 63.5 41 t62 -16.5t34 -52.5t-26.5 -63l-223 -235q-31 -31 -64 -23.5t-47 36z" />
<glyph unicode="&#xde;" horiz-adv-x="1316" d="M106 111l197 1235q16 106 123 106q49 0 73.5 -27.5t16.5 -70.5l-27 -162h330q229 0 352 -100.5t123 -292.5q0 -227 -141 -358.5t-412 -131.5h-391l-35 -219q-16 -104 -120 -104q-51 0 -74 32.5t-15 92.5zM377 479h377q164 0 250 78t86 225q0 125 -74 182.5t-217 57.5 h-336z" />
<glyph unicode="&#xdf;" horiz-adv-x="1294" d="M84 100l137 871q37 242 168 366.5t373 124.5q160 0 251 -75.5t91 -180.5q0 -96 -48 -160.5t-132 -132.5q-76 -61 -112 -99t-36 -89q0 -43 38 -77t140 -68q121 -43 186.5 -105.5t65.5 -169.5q0 -154 -111.5 -238.5t-289.5 -84.5q-94 0 -184.5 23.5t-153.5 64.5 q-37 23 -44 55.5t7 61t43 39t64 -10.5q121 -76 268 -76q100 0 154.5 37t54.5 109q0 47 -38 85t-147 74q-135 47 -191 107.5t-56 146.5q0 84 44 145.5t152 145.5q59 47 94 89t35 106q0 49 -36.5 86t-112.5 37q-276 0 -326 -312l-145 -911q-14 -98 -113 -98q-109 0 -90 114z " />
<glyph unicode="&#xe0;" horiz-adv-x="1099" d="M72 285q0 158 135 229.5t428 71.5h141l8 49q18 109 -30.5 166t-169.5 57q-72 0 -138.5 -14.5t-134.5 -48.5q-39 -20 -69.5 -9t-44 38.5t0 60.5t60.5 55q82 39 173 58.5t177 19.5q223 0 310.5 -122t56.5 -314l-78 -494q-16 -102 -113 -102q-45 0 -67.5 28.5t-14.5 85.5 l9 52q-51 -88 -134.5 -129t-175.5 -41q-88 0 -163.5 39.5t-120.5 108.5t-45 155zM276 297q0 -82 54.5 -125t130.5 -43q104 0 185 68.5t99 191.5l11 70h-103q-213 0 -295 -35t-82 -127zM342.5 1515.5q10.5 32.5 42 48t68.5 5.5t61 -58l164 -301q20 -39 2 -67.5t-52.5 -30.5 t-61.5 37l-205 293q-29 41 -18.5 73.5z" />
<glyph unicode="&#xe1;" horiz-adv-x="1099" d="M72 285q0 158 135 229.5t428 71.5h141l8 49q18 109 -30.5 166t-169.5 57q-72 0 -138.5 -14.5t-134.5 -48.5q-39 -20 -69.5 -9t-44 38.5t0 60.5t60.5 55q82 39 173 58.5t177 19.5q223 0 310.5 -122t56.5 -314l-78 -494q-16 -102 -113 -102q-45 0 -67.5 28.5t-14.5 85.5 l9 52q-51 -88 -134.5 -129t-175.5 -41q-88 0 -163.5 39.5t-120.5 108.5t-45 155zM276 297q0 -82 54.5 -125t130.5 -43q104 0 185 68.5t99 191.5l11 70h-103q-213 0 -295 -35t-82 -127zM623 1146q-14 28 8 64l211 320q27 41 61.5 46t62.5 -14.5t35 -53t-22 -66.5l-250 -301 q-27 -33 -59.5 -28t-46.5 33z" />
<glyph unicode="&#xe2;" horiz-adv-x="1099" d="M72 285q0 158 135 229.5t428 71.5h141l8 49q18 109 -30.5 166t-169.5 57q-72 0 -138.5 -14.5t-134.5 -48.5q-39 -20 -69.5 -9t-44 38.5t0 60.5t60.5 55q82 39 173 58.5t177 19.5q223 0 310.5 -122t56.5 -314l-78 -494q-16 -102 -113 -102q-45 0 -67.5 28.5t-14.5 85.5 l9 52q-51 -88 -134.5 -129t-175.5 -41q-88 0 -163.5 39.5t-120.5 108.5t-45 155zM276 297q0 -82 54.5 -125t130.5 -43q104 0 185 68.5t99 191.5l11 70h-103q-213 0 -295 -35t-82 -127zM365.5 1141.5q-17.5 25.5 7.5 62.5l190 293q49 78 125 78q78 0 115 -78l129 -293 q16 -41 -5.5 -65.5t-54 -25.5t-50.5 32l-144 274l-207 -276q-23 -33 -55.5 -30t-50 28.5z" />
<glyph unicode="&#xe3;" horiz-adv-x="1099" d="M72 285q0 158 135 229.5t428 71.5h141l8 49q18 109 -30.5 166t-169.5 57q-72 0 -138.5 -14.5t-134.5 -48.5q-39 -20 -69.5 -9t-44 38.5t0 60.5t60.5 55q82 39 173 58.5t177 19.5q223 0 310.5 -122t56.5 -314l-78 -494q-16 -102 -113 -102q-45 0 -67.5 28.5t-14.5 85.5 l9 52q-51 -88 -134.5 -129t-175.5 -41q-88 0 -163.5 39.5t-120.5 108.5t-45 155zM276 297q0 -82 54.5 -125t130.5 -43q104 0 185 68.5t99 191.5l11 70h-103q-213 0 -295 -35t-82 -127zM291 1264q25 113 88.5 173t149.5 60q51 0 87 -22.5t66.5 -51t60 -51t68.5 -22.5 q43 0 78 30.5t49 81.5q14 49 68 45q25 -2 38 -18t7 -47q-27 -111 -90.5 -171.5t-149.5 -60.5q-49 0 -86 21.5t-67.5 50.5t-61 51.5t-67.5 22.5q-43 0 -78 -31t-49 -82q-13 -47 -66 -45q-27 2 -40 19.5t-5 46.5z" />
<glyph unicode="&#xe4;" horiz-adv-x="1099" d="M72 285q0 158 135 229.5t428 71.5h141l8 49q18 109 -30.5 166t-169.5 57q-72 0 -138.5 -14.5t-134.5 -48.5q-39 -20 -69.5 -9t-44 38.5t0 60.5t60.5 55q82 39 173 58.5t177 19.5q223 0 310.5 -122t56.5 -314l-78 -494q-16 -102 -113 -102q-45 0 -67.5 28.5t-14.5 85.5 l9 52q-51 -88 -134.5 -129t-175.5 -41q-88 0 -163.5 39.5t-120.5 108.5t-45 155zM276 297q0 -82 54.5 -125t130.5 -43q104 0 185 68.5t99 191.5l11 70h-103q-213 0 -295 -35t-82 -127zM387 1315q0 59 34 95t93 36q96 0 97 -84q0 -61 -33 -97t-94 -36q-96 0 -97 86zM760 1315 q0 59 33 95t94 36q94 0 94 -84q0 -61 -33 -97t-94 -36q-94 0 -94 86z" />
<glyph unicode="&#xe5;" horiz-adv-x="1099" d="M72 285q0 158 135 229.5t428 71.5h141l8 49q18 109 -30.5 166t-169.5 57q-72 0 -138.5 -14.5t-134.5 -48.5q-39 -20 -69.5 -9t-44 38.5t0 60.5t60.5 55q82 39 173 58.5t177 19.5q223 0 310.5 -122t56.5 -314l-78 -494q-16 -102 -113 -102q-45 0 -67.5 28.5t-14.5 85.5 l9 52q-51 -88 -134.5 -129t-175.5 -41q-88 0 -163.5 39.5t-120.5 108.5t-45 155zM276 297q0 -82 54.5 -125t130.5 -43q104 0 185 68.5t99 191.5l11 70h-103q-213 0 -295 -35t-82 -127zM439 1362q0 102 72.5 173t176.5 71q106 0 178 -71t72 -173t-72 -173t-178 -71 q-104 0 -176.5 71t-72.5 173zM549 1362q0 -59 39 -100t100 -41t101.5 41t40.5 100q0 61 -40 101t-102 40q-61 0 -100 -40t-39 -101z" />
<glyph unicode="&#xe6;" horiz-adv-x="1767" d="M72 285q0 158 135 228.5t428 70.5h143l6 39q39 236 -200 235q-72 0 -138.5 -14.5t-134.5 -48.5q-39 -20 -69.5 -9t-44 38.5t0 60.5t60.5 55q82 39 173 58.5t177 19.5q242 0 316 -168q66 78 159 123t209 45q127 0 210 -44t129 -117t60.5 -159t2.5 -170l-4 -26 q-4 -45 -58 -45h-680q-10 -145 67 -230.5t224 -85.5q68 0 134.5 15.5t125.5 54.5q41 25 70 16.5t42 -35t4 -58.5t-44 -56q-72 -49 -168 -72.5t-180 -23.5q-150 0 -253.5 59t-152.5 168q-57 -117 -160.5 -172t-226.5 -55q-94 0 -177 34.5t-134 102t-51 166.5zM276 297 q0 -80 54.5 -123t130.5 -43q104 0 185 62.5t99 183.5l13 80h-105q-211 0 -294 -35t-83 -125zM973 584h555q8 121 -46.5 204.5t-191.5 83.5q-94 0 -158.5 -42t-103.5 -107.5t-55 -138.5z" />
<glyph unicode="&#xe7;" horiz-adv-x="956" d="M84 430q0 111 33 215.5t100.5 188.5t171 134t244.5 50q76 0 148.5 -19.5t125.5 -52.5q43 -25 53.5 -58.5t-3 -62t-42 -41t-63.5 8.5q-94 61 -209 61q-125 0 -200.5 -62.5t-110.5 -159.5t-35 -200q0 -131 62.5 -209t207.5 -78q43 0 93.5 13.5t101.5 44.5q31 16 57.5 6 t40.5 -38t7 -58.5t-44 -53.5q-55 -37 -133.5 -57t-148.5 -20q-231 0 -344 123.5t-113 324.5zM269 -334q-4 31 16.5 54.5t56.5 9.5q49 -16 109 -17q57 0 90 18.5t33 53.5q0 49 -70 49q-33 0 -67 -8q-35 -8 -47 4q-14 14 -7 47l54 164h118l-41 -123h29q74 0 118 -34t44 -97 q0 -84 -72 -134t-178 -50q-78 0 -143 20q-39 12 -43 43z" />
<glyph unicode="&#xe8;" horiz-adv-x="1099" d="M84 428q0 164 67.5 298t189.5 213t284 79t254 -73t125.5 -187.5t19.5 -241.5q-4 -39 -20.5 -51t-47.5 -12h-675q-10 -143 68.5 -227.5t228.5 -84.5q68 0 135 16.5t125 53.5q41 25 69.5 16.5t42 -35t4 -58.5t-44.5 -56q-72 -49 -167 -72.5t-179 -23.5q-221 0 -350 119.5 t-129 326.5zM299 580h561q10 123 -45 207.5t-192 84.5q-96 0 -163 -42t-106 -108.5t-55 -141.5zM360.5 1515.5q10.5 32.5 42 48t68.5 5.5t61 -58l164 -301q20 -39 2 -67.5t-52.5 -30.5t-61.5 37l-205 293q-29 41 -18.5 73.5z" />
<glyph unicode="&#xe9;" horiz-adv-x="1099" d="M84 428q0 164 67.5 298t189.5 213t284 79t254 -73t125.5 -187.5t19.5 -241.5q-4 -39 -20.5 -51t-47.5 -12h-675q-10 -143 68.5 -227.5t228.5 -84.5q68 0 135 16.5t125 53.5q41 25 69.5 16.5t42 -35t4 -58.5t-44.5 -56q-72 -49 -167 -72.5t-179 -23.5q-221 0 -350 119.5 t-129 326.5zM299 580h561q10 123 -45 207.5t-192 84.5q-96 0 -163 -42t-106 -108.5t-55 -141.5zM641 1146q-14 28 8 64l211 320q27 41 61.5 46t62.5 -14.5t35 -53t-22 -66.5l-250 -301q-27 -33 -59.5 -28t-46.5 33z" />
<glyph unicode="&#xea;" horiz-adv-x="1099" d="M84 428q0 164 67.5 298t189.5 213t284 79t254 -73t125.5 -187.5t19.5 -241.5q-4 -39 -20.5 -51t-47.5 -12h-675q-10 -143 68.5 -227.5t228.5 -84.5q68 0 135 16.5t125 53.5q41 25 69.5 16.5t42 -35t4 -58.5t-44.5 -56q-72 -49 -167 -72.5t-179 -23.5q-221 0 -350 119.5 t-129 326.5zM299 580h561q10 123 -45 207.5t-192 84.5q-96 0 -163 -42t-106 -108.5t-55 -141.5zM383.5 1141.5q-17.5 25.5 7.5 62.5l190 293q49 78 125 78q78 0 115 -78l129 -293q16 -41 -5.5 -65.5t-54 -25.5t-50.5 32l-144 274l-207 -276q-23 -33 -55.5 -30t-50 28.5z" />
<glyph unicode="&#xeb;" horiz-adv-x="1099" d="M84 428q0 164 67.5 298t189.5 213t284 79t254 -73t125.5 -187.5t19.5 -241.5q-4 -39 -20.5 -51t-47.5 -12h-675q-10 -143 68.5 -227.5t228.5 -84.5q68 0 135 16.5t125 53.5q41 25 69.5 16.5t42 -35t4 -58.5t-44.5 -56q-72 -49 -167 -72.5t-179 -23.5q-221 0 -350 119.5 t-129 326.5zM299 580h561q10 123 -45 207.5t-192 84.5q-96 0 -163 -42t-106 -108.5t-55 -141.5zM405 1315q0 59 34 95t93 36q96 0 97 -84q0 -61 -33 -97t-94 -36q-96 0 -97 86zM778 1315q0 59 33 95t94 36q94 0 94 -84q0 -61 -33 -97t-94 -36q-94 0 -94 86z" />
<glyph unicode="&#xec;" horiz-adv-x="497" d="M41.5 1515.5q10.5 32.5 42 48t68.5 5.5t61 -58l164 -301q20 -39 2 -67.5t-52.5 -30.5t-61.5 37l-205 293q-29 41 -18.5 73.5zM82 106l129 805q16 102 119 103q47 0 69.5 -32t14.5 -89l-129 -805q-17 -102 -119 -102q-47 0 -69.5 31.5t-14.5 88.5z" />
<glyph unicode="&#xed;" horiz-adv-x="497" d="M82 106l129 805q16 102 119 103q47 0 69.5 -32t14.5 -89l-129 -805q-17 -102 -119 -102q-47 0 -69.5 31.5t-14.5 88.5zM322 1146q-14 28 8 64l211 320q27 41 61.5 46t62.5 -14.5t35 -53t-22 -66.5l-250 -301q-27 -33 -59.5 -28t-46.5 33z" />
<glyph unicode="&#xee;" horiz-adv-x="497" d="M64.5 1141.5q-17.5 25.5 7.5 62.5l190 293q49 78 125 78q78 0 115 -78l129 -293q16 -41 -5.5 -65.5t-54 -25.5t-50.5 32l-144 274l-207 -276q-23 -33 -55.5 -30t-50 28.5zM82 106l129 805q16 102 119 103q47 0 69.5 -32t14.5 -89l-129 -805q-17 -102 -119 -102 q-47 0 -69.5 31.5t-14.5 88.5z" />
<glyph unicode="&#xef;" horiz-adv-x="497" d="M82 106l129 805q16 102 119 103q47 0 69.5 -32t14.5 -89l-129 -805q-17 -102 -119 -102q-47 0 -69.5 31.5t-14.5 88.5zM86 1315q0 59 34 95t93 36q96 0 97 -84q0 -61 -33 -97t-94 -36q-96 0 -97 86zM459 1315q0 59 33 95t94 36q94 0 94 -84q0 -61 -33 -97t-94 -36 q-94 0 -94 86z" />
<glyph unicode="&#xf0;" horiz-adv-x="1165" d="M78 389q0 158 67.5 278.5t183 188.5t261.5 68q102 0 185 -37t130 -117q-29 264 -217 420l-268 -117q-37 -16 -60.5 4.5t-22.5 52t38 48.5l200 86q-29 16 -62.5 29.5t-68.5 23.5q-37 12 -51 37.5t-7 52.5t33.5 41t67.5 2q76 -20 140.5 -48t120.5 -63l247 109 q39 16 63.5 -4.5t22.5 -52t-41 -48.5l-188 -81q127 -117 184.5 -276t57.5 -339q0 -135 -34 -255t-103.5 -213t-177.5 -145t-253 -52q-129 0 -230 50t-159.5 142t-58.5 215zM287 395q0 -119 68.5 -184.5t187.5 -65.5q135 0 227 96.5t92 270.5q0 119 -68.5 185.5t-187.5 66.5 q-135 0 -227 -96.5t-92 -272.5z" />
<glyph unicode="&#xf1;" horiz-adv-x="1179" d="M84 109l127 802q14 102 119 103q45 0 67.5 -29t12.5 -86l-11 -68q55 90 145.5 138.5t209.5 48.5q164 0 248.5 -101.5t52.5 -314.5l-80 -514q-16 -102 -119 -102q-49 0 -72.5 31.5t-13.5 88.5l78 492q41 254 -168 254q-137 0 -218 -85t-104 -228l-71 -451 q-15 -102 -119 -102q-47 0 -69.5 32.5t-14.5 90.5zM328 1264q25 113 88.5 173t149.5 60q51 0 87 -22.5t66.5 -51t60 -51t68.5 -22.5q43 0 78 30.5t49 81.5q14 49 68 45q25 -2 38 -18t7 -47q-27 -111 -90.5 -171.5t-149.5 -60.5q-49 0 -86 21.5t-67.5 50.5t-61 51.5 t-67.5 22.5q-43 0 -78 -31t-49 -82q-13 -47 -66 -45q-27 2 -40 19.5t-5 46.5z" />
<glyph unicode="&#xf2;" horiz-adv-x="1157" d="M84 426q0 174 69.5 307t191.5 209t278 76q211 0 330.5 -120t119.5 -325q0 -174 -69.5 -308t-191 -208.5t-277.5 -74.5q-211 0 -331 119.5t-120 324.5zM293 418q0 -135 65.5 -206t180.5 -71q104 0 176.5 59.5t110.5 159t38 220.5q0 135 -65.5 205.5t-180.5 70.5 q-104 0 -176.5 -58.5t-110.5 -157.5t-38 -222zM375.5 1515.5q10.5 32.5 42 48t68.5 5.5t61 -58l164 -301q20 -39 2 -67.5t-52.5 -30.5t-61.5 37l-205 293q-29 41 -18.5 73.5z" />
<glyph unicode="&#xf3;" horiz-adv-x="1157" d="M84 426q0 174 69.5 307t191.5 209t278 76q211 0 330.5 -120t119.5 -325q0 -174 -69.5 -308t-191 -208.5t-277.5 -74.5q-211 0 -331 119.5t-120 324.5zM293 418q0 -135 65.5 -206t180.5 -71q104 0 176.5 59.5t110.5 159t38 220.5q0 135 -65.5 205.5t-180.5 70.5 q-104 0 -176.5 -58.5t-110.5 -157.5t-38 -222zM656 1146q-14 28 8 64l211 320q27 41 61.5 46t62.5 -14.5t35 -53t-22 -66.5l-250 -301q-27 -33 -59.5 -28t-46.5 33z" />
<glyph unicode="&#xf4;" horiz-adv-x="1157" d="M84 426q0 174 69.5 307t191.5 209t278 76q211 0 330.5 -120t119.5 -325q0 -174 -69.5 -308t-191 -208.5t-277.5 -74.5q-211 0 -331 119.5t-120 324.5zM293 418q0 -135 65.5 -206t180.5 -71q104 0 176.5 59.5t110.5 159t38 220.5q0 135 -65.5 205.5t-180.5 70.5 q-104 0 -176.5 -58.5t-110.5 -157.5t-38 -222zM398.5 1141.5q-17.5 25.5 7.5 62.5l190 293q49 78 125 78q78 0 115 -78l129 -293q16 -41 -5.5 -65.5t-54 -25.5t-50.5 32l-144 274l-207 -276q-23 -33 -55.5 -30t-50 28.5z" />
<glyph unicode="&#xf5;" horiz-adv-x="1157" d="M84 426q0 174 69.5 307t191.5 209t278 76q211 0 330.5 -120t119.5 -325q0 -174 -69.5 -308t-191 -208.5t-277.5 -74.5q-211 0 -331 119.5t-120 324.5zM293 418q0 -135 65.5 -206t180.5 -71q104 0 176.5 59.5t110.5 159t38 220.5q0 135 -65.5 205.5t-180.5 70.5 q-104 0 -176.5 -58.5t-110.5 -157.5t-38 -222zM324 1264q25 113 88.5 173t149.5 60q51 0 87 -22.5t66.5 -51t60 -51t68.5 -22.5q43 0 78 30.5t49 81.5q14 49 68 45q25 -2 38 -18t7 -47q-27 -111 -90.5 -171.5t-149.5 -60.5q-49 0 -86 21.5t-67.5 50.5t-61 51.5t-67.5 22.5 q-43 0 -78 -31t-49 -82q-13 -47 -66 -45q-27 2 -40 19.5t-5 46.5z" />
<glyph unicode="&#xf6;" horiz-adv-x="1157" d="M84 426q0 174 69.5 307t191.5 209t278 76q211 0 330.5 -120t119.5 -325q0 -174 -69.5 -308t-191 -208.5t-277.5 -74.5q-211 0 -331 119.5t-120 324.5zM293 418q0 -135 65.5 -206t180.5 -71q104 0 176.5 59.5t110.5 159t38 220.5q0 135 -65.5 205.5t-180.5 70.5 q-104 0 -176.5 -58.5t-110.5 -157.5t-38 -222zM420 1315q0 59 34 95t93 36q96 0 97 -84q0 -61 -33 -97t-94 -36q-96 0 -97 86zM793 1315q0 59 33 95t94 36q94 0 94 -84q0 -61 -33 -97t-94 -36q-94 0 -94 86z" />
<glyph unicode="&#xf7;" d="M115 573q0 90 88 91h860q80 0 80 -62q0 -90 -88 -90h-860q-80 0 -80 61zM444 162q0 55 34 90t91 35q88 0 88 -84q0 -55 -31.5 -91t-88.5 -36q-45 0 -69 23.5t-24 62.5zM573 973q0 55 33 90t90 35q92 0 92 -84q0 -55 -33.5 -91t-90.5 -36q-43 0 -67 23.5t-24 62.5z" />
<glyph unicode="&#xf8;" horiz-adv-x="1157" d="M86 428q0 172 69.5 305t191.5 209t278 76q129 0 227 -47l59 80q25 33 57.5 25.5t48 -37t-10.5 -66.5l-54 -72q123 -121 123 -328q0 -174 -69.5 -308t-191.5 -208.5t-279 -74.5q-127 0 -224 45l-59 -80q-27 -33 -59.5 -27t-48 37t11.5 68l53 71q-123 121 -123 332z M276 418q0 -106 41 -174l437 594q-57 29 -140 28q-106 0 -182 -58t-116 -160.5t-40 -229.5zM408 160q57 -29 135 -29q109 0 184.5 59.5t114.5 162t39 231.5q0 102 -37 168z" />
<glyph unicode="&#xf9;" horiz-adv-x="1165" d="M125 399l82 519q14 96 115 96q49 0 73.5 -30t16.5 -85l-80 -500q-37 -252 164 -252q129 0 209.5 85t103.5 229l72 457q14 96 112 96q51 0 75 -31t15 -84l-129 -815q-14 -98 -112 -98q-102 0 -86 108l10 68q-117 -180 -344 -180q-162 0 -247 101t-50 316zM368.5 1517.5 q10.5 32.5 42 48t68.5 5.5t61 -58l164 -301q20 -39 2 -67.5t-52.5 -30.5t-61.5 37l-205 293q-29 41 -18.5 73.5z" />
<glyph unicode="&#xfa;" horiz-adv-x="1165" d="M125 399l82 519q14 96 115 96q49 0 73.5 -30t16.5 -85l-80 -500q-37 -252 164 -252q129 0 209.5 85t103.5 229l72 457q14 96 112 96q51 0 75 -31t15 -84l-129 -815q-14 -98 -112 -98q-102 0 -86 108l10 68q-117 -180 -344 -180q-162 0 -247 101t-50 316zM649 1148 q-14 28 8 64l211 320q27 41 61.5 46t62.5 -14.5t35 -53t-22 -66.5l-250 -301q-27 -33 -59.5 -28t-46.5 33z" />
<glyph unicode="&#xfb;" horiz-adv-x="1165" d="M125 399l82 519q14 96 115 96q49 0 73.5 -30t16.5 -85l-80 -500q-37 -252 164 -252q129 0 209.5 85t103.5 229l72 457q14 96 112 96q51 0 75 -31t15 -84l-129 -815q-14 -98 -112 -98q-102 0 -86 108l10 68q-117 -180 -344 -180q-162 0 -247 101t-50 316zM391.5 1143.5 q-17.5 25.5 7.5 62.5l190 293q49 78 125 78q78 0 115 -78l129 -293q16 -41 -5.5 -65.5t-54 -25.5t-50.5 32l-144 274l-207 -276q-23 -33 -55.5 -30t-50 28.5z" />
<glyph unicode="&#xfc;" horiz-adv-x="1165" d="M125 399l82 519q14 96 115 96q49 0 73.5 -30t16.5 -85l-80 -500q-37 -252 164 -252q129 0 209.5 85t103.5 229l72 457q14 96 112 96q51 0 75 -31t15 -84l-129 -815q-14 -98 -112 -98q-102 0 -86 108l10 68q-117 -180 -344 -180q-162 0 -247 101t-50 316zM413 1317 q0 59 34 95t93 36q96 0 97 -84q0 -61 -33 -97t-94 -36q-96 0 -97 86zM786 1317q0 59 33 95t94 36q94 0 94 -84q0 -61 -33 -97t-94 -36q-94 0 -94 86z" />
<glyph unicode="&#xfd;" horiz-adv-x="1064" d="M121 870q-16 61 10.5 102.5t83.5 41.5q45 0 66.5 -21.5t33.5 -72.5l168 -680l402 698q20 41 45.5 58.5t66.5 17.5q59 0 80 -41t-10 -94l-707 -1188q-23 -39 -47 -56.5t-65 -17.5q-59 0 -77.5 40t11.5 91l168 279zM580 1146q-14 28 8 64l211 320q27 41 61.5 46t62.5 -14.5 t35 -53t-22 -66.5l-250 -301q-27 -33 -59.5 -28t-46.5 33z" />
<glyph unicode="&#xfe;" horiz-adv-x="1210" d="M25 -264l256 1618q16 104 118 104q49 0 72 -29.5t14 -87.5l-77 -497q57 84 143 129t194 45q172 0 276.5 -116t104.5 -314q0 -166 -59 -304.5t-171 -220t-269 -81.5q-111 0 -198 49t-128 149l-74 -465q-16 -98 -116 -98q-49 0 -73 30.5t-13 88.5zM346 418 q0 -135 65.5 -206t182.5 -71q104 0 176 59.5t110 159t38 220.5q0 135 -65 205.5t-181 70.5q-104 0 -177 -58.5t-111 -157.5t-38 -222z" />
<glyph unicode="&#xff;" horiz-adv-x="1064" d="M121 870q-16 61 10.5 102.5t83.5 41.5q45 0 66.5 -21.5t33.5 -72.5l168 -680l402 698q20 41 45.5 58.5t66.5 17.5q59 0 80 -41t-10 -94l-707 -1188q-23 -39 -47 -56.5t-65 -17.5q-59 0 -77.5 40t11.5 91l168 279zM344 1315q0 59 34 95t93 36q96 0 97 -84q0 -61 -33 -97 t-94 -36q-96 0 -97 86zM717 1315q0 59 33 95t94 36q94 0 94 -84q0 -61 -33 -97t-94 -36q-94 0 -94 86z" />
<glyph unicode="&#x152;" horiz-adv-x="2152" d="M152 610q0 238 88 426.5t272 298t467 109.5h1128q92 0 93 -68q0 -51 -29 -77.5t-72 -26.5h-657l-72 -453h600q88 0 88 -69q0 -49 -27.5 -76t-72.5 -27h-615l-75 -475h641q90 0 90 -70q0 -49 -27.5 -75.5t-73.5 -26.5h-1048q-336 0 -517 161t-181 449zM373 612 q0 -211 119.5 -322.5t359.5 -111.5h213l174 1088h-264q-215 0 -347 -87t-193.5 -235.5t-61.5 -331.5z" />
<glyph unicode="&#x153;" horiz-adv-x="1867" d="M84 428q0 172 69.5 305t191.5 209t278 76q133 0 227 -56.5t141 -158.5q68 96 170.5 155.5t235.5 59.5q160 0 253 -72t126.5 -186.5t15.5 -243.5q-6 -39 -21.5 -51t-46.5 -12h-663q-10 -143 65.5 -226.5t221.5 -83.5q68 0 132 14.5t126 53.5q41 23 70.5 14.5t42 -34 t4 -57.5t-45.5 -56q-70 -49 -165 -72.5t-177 -23.5q-141 0 -242.5 55t-154.5 156q-68 -96 -171 -153.5t-232 -57.5q-211 0 -331 119.5t-120 326.5zM293 418q0 -135 65.5 -205t180.5 -70q104 0 176.5 58.5t110.5 158t38 220.5q0 135 -65.5 205.5t-180.5 70.5 q-104 0 -176.5 -58.5t-110.5 -157.5t-38 -222zM1079 580h549q12 123 -42 207.5t-191 84.5q-94 0 -159 -42t-103.5 -108.5t-53.5 -141.5z" />
<glyph unicode="&#x178;" horiz-adv-x="1241" d="M178 1412q25 46 88 46q39 0 62.5 -17.5t48.5 -60.5l289 -520l467 535q31 35 56 49t62 14q59 0 82 -49t-24 -102l-555 -631l-95 -586q-16 -104 -120 -104q-51 0 -73 32.5t-13 90.5l90 563l-355 635q-35 59 -10 105zM502 1714q0 61 34 96t95 35q94 0 94 -84q0 -61 -33 -97 t-96 -36q-94 0 -94 86zM873 1714q0 61 32.5 96t94.5 35q96 0 96 -84q0 -61 -34 -97t-95 -36q-94 0 -94 86z" />
<glyph unicode="&#x2c6;" horiz-adv-x="1024" d="M326.5 1141.5q-17.5 25.5 7.5 62.5l190 293q49 78 125 78q78 0 115 -78l129 -293q16 -41 -5.5 -65.5t-54 -25.5t-50.5 32l-144 274l-207 -276q-23 -33 -55.5 -30t-50 28.5z" />
<glyph unicode="&#x2dc;" horiz-adv-x="1024" d="M252 1264q25 113 88.5 173t149.5 60q51 0 87 -22.5t66.5 -51t60 -51t68.5 -22.5q43 0 78 30.5t49 81.5q14 49 68 45q25 -2 38 -18t7 -47q-27 -111 -90.5 -171.5t-149.5 -60.5q-49 0 -86 21.5t-67.5 50.5t-61 51.5t-67.5 22.5q-43 0 -78 -31t-49 -82q-13 -47 -66 -45 q-27 2 -40 19.5t-5 46.5z" />
<glyph unicode="&#x2000;" horiz-adv-x="1018" />
<glyph unicode="&#x2001;" horiz-adv-x="2036" />
<glyph unicode="&#x2002;" horiz-adv-x="1018" />
<glyph unicode="&#x2003;" horiz-adv-x="2036" />
<glyph unicode="&#x2004;" horiz-adv-x="678" />
<glyph unicode="&#x2005;" horiz-adv-x="509" />
<glyph unicode="&#x2006;" horiz-adv-x="339" />
<glyph unicode="&#x2007;" horiz-adv-x="339" />
<glyph unicode="&#x2008;" horiz-adv-x="254" />
<glyph unicode="&#x2009;" horiz-adv-x="407" />
<glyph unicode="&#x200a;" horiz-adv-x="113" />
<glyph unicode="&#x2010;" horiz-adv-x="878" d="M137 530q0 41 23.5 70t68.5 29h441q90 0 90 -68q0 -41 -24.5 -69.5t-69.5 -28.5h-439q-90 0 -90 67z" />
<glyph unicode="&#x2011;" horiz-adv-x="878" d="M137 530q0 41 23.5 70t68.5 29h441q90 0 90 -68q0 -41 -24.5 -69.5t-69.5 -28.5h-439q-90 0 -90 67z" />
<glyph unicode="&#x2012;" horiz-adv-x="878" d="M137 530q0 41 23.5 70t68.5 29h441q90 0 90 -68q0 -41 -24.5 -69.5t-69.5 -28.5h-439q-90 0 -90 67z" />
<glyph unicode="&#x2013;" horiz-adv-x="1024" d="M-10 539q0 31 22.5 51t57.5 20h907q74 0 74 -55q0 -33 -25 -53.5t-55 -20.5h-910q-72 0 -71 58z" />
<glyph unicode="&#x2014;" horiz-adv-x="2048" d="M-8 539q0 31 22.5 51t57.5 20h1925q74 0 74 -55q0 -33 -24 -53.5t-54 -20.5h-1927q-74 0 -74 58z" />
<glyph unicode="&#x2018;" horiz-adv-x="485" d="M211 1102q0 178 143 315q37 35 70 26t42 -40t-26 -66q-63 -63 -84 -123q49 -8 79 -41.5t30 -85.5q0 -57 -35 -93t-94 -36t-92 39t-33 105z" />
<glyph unicode="&#x2019;" horiz-adv-x="485" d="M244 1323q0 57 34.5 93t94.5 36q61 0 94 -39t33 -104q-1 -177 -146 -318q-35 -33 -67.5 -24.5t-41.5 40t25 66.5q63 61 84 121q-51 8 -80.5 42t-29.5 87z" />
<glyph unicode="&#x201a;" horiz-adv-x="485" d="M54 -194.5q-9 30.5 26 65.5q63 63 84 123q-49 8 -79 42t-30 87q0 57 35 93t94 36t92 -40t33 -103q0 -179 -143 -318q-37 -35 -70 -25.5t-42 40z" />
<glyph unicode="&#x201c;" horiz-adv-x="851" d="M211 1102q0 178 143 315q37 35 70 26t42 -40t-26 -66q-63 -63 -84 -123q49 -8 79 -41.5t30 -85.5q0 -57 -35 -93t-94 -36t-92 39t-33 105zM578 1102q0 178 143 315q37 35 70 26t42 -40t-26 -66q-63 -63 -84 -123q49 -8 79 -41.5t30 -85.5q0 -57 -35 -93t-94 -36t-92 39 t-33 105z" />
<glyph unicode="&#x201d;" horiz-adv-x="851" d="M244 1323q0 57 34.5 93t94.5 36q61 0 94 -39t33 -104q-1 -177 -146 -318q-35 -33 -67.5 -24.5t-41.5 40t25 66.5q63 61 84 121q-51 8 -80.5 42t-29.5 87zM611 1323q0 57 34.5 93t94.5 36q61 0 94 -39t33 -104q-1 -177 -146 -318q-35 -33 -67.5 -24.5t-41.5 40t25 66.5 q63 61 84 121q-51 8 -80.5 42t-29.5 87z" />
<glyph unicode="&#x201e;" horiz-adv-x="851" d="M54 -194.5q-9 30.5 26 65.5q63 63 84 123q-49 8 -79 42t-30 87q0 57 35 93t94 36t92 -40t33 -103q0 -179 -143 -318q-37 -35 -70 -25.5t-42 40zM421 -194.5q-9 30.5 26 65.5q63 63 84 123q-49 8 -79 42t-30 87q0 57 35 93t94 36t92 -40t33 -103q0 -179 -143 -318 q-37 -35 -70 -25.5t-42 40z" />
<glyph unicode="&#x2022;" horiz-adv-x="1073" d="M172 543q0 94 48 177t132 135t191 52q98 0 183 -47t136 -130t51 -187q0 -100 -50 -182t-134 -131.5t-186 -49.5q-100 0 -184.5 48t-135.5 130t-51 185z" />
<glyph unicode="&#x2026;" horiz-adv-x="1460" d="M55 123q0 57 36 93t95 36t94 -36t35 -93t-35 -94t-94 -37t-95 37t-36 94zM542 123q0 57 36 93t95 36t94 -36t35 -93t-35 -94t-94 -37t-95 37t-36 94zM1030 123q0 57 36 93t95 36t94 -36t35 -93t-35 -94t-94 -37t-95 37t-36 94z" />
<glyph unicode="&#x202f;" horiz-adv-x="407" />
<glyph unicode="&#x2039;" horiz-adv-x="557" d="M117 542q4 36 30 70l211 273q20 27 49 33t58 -9q33 -16 37 -51t-29 -82l-168 -239l82 -248q26 -80 -37 -107q-39 -14 -70.5 -0.5t-48.5 49.5l-104 244q-14 31 -10 67z" />
<glyph unicode="&#x203a;" horiz-adv-x="557" d="M69.5 232q-3.5 36 30.5 83l166 240l-82 246q-25 82 37 106q39 14 71 1t48 -50l104 -242q14 -33 10.5 -68.5t-30.5 -70.5l-211 -272q-20 -27 -49 -33t-58 8q-33 16 -36.5 52z" />
<glyph unicode="&#x205f;" horiz-adv-x="509" />
<glyph unicode="&#x20ac;" d="M31 555q0 39 22.5 61.5t63.5 22.5h127q2 86 14 168h-113q-37 0 -51 16.5t-14 40.5q0 41 25.5 66.5t64.5 25.5h119q63 231 211.5 368.5t369.5 137.5q92 0 192.5 -36.5t168.5 -104.5q31 -29 33 -62.5t-16.5 -60.5t-47.5 -34t-61 18q-61 51 -127 74.5t-135 23.5 q-141 0 -231.5 -91t-135.5 -233h283q39 0 57 -18t18 -45q0 -35 -23.5 -60.5t-66.5 -25.5h-307q-12 -80 -14 -168h282q43 0 61.5 -17.5t18.5 -43.5q0 -39 -23.5 -64t-66.5 -25h-258q23 -164 110 -244.5t197 -80.5q68 0 126.5 17.5t117.5 62.5q37 25 66.5 17.5t44 -34 t9.5 -59.5t-38 -62q-68 -66 -161 -96t-189 -30q-125 0 -231.5 56t-178.5 169.5t-92 283.5h-146q-76 0 -75 66z" />
<glyph unicode="&#x2122;" horiz-adv-x="1921" d="M145 1358q0 39 24 62.5t69 23.5h579q84 0 84 -68q0 -41 -25.5 -64.5t-68.5 -23.5h-203l-100 -629q-15 -90 -105 -90q-98 0 -82 109l99 610h-189q-82 0 -82 70zM903 666l113 710q4 18 19.5 49t68.5 31q41 0 59.5 -19.5t28.5 -45.5l188 -480l349 490q12 16 33.5 35.5 t62.5 19.5q90 0 73 -96l-112 -711q-12 -80 -96 -80q-80 0 -64 97l74 467l-283 -396q-8 -12 -22.5 -22t-38.5 -10q-27 0 -40 13t-20 27l-153 392l-78 -488q-12 -80 -94 -80q-84 0 -68 97z" />
<glyph unicode="&#x25fc;" horiz-adv-x="1013" d="M0 0v1014h1014v-1014h-1014z" />
</font>
</defs>
</svg>
