<svg width="145" height="158" viewBox="0 0 145 158" fill="none" xmlns="http://www.w3.org/2000/svg">
<path d="M65.6999 64.2519C62.284 69.4939 56.9651 69.8258 51.5064 67.5221C48.9545 66.4446 46.7562 64.6194 44.9977 62.5102C43.5897 60.8216 43.4381 58.458 42.0502 56.9069C42.0421 56.9125 42.0338 56.9203 42.0257 56.9259C41.7893 56.6319 41.2948 56.5967 41.0496 57.055C39.8658 59.2663 41.8415 62.2161 43.1167 64.012C45.1287 66.8453 48.2777 68.8183 51.4237 70.1511C57.312 72.6451 64.7838 71.5957 67.7346 65.386C68.3064 64.1833 66.4277 63.1358 65.6999 64.2519Z" fill="white"/>
<path d="M55.9298 44.632C54.8147 45.033 54.2554 47.1093 53.8619 48.1074C53.265 49.6173 52.6852 51.5058 53.1204 53.1276C53.3344 53.9263 54.3633 53.9449 54.554 53.1189C54.8922 51.663 55.2984 50.2968 55.9074 48.9257C56.3285 47.9747 57.586 46.5244 57.3819 45.4543C57.2485 44.7577 56.5919 44.3956 55.9298 44.632Z" fill="white"/>
<path d="M51.3167 40.8976C47.6831 42.7678 45.3032 48.9357 46.6305 52.7699C46.8618 53.4372 47.8195 53.2087 47.9197 52.5886C48.2351 50.64 48.3117 48.8925 49.1175 47.0407C49.9295 45.1789 51.4852 44.1129 52.5956 42.5132C53.1657 41.6918 52.3071 40.3871 51.3167 40.8976Z" fill="white"/>
<path d="M112.273 82.0585C115.343 85.7212 118.613 90.4386 117.112 95.4266C116.08 98.8556 112.453 101.425 109.831 103.604C105.893 106.877 101.915 111.847 97.0389 114.026C96.9961 113.813 96.8896 113.614 96.707 113.472C94.0211 111.4 92.3152 107.465 90.5716 104.64C88.4825 101.256 86.242 97.9384 84.0188 94.6416C82.1523 91.8732 75.9231 82.9052 71.047 84.4299C74.2963 76.6594 81.5103 70.5985 89.9658 69.8499C98.8714 69.0599 106.959 75.7198 112.273 82.0585ZM90.3318 114.963C90.1891 114.94 90.0775 114.974 89.9962 115.039C84.6727 109.179 80.0816 102.783 75.6952 96.1915C74.3581 94.1824 73.103 92.134 72.0282 89.9715C68.9706 83.8193 77.5013 89.9236 79.0891 91.7128C82.863 95.9663 85.8245 101.214 88.8333 106.028C90.3098 108.39 92.1528 113.187 94.9441 114.764C93.4936 115.133 91.9646 115.241 90.3318 114.963ZM65.321 79.1099C64.3879 78.5909 63.4396 78.093 62.5496 77.503C63.4126 77.2962 64.271 77.0346 65.1231 76.7462C65.2086 77.2132 65.5591 77.6927 66.0522 77.9429C67.5608 78.7106 68.9371 79.086 69.8107 80.6661C69.8992 80.8258 70.0732 80.9058 70.2489 80.9304C70.0321 81.3397 69.8187 81.7497 69.6267 82.1652C68.4526 80.8484 66.8632 79.9683 65.321 79.1099ZM43.6506 69.6069C37.6194 62.8629 36.5629 52.6426 39.2904 44.3019C43.2515 32.1926 57.2139 24.6112 69.3607 28.6867C73.0187 29.9137 75.7439 31.8327 77.699 34.1995C77.5069 34.6739 77.9274 35.2969 78.46 35.2075C86.1151 46.1392 79.0704 65.2352 69.096 73.0349C68.7847 73.2776 68.6582 73.581 68.6538 73.8825C59.836 77.4272 50.4495 77.2101 43.6506 69.6069ZM68.8895 77.5073C68.3789 77.1132 67.8123 76.7946 67.268 76.4517C67.1055 76.3499 66.9536 76.2384 66.8053 76.1179C67.65 75.7728 68.4867 75.4017 69.3054 74.9763C69.6717 75.1884 70.1374 75.2201 70.5745 74.8857C72.1435 73.6815 73.6085 72.3179 74.9563 70.8331C75.105 70.947 75.2634 71.0516 75.4315 71.1446C76.0311 71.4764 76.659 71.7541 77.2816 72.0393C77.3992 72.093 77.5237 72.1332 77.6443 72.1814C74.8636 74.3368 72.4841 77.0627 70.7543 80.0315C70.5855 78.9579 69.7462 78.1695 68.8895 77.5073ZM82.6324 69.1905C81.3346 69.7687 80.0775 70.4618 78.8887 71.275C78.5167 70.9834 78.1274 70.7128 77.694 70.4496C77.2698 70.1909 76.847 69.9305 76.4389 69.648C76.3407 69.5807 76.2518 69.5032 76.1609 69.4286C76.7345 68.7255 77.2738 67.9941 77.7944 67.2485C78.4455 67.5803 79.3988 67.7122 79.9361 67.8962C80.9147 68.2318 81.7939 68.652 82.6324 69.1905ZM132.31 103.762C131.367 103.366 130.482 102.869 129.655 102.27C129.128 101.922 128.637 101.521 128.153 101.113C129.35 101.475 130.732 102.352 132.31 103.762ZM54.4205 150.143C55.996 149.725 57.761 149.925 59.3177 150.442C58.1891 151.248 56.5587 151.151 54.4205 150.143ZM28.9892 93.5319C28.3927 92.5668 27.0837 93.5556 27.3875 94.4904C27.4067 94.5474 27.4301 94.5973 27.4498 94.653C25.7629 94.419 24.0254 93.208 23.9267 91.3727C24.2003 90.9979 24.4778 90.632 24.9117 90.3956C25.6408 89.9991 26.4874 89.9381 27.2978 90.0114C28.5416 90.124 30.6416 90.9052 30.5971 92.4529C30.5707 93.3778 30.1409 93.9793 29.5241 94.3288C29.3429 94.0679 29.1611 93.8104 28.9892 93.5319ZM101.545 36.9532C101.61 36.9202 101.674 36.8811 101.735 36.828C102.531 36.0978 102.785 35.0438 103.696 34.3823C104.335 33.9181 105.17 33.8599 105.918 34.0009C107.939 34.3797 107.574 36.5579 106.78 37.8653C106.338 38.5908 105.716 39.0265 105.027 39.1768C104.71 38.3222 103.625 38.2878 103.114 38.8894C103.013 38.8401 102.91 38.7968 102.811 38.7352C102.133 38.3151 101.654 37.6583 101.545 36.9532ZM101.505 59.7418C103.609 54.4313 105.653 47.2201 105.288 41.1875C106.537 40.9857 107.712 40.2761 108.51 39.1455C110.274 36.6467 110.063 33.0263 106.848 31.908C105.561 31.4617 104.109 31.6138 102.907 32.2288C101.614 32.8899 100.087 34.4997 100.232 36.0671C100.066 36.4253 99.9574 36.8125 99.9636 37.1999C99.9822 38.3894 100.703 39.3682 101.569 40.1179C101.981 40.4755 102.434 40.7169 102.898 40.9036C103.02 45.3144 102.023 49.9268 101.026 54.1532C100.306 57.2057 99.3025 60.2945 97.7676 63.041C96.8987 64.5982 96.0027 65.4246 94.8166 65.854C94.7694 65.8248 94.7368 65.783 94.6759 65.766C93.8025 65.5263 93.1581 65.8823 92.3726 66.2577C92.2858 66.2613 92.2083 66.2693 92.119 66.2718C91.9776 66.2756 91.8733 66.3708 91.8035 66.49C90.9224 66.8213 89.983 67.0093 89.135 67.4326C89.0829 67.4581 89.0721 67.5016 89.0338 67.5348C87.3738 67.6678 85.7422 68.0168 84.1678 68.5778C83.3977 67.5926 82.22 66.9471 81.124 66.4012C80.5549 66.1183 79.7671 65.6589 78.9982 65.4175C84.8489 55.8512 86.3091 43.5981 80.0251 34.3256C81.1173 33.579 82.1229 32.6793 83.0585 31.7759C84.0281 30.839 85.4047 29.63 85.5378 28.2105C85.6123 27.41 84.4339 26.7753 83.9681 27.5825C82.7415 29.7134 80.9882 31.4812 79.0681 33.0146C78.5233 32.3197 77.9439 31.6397 77.3035 30.9868C77.9503 30.0915 78.5938 29.2008 79.3092 28.3528C80.1894 27.3102 81.4854 26.4333 82.0203 25.1664C82.3011 24.5016 81.5939 23.8889 80.9616 24.1335C79.7635 24.5985 78.9147 25.8789 78.1136 26.8434C77.3481 27.7634 76.6584 28.7548 76.0345 29.7822C75.244 29.0833 74.4192 28.4905 73.577 27.9556C74.2021 26.9361 74.7092 25.8694 75.163 24.7593C75.6342 23.6038 76.5349 22.1698 76.5801 20.9183C76.6026 20.3157 75.9376 19.831 75.4112 20.2637C74.5057 21.0091 74.2256 22.3823 73.8548 23.4506C73.4084 24.7352 72.9254 26.0029 72.3131 27.2167C71.3542 26.7087 70.3762 26.2741 69.3742 25.9454C69.7447 25.9559 70.1172 25.6891 70.0997 25.1772C70.0546 23.8866 70.0796 22.6617 70.2934 21.3863C70.4931 20.1937 71.0825 19.0023 70.9391 17.7843C70.8637 17.1469 70.0598 17.0057 69.6851 17.4638C68.8791 18.4462 68.7689 19.9558 68.597 21.1743C68.4042 22.5427 68.3642 24.0222 68.6948 25.3681C68.7478 25.5851 68.8617 25.7381 69.0012 25.8329C67.0057 25.2245 64.9454 24.9361 62.8682 24.9567C62.8684 24.9377 62.8758 24.9229 62.8748 24.9034C62.809 23.5964 62.8094 22.3189 62.9714 21.0184C63.1407 19.6517 63.6264 18.3534 63.8234 16.9948C63.9214 16.3231 62.9631 15.9074 62.5773 16.4964C61.0859 18.7701 60.9994 22.389 61.5978 24.988C60.0495 25.0921 58.501 25.3381 56.975 25.7397C56.9375 24.2829 56.9528 22.8486 57.0534 21.3852C57.1503 19.9697 57.4977 18.2333 56.8182 16.937C56.5827 16.488 55.8051 16.3639 55.6259 16.9517C55.171 18.447 55.5189 20.2113 55.505 21.769C55.4935 23.2047 55.5477 24.6586 55.9125 26.0499C54.6964 26.4238 53.4952 26.8743 52.3278 27.4133C51.8052 26.4808 52.1169 20.3275 51.9473 19.5612C51.8075 18.9304 50.8473 18.6795 50.6054 19.396C49.9972 21.2083 50.4252 23.5618 50.6806 25.412C50.7808 26.1365 50.9537 27.2346 51.5251 27.8025C46.4746 30.3165 42.0499 34.2666 39.2658 38.8457C33.3897 48.5102 34.4734 61.3239 41.0839 70.2935C45.9634 76.914 53.1069 78.9878 60.2322 77.9545C60.3314 78.9391 62.3688 79.9007 62.936 80.1864C65.0018 81.2263 67.2123 82.0885 69.077 83.4836C69.0224 83.6237 68.9572 83.761 68.9053 83.8999C68.6498 84.597 69.0869 85.1362 69.6307 85.3059C66.0012 89.5733 78.4829 104.565 85.5631 112.162C85.5514 112.169 85.5397 112.169 85.5281 112.176C80.7436 115.135 69.5943 121.662 68.4797 112.538C67.9918 108.55 67.6171 104.552 67.0825 100.57C66.2257 94.2028 65.685 83.8488 60.4336 79.2464C60.2524 79.0886 59.9499 79.072 59.7378 79.1661C59.6272 79.2145 59.5165 79.263 59.4059 79.3115C59.3712 79.3263 59.341 79.3613 59.3387 79.4002C59.2661 80.5068 60.2545 81.3511 60.7138 82.3224C62.0214 85.0895 62.6045 88.1829 63.1941 91.164C63.2068 91.228 63.2152 91.2917 63.2279 91.3556C55.3966 100.631 39.3751 105.546 30.8213 95.9796C31.5963 95.4499 32.2261 94.6303 32.579 93.4467C33.4186 90.6332 30.8153 88.5253 28.3359 87.9802C26.0835 87.4839 21.4296 88.3299 21.8923 91.5716C21.9303 91.837 22.1114 92.0633 22.341 92.1993C22.5242 94.7911 25.562 96.7991 28.3357 96.7355C34.8686 109.386 56.3058 103.128 63.5338 93.1053C64.5833 98.973 65.1982 104.926 65.8314 110.848C65.8579 111.096 65.8817 111.375 65.9066 111.666C59.7267 111.027 58.8239 119.025 58.9953 124.225C59.1705 129.529 60.2611 134.794 61.1038 140.019C61.4214 141.99 61.7165 143.91 61.495 145.904C61.2569 146.639 61.0183 147.373 60.7801 148.108C60.7354 148.264 60.6724 148.386 60.6202 148.53C58.0366 147.535 49.7719 146.729 50.9639 151.383C52.5706 157.661 60.4074 153.967 62.2828 150.224C65.0492 144.705 63.2498 139.111 62.2993 133.313C61.3904 127.771 58.393 114.429 66.0634 113.382C66.36 116.128 67.0569 119.362 69.7934 119.783C75.5664 120.671 82.4254 117.121 87.0238 114.05C87.0996 113.999 87.1352 113.937 87.1922 113.881C88.5226 115.256 89.5136 116.212 89.9177 116.532C90.2622 116.806 90.7175 116.507 90.7726 116.152C92.7997 117.025 94.8151 117.025 96.7861 116.472C98.2149 125.642 107.387 136.951 115.691 126.941C119.858 121.918 120.428 113.943 122.122 107.883C122.477 106.615 123.013 105.437 123.546 104.239C123.938 103.066 124.448 102.214 125.066 101.664C127.277 104.182 131.372 107.024 134.038 106.277C135.616 105.834 136.883 104.071 136.483 102.327C135.689 98.858 133.274 97.4024 129.875 96.7603C122.721 95.4079 119.895 106.519 118.725 111.381C117.426 116.768 116.426 123.247 112.162 127.208C105.594 133.31 99.7048 121.578 98.0123 116.043C103.581 113.831 108.718 107.582 112.607 104.353C119.989 98.2256 121.786 92.0562 116.459 83.769C111.587 76.1927 103.996 69.8781 95.1292 68.0067C98.0924 67.0209 100.711 61.7463 101.505 59.7418Z" fill="white"/>
<path d="M109.31 93.5325C109.021 95.8091 106.867 98.2249 104.964 99.3401C103.502 100.197 101.609 100.285 99.9727 100.12C97.6649 99.8875 97.2269 98.7621 96.7692 97.0017C99.9351 94.1577 102.713 90.8501 106.407 88.7047C106.445 88.7528 106.479 88.8046 106.529 88.847C108.233 90.2668 109.626 91.0324 109.31 93.5325ZM94.0905 94.0431C94.2444 92.4391 95.7445 90.9784 96.8209 89.9201C98.9724 87.8029 101.507 86.1174 103.867 84.2393C104.485 85.0572 105.096 85.8793 105.703 86.7064C101.422 89.0818 98.2476 92.8107 94.5555 95.9822C94.2632 95.403 94.0167 94.8106 94.0905 94.0431ZM108.149 87.5202C108.321 87.1783 108.312 86.7626 108.068 86.4015C107.062 84.9149 105.938 83.5223 104.89 82.0671C104.558 81.6059 103.822 81.5397 103.396 81.899C99.9596 84.7968 95.8987 87.1518 93.2383 90.859C91.9458 92.6596 91.4281 96.1825 93.2873 97.6578C93.3734 98.4136 94.2592 99.0749 95.0467 98.4588C95.1397 98.3864 95.2259 98.3053 95.3182 98.2311C95.4208 99.4939 96.2746 100.721 97.4498 101.326C100.012 102.647 103.21 102.444 105.79 101.268C110.438 99.1455 114.581 89.5361 108.149 87.5202Z" fill="white"/>
</svg>
