<svg width="210" height="56" viewBox="0 0 210 56" fill="none" xmlns="http://www.w3.org/2000/svg">
<path d="M10.9923 54.5437C11.1946 54.724 11.2958 54.9251 11.2958 55.147C11.2958 55.3412 11.2091 55.5215 11.0356 55.6879C10.8766 55.8405 10.6887 55.9168 10.4719 55.9168C10.284 55.9168 10.0889 55.8336 9.88654 55.6671L1.77784 48.8641V55.0638C1.77784 55.3273 1.69835 55.5423 1.53935 55.7087C1.38036 55.8613 1.16355 55.9376 0.888921 55.9376C0.614295 55.9376 0.397485 55.8613 0.238491 55.7087C0.079497 55.5423 0 55.3273 0 55.0638V41.9362C0 41.6727 0.079497 41.4646 0.238491 41.3121C0.397485 41.1456 0.614295 41.0624 0.888921 41.0624C1.16355 41.0624 1.38036 41.1456 1.53935 41.3121C1.69835 41.4646 1.77784 41.6727 1.77784 41.9362V47.9071L9.51796 41.3121C9.67696 41.1595 9.86486 41.0832 10.0817 41.0832C10.2985 41.0832 10.4864 41.1664 10.6454 41.3329C10.8044 41.4854 10.8839 41.6588 10.8839 41.853C10.8839 42.061 10.7899 42.2552 10.602 42.4355L3.59905 48.344L10.9923 54.5437Z" fill="white"/>
<path d="M18.8393 55.9376C18.5646 55.9376 18.3478 55.8613 18.1888 55.7087C18.0298 55.5423 17.9503 55.3273 17.9503 55.0638V41.9362C17.9503 41.6727 18.0298 41.4646 18.1888 41.3121C18.3478 41.1456 18.5646 41.0624 18.8393 41.0624C19.1139 41.0624 19.3307 41.1456 19.4897 41.3121C19.6487 41.4646 19.7282 41.6727 19.7282 41.9362V55.0638C19.7282 55.3273 19.6487 55.5423 19.4897 55.7087C19.3307 55.8613 19.1139 55.9376 18.8393 55.9376Z" fill="white"/>
<path d="M39.2597 41.0624C39.5199 41.0624 39.7223 41.1456 39.8668 41.3121C40.0113 41.4646 40.0836 41.6727 40.0836 41.9362V55.0638C40.0836 55.3273 40.0041 55.5423 39.8451 55.7087C39.7006 55.8613 39.491 55.9376 39.2164 55.9376C38.9417 55.9376 38.7032 55.8197 38.5009 55.5839L29.5033 44.0374V55.0638C29.5033 55.3273 29.4238 55.5423 29.2648 55.7087C29.1202 55.8613 28.9179 55.9376 28.6577 55.9376C28.3975 55.9376 28.1952 55.8613 28.0506 55.7087C27.9061 55.5423 27.8338 55.3273 27.8338 55.0638V41.9362C27.8338 41.6727 27.9061 41.4646 28.0506 41.3121C28.2096 41.1456 28.4265 41.0624 28.7011 41.0624C28.9902 41.0624 29.2359 41.1803 29.4382 41.4161L38.4142 52.9626V41.9362C38.4142 41.6727 38.4864 41.4646 38.631 41.3121C38.79 41.1456 38.9995 41.0624 39.2597 41.0624Z" fill="white"/>
<path d="M49.1085 55.8336C48.8339 55.8336 48.6098 55.7573 48.4364 55.6047C48.2774 55.4521 48.1979 55.251 48.1979 55.0014V41.9986C48.1979 41.749 48.2774 41.5479 48.4364 41.3953C48.6098 41.2427 48.8339 41.1664 49.1085 41.1664H53.3363C55.779 41.1664 57.6653 41.8044 58.995 43.0804C60.3393 44.3426 61.0114 46.1456 61.0114 48.4896C61.0114 50.8336 60.3393 52.6435 58.995 53.9196C57.6508 55.1956 55.7646 55.8336 53.3363 55.8336H49.1085ZM53.2279 54.3773C57.1883 54.3773 59.1685 52.4147 59.1685 48.4896C59.1685 44.5784 57.1883 42.6227 53.2279 42.6227H49.9757V54.3773H53.2279Z" fill="white"/>
<path d="M69.4725 55.8336C69.1979 55.8336 68.9739 55.7573 68.8004 55.6047C68.6414 55.4521 68.5619 55.251 68.5619 55.0014V41.9986C68.5619 41.749 68.6414 41.5479 68.8004 41.3953C68.9739 41.2427 69.1979 41.1664 69.4725 41.1664H77.5812C77.8414 41.1664 78.0438 41.2288 78.1883 41.3537C78.3328 41.4785 78.4051 41.6519 78.4051 41.8738C78.4051 42.0957 78.3328 42.2691 78.1883 42.3939C78.0438 42.5187 77.8414 42.5811 77.5812 42.5811H70.3181V47.6782H77.1476C77.4078 47.6782 77.6102 47.7406 77.7547 47.8655C77.8992 47.9903 77.9715 48.1637 77.9715 48.3856C77.9715 48.6075 77.8992 48.7809 77.7547 48.9057C77.6102 49.0305 77.4078 49.0929 77.1476 49.0929H70.3181V54.4189H77.5812C77.8414 54.4189 78.0438 54.4813 78.1883 54.6061C78.3328 54.7171 78.4051 54.8904 78.4051 55.1262C78.4051 55.3481 78.3328 55.5215 78.1883 55.6463C78.0438 55.7712 77.8414 55.8336 77.5812 55.8336H69.4725Z" fill="white"/>
<path d="M97.1815 54.7725C97.2827 54.9251 97.3333 55.0846 97.3333 55.251C97.3333 55.4591 97.2466 55.6325 97.0731 55.7712C96.9141 55.896 96.7262 55.9584 96.5094 55.9584C96.177 55.9584 95.9168 55.8197 95.7289 55.5423L92.8237 51.1318C92.4479 50.5631 92.0576 50.1748 91.6529 49.9667C91.2482 49.7448 90.6989 49.6338 90.0051 49.6338H87.2733V55.0638C87.2733 55.3273 87.1938 55.5423 87.0348 55.7087C86.8758 55.8613 86.6663 55.9376 86.4061 55.9376C86.1315 55.9376 85.9146 55.8613 85.7557 55.7087C85.5967 55.5423 85.5172 55.3273 85.5172 55.0638V41.9986C85.5172 41.749 85.5967 41.5479 85.7557 41.3953C85.9291 41.2427 86.1531 41.1664 86.4278 41.1664H91.8047C93.4669 41.1664 94.7316 41.5201 95.5988 42.2275C96.4805 42.9348 96.9214 43.975 96.9214 45.3481C96.9214 46.5132 96.5672 47.4494 95.859 48.1567C95.1652 48.8641 94.1679 49.294 92.867 49.4466C93.2284 49.5576 93.5536 49.7379 93.8427 49.9875C94.1318 50.2372 94.4208 50.5839 94.7099 51.0277L97.1815 54.7725ZM91.6529 48.2191C92.8381 48.2191 93.7198 47.9834 94.298 47.5118C94.8906 47.0402 95.1869 46.3259 95.1869 45.3689C95.1869 44.4258 94.8978 43.7254 94.3197 43.2677C93.7415 42.81 92.8526 42.5811 91.6529 42.5811H87.2733V48.2191H91.6529Z" fill="white"/>
<path d="M115.972 48.1983C116.189 48.1983 116.362 48.2607 116.492 48.3856C116.637 48.5104 116.709 48.6838 116.709 48.9057V54.086C116.709 54.4189 116.651 54.6685 116.535 54.835C116.434 55.0014 116.239 55.1331 115.95 55.2302C115.372 55.466 114.671 55.6533 113.847 55.792C113.023 55.9307 112.199 56 111.375 56C109.858 56 108.55 55.7018 107.451 55.1054C106.353 54.509 105.507 53.6491 104.914 52.5257C104.336 51.4022 104.047 50.0569 104.047 48.4896C104.047 46.9501 104.336 45.6186 104.914 44.4951C105.493 43.3717 106.324 42.5118 107.408 41.9154C108.492 41.3051 109.764 41 111.224 41C112.235 41 113.175 41.1526 114.042 41.4577C114.909 41.749 115.639 42.172 116.232 42.7268C116.478 42.9626 116.6 43.2053 116.6 43.4549C116.6 43.6491 116.543 43.8225 116.427 43.975C116.311 44.1137 116.167 44.1831 115.993 44.1831C115.82 44.1831 115.618 44.0999 115.386 43.9334C114.635 43.3786 113.955 42.9972 113.348 42.7892C112.741 42.5673 112.04 42.4563 111.245 42.4563C109.525 42.4563 108.203 42.9764 107.278 44.0166C106.367 45.0569 105.912 46.5479 105.912 48.4896C105.912 50.473 106.374 51.9847 107.299 53.025C108.239 54.0513 109.612 54.5645 111.419 54.5645C112.763 54.5645 113.984 54.3703 115.083 53.982V49.5298H111.917C111.672 49.5298 111.477 49.4674 111.332 49.3426C111.187 49.2178 111.115 49.0583 111.115 48.8641C111.115 48.656 111.187 48.4965 111.332 48.3856C111.477 48.2607 111.672 48.1983 111.917 48.1983H115.972Z" fill="white"/>
<path d="M137.797 54.8558C137.854 54.9667 137.883 55.0846 137.883 55.2094C137.883 55.4175 137.797 55.5908 137.623 55.7295C137.464 55.8682 137.269 55.9376 137.038 55.9376C136.676 55.9376 136.423 55.7712 136.279 55.4383L134.739 52.068H126.566L125.005 55.4383C124.86 55.7712 124.607 55.9376 124.246 55.9376C124.015 55.9376 123.812 55.8682 123.639 55.7295C123.465 55.577 123.379 55.3967 123.379 55.1886C123.379 55.0777 123.408 54.9667 123.465 54.8558L129.666 41.6241C129.753 41.43 129.883 41.2843 130.056 41.1872C130.23 41.0902 130.418 41.0416 130.62 41.0416C130.837 41.0416 131.032 41.0971 131.205 41.208C131.379 41.3051 131.509 41.4438 131.596 41.6241L137.797 54.8558ZM127.216 50.6533H134.089L130.642 43.1845L127.216 50.6533Z" fill="white"/>
<path d="M156.389 54.7725C156.49 54.9251 156.541 55.0846 156.541 55.251C156.541 55.4591 156.454 55.6325 156.281 55.7712C156.122 55.896 155.934 55.9584 155.717 55.9584C155.385 55.9584 155.125 55.8197 154.937 55.5423L152.031 51.1318C151.656 50.5631 151.265 50.1748 150.861 49.9667C150.456 49.7448 149.907 49.6338 149.213 49.6338H146.481V55.0638C146.481 55.3273 146.402 55.5423 146.243 55.7087C146.084 55.8613 145.874 55.9376 145.614 55.9376C145.339 55.9376 145.122 55.8613 144.963 55.7087C144.804 55.5423 144.725 55.3273 144.725 55.0638V41.9986C144.725 41.749 144.804 41.5479 144.963 41.3953C145.137 41.2427 145.361 41.1664 145.636 41.1664H151.012C152.675 41.1664 153.939 41.5201 154.807 42.2275C155.688 42.9348 156.129 43.975 156.129 45.3481C156.129 46.5132 155.775 47.4494 155.067 48.1567C154.373 48.8641 153.376 49.294 152.075 49.4466C152.436 49.5576 152.761 49.7379 153.05 49.9875C153.34 50.2372 153.629 50.5839 153.918 51.0277L156.389 54.7725ZM150.861 48.2191C152.046 48.2191 152.928 47.9834 153.506 47.5118C154.098 47.0402 154.395 46.3259 154.395 45.3689C154.395 44.4258 154.106 43.7254 153.527 43.2677C152.949 42.81 152.06 42.5811 150.861 42.5811H146.481V48.2191H150.861Z" fill="white"/>
<path d="M168.097 55.9376C167.823 55.9376 167.599 55.8613 167.425 55.7087C167.266 55.5423 167.187 55.3273 167.187 55.0638V42.6227H162.525C162.265 42.6227 162.063 42.5603 161.918 42.4355C161.774 42.3107 161.702 42.1304 161.702 41.8946C161.702 41.6588 161.774 41.4785 161.918 41.3537C162.063 41.2288 162.265 41.1664 162.525 41.1664H173.648C173.908 41.1664 174.11 41.2288 174.255 41.3537C174.399 41.4785 174.472 41.6588 174.472 41.8946C174.472 42.1304 174.399 42.3107 174.255 42.4355C174.11 42.5603 173.908 42.6227 173.648 42.6227H168.986V55.0638C168.986 55.3273 168.907 55.5423 168.748 55.7087C168.589 55.8613 168.372 55.9376 168.097 55.9376Z" fill="white"/>
<path d="M181.706 55.8336C181.431 55.8336 181.207 55.7573 181.034 55.6047C180.875 55.4521 180.795 55.251 180.795 55.0014V41.9986C180.795 41.749 180.875 41.5479 181.034 41.3953C181.207 41.2427 181.431 41.1664 181.706 41.1664H189.814C190.074 41.1664 190.277 41.2288 190.421 41.3537C190.566 41.4785 190.638 41.6519 190.638 41.8738C190.638 42.0957 190.566 42.2691 190.421 42.3939C190.277 42.5187 190.074 42.5811 189.814 42.5811H182.551V47.6782H189.381C189.641 47.6782 189.843 47.7406 189.988 47.8655C190.132 47.9903 190.205 48.1637 190.205 48.3856C190.205 48.6075 190.132 48.7809 189.988 48.9057C189.843 49.0305 189.641 49.0929 189.381 49.0929H182.551V54.4189H189.814C190.074 54.4189 190.277 54.4813 190.421 54.6061C190.566 54.7171 190.638 54.8904 190.638 55.1262C190.638 55.3481 190.566 55.5215 190.421 55.6463C190.277 55.7712 190.074 55.8336 189.814 55.8336H181.706Z" fill="white"/>
<path d="M209.176 41.0624C209.436 41.0624 209.639 41.1456 209.783 41.3121C209.928 41.4646 210 41.6727 210 41.9362V55.0638C210 55.3273 209.921 55.5423 209.762 55.7087C209.617 55.8613 209.407 55.9376 209.133 55.9376C208.858 55.9376 208.62 55.8197 208.417 55.5839L199.42 44.0374V55.0638C199.42 55.3273 199.34 55.5423 199.181 55.7087C199.037 55.8613 198.834 55.9376 198.574 55.9376C198.314 55.9376 198.112 55.8613 197.967 55.7087C197.823 55.5423 197.75 55.3273 197.75 55.0638V41.9362C197.75 41.6727 197.823 41.4646 197.967 41.3121C198.126 41.1456 198.343 41.0624 198.617 41.0624C198.907 41.0624 199.152 41.1803 199.355 41.4161L208.331 52.9626V41.9362C208.331 41.6727 208.403 41.4646 208.547 41.3121C208.706 41.1456 208.916 41.0624 209.176 41.0624Z" fill="white"/>
<path d="M3.27249 31.7322C2.22649 31.7322 1.41957 31.4496 0.851744 30.8842C0.283915 30.3189 0 29.5156 0 28.4742V3.5258C0 2.48442 0.283915 1.68108 0.851744 1.11576C1.41957 0.550441 2.22649 0.267782 3.27249 0.267782H12.283C15.7199 0.267782 18.6786 0.892608 21.1591 2.14226C23.6396 3.39191 25.5374 5.192 26.8523 7.54254C28.1673 9.89307 28.8248 12.7048 28.8248 15.9777C28.8248 19.2506 28.1673 22.0772 26.8523 24.4575C25.5673 26.808 23.6845 28.6081 21.2039 29.8577C18.7234 31.1074 15.7498 31.7322 12.283 31.7322H3.27249ZM11.7899 26.1088C18.5142 26.1088 21.8764 22.7318 21.8764 15.9777C21.8764 9.25337 18.5142 5.89121 11.7899 5.89121H6.99326V26.1088H11.7899Z" fill="white"/>
<path d="M39.9286 32C38.8528 32 38.001 31.6876 37.3734 31.0628C36.7458 30.4379 36.432 29.59 36.432 28.5188V3.48117C36.432 2.43979 36.7458 1.60669 37.3734 0.981869C38.001 0.357043 38.8528 0.0446297 39.9286 0.0446297C41.0045 0.0446297 41.8563 0.357043 42.4839 0.981869C43.1115 1.60669 43.4253 2.43979 43.4253 3.48117V28.5188C43.4253 29.59 43.1115 30.4379 42.4839 31.0628C41.8563 31.6876 41.0045 32 39.9286 32Z" fill="white"/>
<path d="M74.8008 1.87448C75.0697 1.24965 75.4582 0.78847 75.9663 0.490934C76.4744 0.163645 77.0422 0 77.6698 0C78.5664 0 79.3733 0.297536 80.0905 0.892607C80.8078 1.48768 81.1664 2.21664 81.1664 3.0795C81.1664 3.5258 81.0618 3.97211 80.8526 4.41841L68.7489 29.8577C68.4201 30.5421 67.927 31.0776 67.2695 31.4644C66.6121 31.8215 65.8948 32 65.1178 32C64.3407 32 63.6235 31.8215 62.966 31.4644C62.3085 31.0776 61.8154 30.5421 61.4867 29.8577L49.3829 4.41841C49.1737 4.00186 49.0691 3.57043 49.0691 3.12413C49.0691 2.23152 49.4427 1.48768 50.1898 0.892607C50.937 0.297536 51.7738 0 52.7002 0C53.3278 0 53.8957 0.163645 54.4037 0.490934C54.9417 0.78847 55.3451 1.24965 55.6141 1.87448L65.2074 22.7615L74.8008 1.87448Z" fill="white"/>
<path d="M90.2908 32C89.2149 32 88.3632 31.6876 87.7356 31.0628C87.108 30.4379 86.7942 29.59 86.7942 28.5188V3.48117C86.7942 2.43979 87.108 1.60669 87.7356 0.981869C88.3632 0.357043 89.2149 0.0446297 90.2908 0.0446297C91.3667 0.0446297 92.2184 0.357043 92.846 0.981869C93.4736 1.60669 93.7874 2.43979 93.7874 3.48117V28.5188C93.7874 29.59 93.4736 30.4379 92.846 31.0628C92.2184 31.6876 91.3667 32 90.2908 32Z" fill="white"/>
<path d="M126.418 0.0446297C127.404 0.0446297 128.196 0.371919 128.794 1.0265C129.422 1.65132 129.735 2.46955 129.735 3.48117V28.5188C129.735 29.5602 129.422 30.4082 128.794 31.0628C128.196 31.6876 127.404 32 126.418 32C125.342 32 124.476 31.6132 123.818 30.8396L108.8 11.6932V28.5188C108.8 29.5602 108.502 30.4082 107.904 31.0628C107.336 31.6876 106.559 32 105.573 32C104.587 32 103.795 31.6876 103.197 31.0628C102.599 30.4082 102.3 29.5602 102.3 28.5188V3.48117C102.3 2.46955 102.599 1.65132 103.197 1.0265C103.824 0.371919 104.631 0.0446297 105.618 0.0446297C106.723 0.0446297 107.575 0.431427 108.173 1.20502L123.19 20.2176V3.48117C123.19 2.46955 123.489 1.65132 124.087 1.0265C124.685 0.371919 125.462 0.0446297 126.418 0.0446297Z" fill="white"/>
<path d="M141.747 32C140.671 32 139.82 31.6876 139.192 31.0628C138.565 30.4379 138.251 29.59 138.251 28.5188V3.48117C138.251 2.43979 138.565 1.60669 139.192 0.981869C139.82 0.357043 140.671 0.0446297 141.747 0.0446297C142.823 0.0446297 143.675 0.357043 144.303 0.981869C144.93 1.60669 145.244 2.43979 145.244 3.48117V28.5188C145.244 29.59 144.93 30.4379 144.303 31.0628C143.675 31.6876 142.823 32 141.747 32Z" fill="white"/>
<path d="M164.561 31.9554C163.515 31.9554 162.663 31.643 162.005 31.0181C161.378 30.3933 161.064 29.5602 161.064 28.5188V5.93585H153.802C151.59 5.93585 150.484 4.98373 150.484 3.0795C150.484 1.20502 151.59 0.267782 153.802 0.267782H175.319C177.531 0.267782 178.637 1.20502 178.637 3.0795C178.637 4.98373 177.531 5.93585 175.319 5.93585H168.057V28.5188C168.057 29.5602 167.743 30.3933 167.116 31.0181C166.488 31.643 165.636 31.9554 164.561 31.9554Z" fill="white"/>
<path d="M204.396 1.16039C205.054 0.386796 205.831 0 206.728 0C207.564 0 208.311 0.32729 208.969 0.981869C209.656 1.60669 210 2.33566 210 3.16876C210 3.9126 209.716 4.61181 209.148 5.26639L199.331 16.8703V28.5188C199.331 29.6495 199.002 30.5123 198.345 31.1074C197.687 31.7025 196.865 32 195.879 32C194.833 32 193.981 31.7025 193.324 31.1074C192.666 30.5123 192.338 29.6495 192.338 28.5188V16.8703L182.61 5.26639C182.042 4.67131 181.758 3.97211 181.758 3.16876C181.758 2.33566 182.072 1.60669 182.699 0.981869C183.357 0.32729 184.104 0 184.941 0C185.837 0 186.614 0.386796 187.272 1.16039L195.834 11.5593L204.396 1.16039Z" fill="white"/>
</svg>
