<svg width="140" height="161" viewBox="0 0 140 161" fill="none" xmlns="http://www.w3.org/2000/svg">
<path d="M107.382 52.423C106.445 53.74 104.322 53.5969 103.188 52.6596C103.105 52.4614 103.029 52.2608 103 52.0381C102.911 51.3526 103.189 50.7886 103.62 50.2701C104.518 49.1898 106.228 48.5909 107.49 48.8254C107.881 48.8975 108.167 49.1789 108.215 49.4022C108.42 50.3655 107.925 51.66 107.382 52.423ZM97.0825 89.8036C103.89 93.4064 111.224 96.2718 116.756 101.737C111.333 103.868 105.814 105.733 100.353 107.761C100.327 107.727 100.301 107.687 100.275 107.654C99.7724 107.004 98.7314 107.515 98.9324 108.286C98.8388 108.321 98.7449 108.355 98.6514 108.39C92.4909 110.727 86.8765 114.372 80.8496 117.038C79.1171 117.804 71.612 121.599 71.5988 118.183C71.5815 113.382 71.7399 108.588 72.0063 103.795C72.3256 98.0407 72.1891 92.1812 72.8442 86.4555C76.3176 84.7922 79.4202 82.6393 81.7962 80.1225C86.9615 83.2884 91.7114 86.9614 97.0825 89.8036ZM102.465 121.784C102.834 124.456 102.912 127.193 102.632 129.873C101.84 137.46 96.4207 134.224 93.3414 131.854C91.8475 130.705 90.3545 129.163 88.784 127.679C89.532 123.995 90.7247 119.438 90.1918 115.859C90.4215 115.739 90.6524 115.62 90.8822 115.499C93.8564 113.935 96.9039 112.589 99.9846 111.335C101.107 114.742 101.967 118.183 102.465 121.784ZM51.1036 86.2328C32.7336 82.5769 36.4865 63.5397 45.2954 52.7672C45.3688 52.7161 45.4469 52.6889 45.5157 52.6213C53.4876 44.7116 69.4459 34.5209 80.6577 41.7433C92.5674 49.4173 88.4717 67.5739 81.1971 76.5548C78.773 79.5481 75.7552 81.8546 72.4162 83.5359C72.2306 83.5274 72.046 83.5945 71.9132 83.7858C65.5343 86.8413 58.0265 87.611 51.1036 86.2328ZM70.8325 35.732C69.2719 30.5601 67.2775 25.5446 65.3468 20.503C67.3269 21.6274 69.5707 22.6089 71.2071 21.4164C73.4058 19.8125 73.3034 17.6108 73.2692 15.3588C73.7849 17.1462 74.6388 18.6846 76.4784 19.0025C79.6737 19.5541 82.0671 16.2638 84.2567 13.7752C83.9718 21.7855 78.4093 28.864 76.7892 36.5588C74.8878 36.0959 72.8815 35.997 70.8261 36.1801C70.8676 36.0477 70.8834 35.9014 70.8325 35.732ZM37.2311 98.1799C36.7647 98.8831 35.9709 99.0578 35.18 98.9431C34.5701 98.8559 34.0366 98.604 33.5831 98.2577C33.7471 98.0623 33.8591 97.8188 33.861 97.5439C33.8652 96.8213 33.6102 96.2774 33.9704 95.599C34.1974 95.171 34.7711 94.9633 35.2025 94.8368C36.1649 94.5528 37.3927 94.916 37.7313 95.9085C37.9686 96.6037 37.6101 97.6081 37.2311 98.1799ZM35.1479 72.8281C34.9935 72.9118 34.8472 73.0374 34.7182 73.2144C32.2918 76.545 30.5836 80.3582 28.4004 83.8461C28.0042 84.479 21.8852 92.0609 22.2827 85.9326C22.4477 83.3894 23.6965 80.5435 25.1225 78.4454C25.7523 77.5191 25.1851 76.216 23.9811 76.3003C22.2934 76.4171 20.6959 76.513 19.0837 76.2319C20.3213 74.5376 21.8265 73.2047 23.5396 71.8784C24.1464 71.4076 24.3499 70.2588 23.5969 69.7871C21.1612 68.2605 18.3876 67.0245 16.8118 64.6664C23.094 65.0165 28.8414 67.7261 34.9455 69.1629C34.9056 70.3907 34.9687 71.6162 35.1479 72.8281ZM109.415 46.9775C107.288 45.4185 103.966 46.4593 102.19 48.0811C101.121 49.0567 100.427 50.3199 100.405 51.7881C100.383 53.35 101.332 55.5887 102.917 56.1223C103.605 56.3547 104.198 55.9745 104.316 55.3702C104.71 55.4676 105.117 55.5225 105.53 55.5316C107.555 66.3018 105.541 80.789 93.063 83.5584C93.0106 83.5706 92.9672 83.5944 92.9217 83.6157C89.8743 81.7015 86.86 79.7396 83.7485 77.8698C92.3851 66.9626 94.1126 51.4109 83.8256 40.6371C82.4119 39.1566 80.8399 38.0837 79.1571 37.3513C82.9611 29.9662 87.9243 19.0296 86.7805 10.6469C86.6462 9.66349 85.5235 9.07018 84.6787 9.69142C82.9543 10.9609 81.59 12.6277 80.1566 14.2048C75.8325 18.9631 75.6278 12.1265 74.4901 9.20002C74.1593 8.34705 72.8379 7.9922 72.2655 8.83691C71.1985 10.4104 70.8103 11.9232 70.8124 13.8487C70.8143 15.5728 71.7695 20.3494 67.8335 18.7879C66.2941 18.1774 64.9293 17.1124 63.4041 16.4409C62.3873 15.9932 61.2391 17.0078 61.6574 18.0733C64.067 24.2122 66.7142 30.2556 69.4973 36.2329C69.5147 36.2703 69.5415 36.2914 69.5622 36.3243C59.6078 37.7484 48.7969 45.3917 43.3217 50.838C42.8934 51.2623 42.8717 51.7354 43.0501 52.1387C38.4757 56.3074 35.6407 61.9437 35.0543 67.6704C28.5501 64.7991 21.7663 61.8764 14.5507 61.9814C13.642 61.9935 13.1978 62.998 13.4317 63.7608C14.551 67.4045 17.4698 69.1441 20.5027 70.9641C18.6386 72.5592 17.051 74.268 15.784 76.4919C15.4512 77.0753 15.8021 78.0171 16.4387 78.2368C18.2383 78.8568 19.9652 79.0242 21.7588 79.0165C19.5903 83.1963 17.5822 89.8614 22.8769 91.1221C28.7012 92.5097 33.1836 81.07 35.9703 76.1921C37.103 79.5501 39.1694 82.6905 42.3625 85.2818C49.7449 91.2722 60.9402 91.1791 70.2343 87.5815C69.5616 90.1523 69.5994 92.8734 69.5905 95.7008C69.5891 96.1577 69.561 96.616 69.5541 97.0729C64.2392 100.512 61.1024 105.34 54.1847 106.444C47.611 107.492 42.9956 103.688 38.7129 99.4538C39.5391 98.4635 39.9939 97.1111 39.8169 95.7559C39.5101 93.4112 37.0038 92.2999 34.8716 92.7143C33.835 92.9168 32.8757 93.5682 32.2331 94.4167C32.0638 94.0292 31.4133 93.9508 31.1885 94.408C29.8082 97.2047 31.9395 100.011 34.6587 100.783C35.562 101.04 36.3986 100.934 37.1409 100.625C39.7762 105.57 45.6061 108.932 51.2039 109.016C59.1822 109.136 64.5548 104.944 69.4911 99.4171C69.2624 106.723 68.5648 114.033 68.5671 121.362C68.568 122.216 69.4527 122.791 70.2258 122.746C76.6569 122.375 82.4268 119.844 88.0686 116.959C87.7281 118.133 87.6237 119.468 87.4235 120.397C87.0524 122.121 86.7221 123.853 86.3842 125.582C85.8943 125.197 85.3981 124.828 84.8852 124.504C84.6934 124.025 84.1709 123.795 83.6494 123.814C82.2749 123.146 80.8089 122.768 79.208 122.9C75.6185 123.196 73.0981 131.26 76.7849 132.776C80.3803 134.254 83.2185 131.133 84.3873 127.84C84.842 128.172 85.2837 128.522 85.7172 128.886C85.2769 131.137 84.8345 133.388 84.3236 135.625C83.1454 140.788 80.4178 147.667 74.3398 141.244C73.1909 140.029 72.1105 138.751 70.9525 137.544C69.092 135.606 66.8442 133.035 64.2805 131.516C64.08 131.23 63.7665 131.088 63.425 131.077C62.8527 130.801 62.2711 130.563 61.6704 130.421C56.1885 129.133 53.1994 136.324 56.872 140.062C60.3275 143.58 63.3458 139.07 64.2759 135.193C65.265 135.96 66.1842 136.831 67.0856 137.687C68.9976 139.503 70.6699 141.549 72.4722 143.469C74.767 145.913 80.3139 149.421 83.2941 145.893C86.5689 142.016 87.3947 136.215 88.1852 131.132C88.5524 131.486 88.9163 131.841 89.2769 132.193C91.6563 134.515 97.1171 139.673 101.035 138.098C109.376 134.745 105.984 118.448 102.01 110.518C107.945 108.194 113.992 106.168 119.932 103.724C120.769 103.38 121.289 102.197 120.621 101.432C115.799 95.9125 109.528 92.6711 103.047 89.4374C100.3 88.0673 97.6895 86.5311 95.1122 84.9516C106.401 84.6435 111.989 64.067 107.756 55.0779C110.324 53.7373 112.068 48.9228 109.415 46.9775Z" fill="white"/>
<path d="M77.1803 51.6549C76.1171 51.6939 75.8741 53.0428 76.5639 53.6721C81.0584 57.7721 77.5497 64.7614 75.1347 69.308C71.117 76.8718 61.6377 78.5312 53.8943 78.394C52.756 78.3744 52.7147 80.2197 53.8155 80.3659C64.3555 81.7679 74.2258 78.1309 79.0337 68.325C80.8185 64.6855 85.1342 51.3671 77.1803 51.6549Z" fill="white"/>
<path d="M63.6073 66.2968C62.4226 65.2007 60.9143 64.4338 59.3341 64.115C58.6507 63.9772 57.965 64.017 57.2968 64.1959C57.0166 64.2711 56.6498 64.5084 56.4725 64.742C56.2157 65.0816 56.3282 65.2911 56.2077 65.6416C56.0547 66.0858 56.6235 66.5174 56.9452 66.0978C57.04 65.9743 57.7162 65.907 57.8861 65.8904C58.3338 65.8499 58.8167 66.0715 59.2138 66.245C60.1569 66.6572 61.0424 67.3127 61.6898 68.1122C62.9019 69.6105 65.0332 67.6163 63.6073 66.2968Z" fill="white"/>
<path d="M66.3818 57.5671C64.4441 56.866 62.1199 56.9228 60.2994 57.9048C59.5761 58.294 60.0852 59.5268 60.8593 59.3971C62.3191 59.1536 63.681 58.9908 65.1106 59.4979C65.7765 59.7344 66.4067 60.1268 66.8801 60.6542C67.3364 61.1633 67.4102 61.8416 67.8699 62.3408C68.5459 63.0739 69.8001 62.9387 70.0099 61.8411C70.4002 59.8027 68.0357 58.1657 66.3818 57.5671Z" fill="white"/>
</svg>
